SplineFontDB: 3.0
FontName: DaddyTimeMono
FullName: DaddyTimeMono
FamilyName: DaddyTimeMono
Weight: Book
Copyright: Copyright (C) 2017-2018 Jason Stewart, All Rights Reserved
UComments: "2018-1-11: Created."
Version: 1.001
ItalicAngle: 0
UnderlinePosition: -147
UnderlineWidth: 74
Ascent: 812
Descent: 212
InvalidEm: 0
sfntRevision: 0x00010000
LayerCount: 2
Layer: 0 1 "Back" 1
Layer: 1 1 "Fore" 0
XUID: [1021 355 1717067722 10856863]
FSType: 0
OS2Version: 4
OS2_WeightWidthSlopeOnly: 0
OS2_UseTypoMetrics: 1
CreationTime: 1515680211
ModificationTime: 1521361506
PfmFamily: 49
TTFWeight: 400
TTFWidth: 5
LineGap: 0
VLineGap: 0
Panose: 2 0 5 9 0 0 0 0 0 0
OS2TypoAscent: 940
OS2TypoAOffset: 0
OS2TypoDescent: -212
OS2TypoDOffset: 0
OS2TypoLinegap: 0
OS2WinAscent: 940
OS2WinAOffset: 0
OS2WinDescent: 212
OS2WinDOffset: 0
HheadAscent: 940
HheadAOffset: 0
HheadDescent: -212
HheadDOffset: 0
OS2Vendor: 'EGSD'
OS2CodePages: 40000001.00000000
MarkAttachClasses: 1
DEI: 91125
ShortTable: maxp 16
  0
  0
  0
  0
  0
  0
  0
  2
  1
  2
  22
  0
  256
  0
  0
  0
EndShort
TtTable: prep
PUSHW_1
 511
SCANCTRL
PUSHB_1
 1
SCANTYPE
SVTCA[y-axis]
MPPEM
PUSHB_1
 8
LT
IF
PUSHB_2
 1
 1
INSTCTRL
EIF
PUSHB_2
 70
 6
CALL
IF
POP
PUSHB_1
 16
EIF
MPPEM
PUSHB_1
 20
GT
IF
POP
PUSHB_1
 128
EIF
SCVTCI
PUSHB_1
 6
CALL
NOT
IF
SVTCA[y-axis]
PUSHB_1
 3
DUP
RCVT
PUSHB_1
 3
CALL
WCVTP
SVTCA[x-axis]
PUSHB_1
 4
DUP
RCVT
PUSHB_1
 3
CALL
WCVTP
EIF
PUSHB_1
 20
CALL
EndTTInstrs
TtTable: fpgm
PUSHB_1
 0
FDEF
PUSHB_1
 0
SZP0
MPPEM
PUSHB_1
 42
LT
IF
PUSHB_1
 74
SROUND
EIF
PUSHB_1
 0
SWAP
MIAP[rnd]
RTG
PUSHB_1
 6
CALL
IF
RTDG
EIF
MPPEM
PUSHB_1
 42
LT
IF
RDTG
EIF
DUP
MDRP[rp0,rnd,grey]
PUSHB_1
 1
SZP0
MDAP[no-rnd]
RTG
ENDF
PUSHB_1
 1
FDEF
DUP
MDRP[rp0,min,white]
PUSHB_1
 12
CALL
ENDF
PUSHB_1
 2
FDEF
MPPEM
GT
IF
RCVT
SWAP
EIF
POP
ENDF
PUSHB_1
 3
FDEF
ROUND[Black]
RTG
DUP
PUSHB_1
 64
LT
IF
POP
PUSHB_1
 64
EIF
ENDF
PUSHB_1
 4
FDEF
PUSHB_1
 6
CALL
IF
POP
SWAP
POP
ROFF
IF
MDRP[rp0,min,rnd,black]
ELSE
MDRP[min,rnd,black]
EIF

StartChar: C
Encoding: 67 67 0
Width: 588
VWidth: 0
Flags: W
HStem: 0 74<267.603 503> 670 72<245.635 503>
VStem: 43 82<267.196 519.946>
LayerCount: 2
Fore
SplineSet
503 742 m 1,0,-1
 547 670 l 1,1,-1
 312 670 l 2,2,3
 245 670 245 670 185 587.5 c 128,-1,4
 125 505 125 505 125 406 c 0,5,6
 125 277 125 277 191.5 175.5 c 128,-1,7
 258 74 258 74 343 74 c 2,8,-1
 503 74 l 1,9,-1
 547 0 l 1,10,-1
 356 0 l 2,11,12
 219 0 219 0 131 115 c 128,-1,13
 43 230 43 230 43 406 c 0,14,15
 43 483 43 483 77 560.5 c 128,-1,16
 111 638 111 638 171.5 690 c 128,-1,17
 232 742 232 742 299 742 c 2,18,-1
 503 742 l 1,0,-1
EndSplineSet
Validated: 3073
EndChar

StartChar: D
Encoding: 68 68 1
Width: 588
VWidth: 0
Flags: W
HStem: 0 74<124 341.674> 670 72<124 346.938>
VStem: 42 82<74 670> 465 82<236.363 499.043>
LayerCount: 2
Fore
SplineSet
339 742 m 2,0,1
 375 742 375 742 421 694 c 128,-1,2
 467 646 467 646 499 583 c 0,3,4
 547 488 547 488 547 353 c 0,5,6
 547 230 547 230 489 131 c 0,7,8
 460 82 460 82 411.5 41 c 128,-1,9
 363 0 363 0 339 0 c 2,10,-1
 42 0 l 1,11,-1
 42 742 l 1,12,-1
 339 742 l 2,0,1
465 353 m 0,13,14
 465 463 465 463 426 539 c 0,15,16
 399 591 399 591 364 630.5 c 128,-1,17
 329 670 329 670 301 670 c 2,18,-1
 124 670 l 1,19,-1
 124 74 l 1,20,-1
 301 74 l 2,21,22
 320 74 320 74 357 110 c 128,-1,23
 394 146 394 146 419 187 c 0,24,25
 465 265 465 265 465 353 c 0,13,14
EndSplineSet
Validated: 3073
EndChar

StartChar: zero
Encoding: 48 48 2
Width: 588
VWidth: 0
Flags: W
HStem: -6 74<237.136 362.974> 675 74<225.288 351.717>
VStem: 54 82<212.578 542.81> 454 82<202.995 519.618>
LayerCount: 2
Fore
SplineSet
530 749 m 1,0,-1
 468 629 l 1,1,2
 536 516 536 516 536 373 c 0,3,4
 536 276 536 276 510.5 192 c 128,-1,5
 485 108 485 108 428.5 51 c 128,-1,6
 372 -6 372 -6 295 -6 c 0,7,8
 222 -6 222 -6 161 57 c 1,9,-1
 124 0 l 1,10,-1
 43 0 l 1,11,-1
 113 120 l 1,12,13
 54 225 54 225 54 373 c 0,14,15
 54 472 54 472 78.5 555 c 128,-1,16
 103 638 103 638 159.5 693.5 c 128,-1,17
 216 749 216 749 295 749 c 0,18,19
 361 749 361 749 422 690 c 1,20,-1
 450 749 l 1,21,-1
 530 749 l 1,0,-1
295 675 m 0,22,23
 251 675 251 675 218.5 648 c 128,-1,24
 186 621 186 621 169 575.5 c 128,-1,25
 152 530 152 530 144 480 c 128,-1,26
 136 430 136 430 136 373 c 0,27,28
 136 273 136 273 161 204 c 1,29,-1
 380 618 l 1,30,31
 345 675 345 675 295 675 c 0,22,23
201 129 m 1,32,33
 218 108 218 108 228.5 97.5 c 128,-1,34
 239 87 239 87 257 77.5 c 128,-1,35
 275 68 275 68 295 68 c 0,36,37
 338 68 338 68 370.5 95.5 c 128,-1,38
 403 123 403 123 420.5 169.5 c 128,-1,39
 438 216 438 216 446 266.5 c 128,-1,40
 454 317 454 317 454 373 c 0,41,42
 454 466 454 466 422 547 c 1,43,-1
 201 129 l 1,32,33
EndSplineSet
Validated: 3073
EndChar

StartChar: one
Encoding: 49 49 3
Width: 588
VWidth: 0
Flags: W
HStem: 0 21G<254 336> 722 20G<262.931 336>
VStem: 254 82<0 568>
LayerCount: 2
Fore
SplineSet
336 742 m 25,0,-1
 336 0 l 1,1,-1
 254 0 l 1,2,-1
 254 568 l 1,3,-1
 170 568 l 1,4,-1
 275 742 l 1,5,-1
 336 742 l 25,0,-1
EndSplineSet
Validated: 3073
EndChar

StartChar: slash
Encoding: 47 47 4
Width: 588
VWidth: 0
Flags: W
LayerCount: 2
Fore
SplineSet
536 819 m 25,0,-1
 135 -77 l 1,1,-1
 53 -77 l 1,2,-1
 454 819 l 1,3,-1
 536 819 l 25,0,-1
EndSplineSet
Validated: 3073
EndChar

StartChar: exclam
Encoding: 33 33 5
Width: 588
VWidth: 0
Flags: W
HStem: -6 132<243.689 344.826> 729 20G<284 306>
VStem: 221 146<13.0804 105.889> 231 125<428.598 741.961> 253 82<182.057 457.938>
LayerCount: 2
Fore
SplineSet
295 126 m 24,0,1
 324 126 324 126 345.5 106.5 c 128,-1,2
 367 87 367 87 367 59 c 128,-1,3
 367 31 367 31 345.5 12.5 c 128,-1,4
 324 -6 324 -6 295 -6 c 0,5,6
 265 -6 265 -6 243 12.5 c 128,-1,7
 221 31 221 31 221 59 c 0,8,9
 221 88 221 88 243 107 c 128,-1,10
 265 126 265 126 295 126 c 24,0,1
295 749 m 128,-1,12
 317 749 317 749 336.5 741.5 c 128,-1,13
 356 734 356 734 356 722 c 0,14,15
 356 659 356 659 345.5 464 c 128,-1,16
 335 269 335 269 335 206 c 0,17,18
 335 180 335 180 295 180 c 0,19,20
 253 180 253 180 253 206 c 0,21,22
 253 269 253 269 242 464 c 128,-1,23
 231 659 231 659 231 722 c 0,24,25
 231 734 231 734 252 741.5 c 128,-1,11
 273 749 273 749 295 749 c 128,-1,12
EndSplineSet
Validated: 3073
EndChar

StartChar: quotedbl
Encoding: 34 34 6
Width: 588
VWidth: 0
Flags: W
HStem: 518 281<152.34 199.362 387.182 434.362>
VStem: 121 112<572.751 789.033> 355 113<572.748 789.033>
LayerCount: 2
Fore
SplineSet
411 799 m 128,-1,1
 434 799 434 799 451 785 c 128,-1,2
 468 771 468 771 468 753 c 0,3,4
 468 727 468 727 464 679 c 128,-1,5
 460 631 460 631 446 574.5 c 128,-1,6
 432 518 432 518 411 518 c 0,7,8
 395 518 395 518 383 549.5 c 128,-1,9
 371 581 371 581 365.5 625.5 c 128,-1,10
 360 670 360 670 357.5 703 c 128,-1,11
 355 736 355 736 355 753 c 0,12,13
 355 771 355 771 371.5 785 c 128,-1,0
 388 799 388 799 411 799 c 128,-1,1
176 799 m 128,-1,15
 199 799 199 799 216 785 c 128,-1,16
 233 771 233 771 233 753 c 0,17,18
 233 727 233 727 229 679 c 128,-1,19
 225 631 225 631 211 574.5 c 128,-1,20
 197 518 197 518 176 518 c 0,21,22
 160 518 160 518 148 549.5 c 128,-1,23
 136 581 136 581 130.5 626 c 128,-1,24
 125 671 125 671 123 703 c 128,-1,25
 121 735 121 735 121 753 c 128,-1,26
 121 771 121 771 137 785 c 128,-1,14
 153 799 153 799 176 799 c 128,-1,15
EndSplineSet
Validated: 3073
EndChar

StartChar: numbersign
Encoding: 35 35 7
Width: 588
VWidth: 0
Flags: W
HStem: 158 70<45 116 203 324 411 514> 439 70<74 161 249 370 457 543>
LayerCount: 2
Fore
SplineSet
402 158 m 1,0,-1
 385 44 l 1,1,-1
 308 44 l 1,2,-1
 324 158 l 1,3,-1
 195 158 l 1,4,-1
 176 44 l 1,5,-1
 97 44 l 1,6,-1
 116 158 l 1,7,-1
 36 158 l 1,8,-1
 45 228 l 1,9,-1
 126 228 l 1,10,-1
 161 439 l 1,11,-1
 65 439 l 1,12,-1
 74 509 l 1,13,-1
 170 509 l 1,14,-1
 185 622 l 1,15,-1
 262 622 l 1,16,-1
 249 509 l 1,17,-1
 378 509 l 1,18,-1
 393 622 l 1,19,-1
 470 622 l 1,20,-1
 457 509 l 1,21,-1
 554 509 l 1,22,-1
 543 439 l 1,23,-1
 446 439 l 1,24,-1
 411 228 l 1,25,-1
 525 228 l 1,26,-1
 514 158 l 1,27,-1
 402 158 l 1,0,-1
335 228 m 1,28,-1
 370 439 l 1,29,-1
 238 439 l 1,30,-1
 203 228 l 1,31,-1
 335 228 l 1,28,-1
EndSplineSet
Validated: 3073
EndChar

StartChar: dollar
Encoding: 36 36 8
Width: 588
VWidth: 0
Flags: W
HStem: 0 74<86 253 335 405.859> 379 74<166.943 253 335 411.544> 669 72<166.943 253 335 503>
VStem: 42 82<493.303 628.654> 253 82<-88 0 78 379 453 669 741 819> 465 82<135.745 321.786>
LayerCount: 2
Fore
SplineSet
503 741 m 1,0,-1
 547 669 l 1,1,-1
 335 669 l 1,2,-1
 335 453 l 1,3,4
 435 453 435 453 491 389 c 128,-1,5
 547 325 547 325 547 228 c 128,-1,6
 547 131 547 131 490.5 65.5 c 128,-1,7
 434 0 434 0 335 0 c 1,8,-1
 335 -88 l 1,9,-1
 253 -88 l 1,10,-1
 253 0 l 1,11,-1
 42 0 l 1,12,-1
 86 74 l 1,13,-1
 253 74 l 1,14,-1
 253 379 l 1,15,16
 167 379 167 379 104.5 428 c 128,-1,17
 42 477 42 477 42 560 c 128,-1,18
 42 643 42 643 104.5 691 c 128,-1,19
 167 739 167 739 253 739 c 1,20,-1
 253 819 l 1,21,-1
 335 819 l 1,22,-1
 335 741 l 1,23,-1
 503 741 l 1,0,-1
253 669 m 1,24,25
 194 669 194 669 159 641.5 c 128,-1,26
 124 614 124 614 124 561 c 128,-1,27
 124 508 124 508 159 480.5 c 128,-1,28
 194 453 194 453 253 453 c 1,29,-1
 253 669 l 1,24,25
335 78 m 1,30,31
 400 78 400 78 432.5 120 c 128,-1,32
 465 162 465 162 465 228 c 0,33,34
 465 295 465 295 433 337 c 128,-1,35
 401 379 401 379 335 379 c 1,36,-1
 335 78 l 1,30,31
EndSplineSet
Validated: 3073
EndChar

StartChar: percent
Encoding: 37 37 9
Width: 588
VWidth: 0
Flags: W
HStem: -6 42<385.139 454.861> 231 41<385.832 454.168> 404 42<135.139 204.861> 641 43<135.139 204.861>
VStem: 51 67<462.659 625.394> 222 67<462.659 625.394> 301 67<51.9533 213.987> 472 67<51.9533 213.987>
LayerCount: 2
Fore
SplineSet
420 231 m 128,-1,1
 402 231 402 231 390.5 223 c 128,-1,2
 379 215 379 215 374.5 197.5 c 128,-1,3
 370 180 370 180 369 167.5 c 128,-1,4
 368 155 368 155 368 133 c 128,-1,5
 368 111 368 111 369 99 c 128,-1,6
 370 87 370 87 374.5 69.5 c 128,-1,7
 379 52 379 52 390.5 44 c 128,-1,8
 402 36 402 36 420 36 c 128,-1,9
 438 36 438 36 449.5 44 c 128,-1,10
 461 52 461 52 465.5 69.5 c 128,-1,11
 470 87 470 87 471 99 c 128,-1,12
 472 111 472 111 472 133 c 128,-1,13
 472 155 472 155 471 167.5 c 128,-1,14
 470 180 470 180 465.5 197.5 c 128,-1,15
 461 215 461 215 449.5 223 c 128,-1,0
 438 231 438 231 420 231 c 128,-1,1
420 272 m 128,-1,17
 472 272 472 272 505.5 230 c 128,-1,18
 539 188 539 188 539 133 c 128,-1,19
 539 78 539 78 505.5 36 c 128,-1,20
 472 -6 472 -6 420 -6 c 128,-1,21
 368 -6 368 -6 334.5 36 c 128,-1,22
 301 78 301 78 301 133 c 128,-1,23
 301 188 301 188 334.5 230 c 128,-1,16
 368 272 368 272 420 272 c 128,-1,17
539 678 m 25,24,-1
 137 0 l 1,25,-1
 56 0 l 1,26,-1
 455 678 l 1,27,-1
 539 678 l 25,24,-1
170 641 m 128,-1,29
 152 641 152 641 140.5 633 c 128,-1,30
 129 625 129 625 124.5 607.5 c 128,-1,31
 120 590 120 590 119 578 c 128,-1,32
 118 566 118 566 118 544 c 128,-1,33
 118 522 118 522 119 509.5 c 128,-1,34
 120 497 120 497 124.5 479.5 c 128,-1,35
 129 462 129 462 140.5 454 c 128,-1,36
 152 446 152 446 170 446 c 128,-1,37
 188 446 188 446 199.5 454 c 128,-1,38
 211 462 211 462 215.5 479.5 c 128,-1,39
 220 497 220 497 221 509.5 c 128,-1,40
 222 522 222 522 222 544 c 128,-1,41
 222 566 222 566 221 578 c 128,-1,42
 220 590 220 590 215.5 607.5 c 128,-1,43
 211 625 211 625 199.5 633 c 128,-1,28
 188 641 188 641 170 641 c 128,-1,29
170 684 m 128,-1,45
 222 684 222 684 255.5 641.5 c 128,-1,46
 289 599 289 599 289 544 c 128,-1,47
 289 489 289 489 255.5 446.5 c 128,-1,48
 222 404 222 404 170 404 c 128,-1,49
 118 404 118 404 84.5 446.5 c 128,-1,50
 51 489 51 489 51 544 c 128,-1,51
 51 599 51 599 84.5 641.5 c 128,-1,44
 118 684 118 684 170 684 c 128,-1,45
EndSplineSet
Validated: 3073
EndChar

StartChar: ampersand
Encoding: 38 38 10
Width: 588
VWidth: 0
Flags: W
HStem: -6 72<168.023 299.808> 673 69<237.357 342.624>
VStem: 35 79<122.642 254.381> 125 79<494.131 639.992> 381 75<499.196 635.235>
LayerCount: 2
Fore
SplineSet
292 742 m 0,0,1
 361 742 361 742 408.5 686 c 128,-1,2
 456 630 456 630 456 575 c 0,3,4
 456 463 456 463 345 368 c 1,5,6
 375 337 375 337 393 307.5 c 128,-1,7
 411 278 411 278 417 259.5 c 128,-1,8
 423 241 423 241 433 201 c 1,9,10
 443 215 443 215 449.5 223.5 c 128,-1,11
 456 232 456 232 463.5 239 c 128,-1,12
 471 246 471 246 473.5 249.5 c 128,-1,13
 476 253 476 253 483.5 257 c 128,-1,14
 491 261 491 261 492.5 261.5 c 128,-1,15
 494 262 494 262 505 266 c 128,-1,16
 516 270 516 270 519 271 c 1,17,-1
 554 209 l 1,18,19
 523 208 523 208 491.5 184.5 c 128,-1,20
 460 161 460 161 459 136 c 1,21,22
 493 76 493 76 554 75 c 1,23,-1
 480 -1 l 1,24,25
 448 24 448 24 435 38.5 c 128,-1,26
 422 53 422 53 406 83 c 1,27,28
 397 76 397 76 378.5 61 c 128,-1,29
 360 46 360 46 351 39 c 128,-1,30
 342 32 342 32 323.5 21.5 c 128,-1,31
 305 11 305 11 289.5 6.5 c 128,-1,32
 274 2 274 2 250.5 -2 c 128,-1,33
 227 -6 227 -6 199 -6 c 0,34,35
 151 -6 151 -6 93 58 c 128,-1,36
 35 122 35 122 35 181 c 0,37,38
 36 241 36 241 73 288 c 128,-1,39
 110 335 110 335 221 391 c 1,40,41
 176 426 176 426 150.5 484 c 128,-1,42
 125 542 125 542 125 578 c 0,43,44
 125 644 125 644 177 693 c 128,-1,45
 229 742 229 742 292 742 c 0,0,1
294 673 m 0,46,47
 262 673 262 673 233 647 c 128,-1,48
 204 621 204 621 204 578 c 0,49,50
 204 541 204 541 218 510.5 c 128,-1,51
 232 480 232 480 248 463 c 128,-1,52
 264 446 264 446 292 424 c 1,53,54
 330 444 330 444 353.5 487.5 c 128,-1,55
 377 531 377 531 381 575 c 1,56,57
 381 614 381 614 351 643.5 c 128,-1,58
 321 673 321 673 294 673 c 0,46,47
270 335 m 1,59,60
 246 318 246 318 211 301.5 c 128,-1,61
 176 285 176 285 159 275.5 c 128,-1,62
 142 266 142 266 128 242.5 c 128,-1,63
 114 219 114 219 114 181 c 0,64,65
 114 145 114 145 149.5 105.5 c 128,-1,66
 185 66 185 66 220 66 c 0,67,68
 247 66 247 66 268.5 72.5 c 128,-1,69
 290 79 290 79 311 97 c 128,-1,70
 332 115 332 115 340 123 c 128,-1,71
 348 131 348 131 371 157 c 1,72,73
 355 224 355 224 333 266.5 c 128,-1,74
 311 309 311 309 270 335 c 1,59,60
EndSplineSet
Validated: 3073
EndChar

StartChar: quotesingle
Encoding: 39 39 11
Width: 588
VWidth: 0
Flags: W
HStem: 518 281<269.34 316.362>
VStem: 238 112<572.751 789.033>
LayerCount: 2
Fore
SplineSet
293 799 m 128,-1,1
 316 799 316 799 333 785 c 128,-1,2
 350 771 350 771 350 753 c 0,3,4
 350 727 350 727 346 679 c 128,-1,5
 342 631 342 631 328 574.5 c 128,-1,6
 314 518 314 518 293 518 c 0,7,8
 277 518 277 518 265 549.5 c 128,-1,9
 253 581 253 581 247.5 626 c 128,-1,10
 242 671 242 671 240 703 c 128,-1,11
 238 735 238 735 238 753 c 128,-1,12
 238 771 238 771 254 785 c 128,-1,0
 270 799 270 799 293 799 c 128,-1,1
EndSplineSet
Validated: 3073
EndChar

StartChar: parenleft
Encoding: 40 40 12
Width: 588
VWidth: 0
Flags: W
HStem: -88 82<357.691 416> 737 82<357.238 416>
VStem: 193 81<135.956 598.862>
LayerCount: 2
Fore
SplineSet
416 819 m 9,0,-1
 416 737 l 1,1,2
 274 737 274 737 274 365 c 0,3,4
 274 -6 274 -6 416 -6 c 1,5,-1
 416 -88 l 1,6,7
 193 -88 193 -88 193 365 c 0,8,9
 193 413 193 413 194.5 453 c 128,-1,10
 196 493 196 493 201.5 541.5 c 128,-1,11
 207 590 207 590 216.5 627.5 c 128,-1,12
 226 665 226 665 243 702.5 c 128,-1,13
 260 740 260 740 283 764.5 c 128,-1,14
 306 789 306 789 340 804 c 128,-1,15
 374 819 374 819 416 819 c 9,0,-1
EndSplineSet
Validated: 3073
EndChar

StartChar: parenright
Encoding: 41 41 13
Width: 588
VWidth: 0
Flags: W
HStem: -88 82<173 231.309> 737 82<173 231.348>
VStem: 314 82<135.956 598.862>
LayerCount: 2
Fore
SplineSet
173 819 m 17,0,1
 215 819 215 819 249 804 c 128,-1,2
 283 789 283 789 306 764.5 c 128,-1,3
 329 740 329 740 346 702.5 c 128,-1,4
 363 665 363 665 372.5 627.5 c 128,-1,5
 382 590 382 590 387.5 541.5 c 128,-1,6
 393 493 393 493 394.5 453 c 128,-1,7
 396 413 396 413 396 365 c 0,8,9
 396 -88 396 -88 173 -88 c 1,10,-1
 173 -6 l 1,11,12
 314 -6 314 -6 314 365 c 0,13,14
 314 737 314 737 173 737 c 1,15,-1
 173 819 l 17,0,1
EndSplineSet
Validated: 3073
EndChar

StartChar: asterisk
Encoding: 42 42 14
Width: 588
VWidth: 0
Flags: W
HStem: 414 328
LayerCount: 2
Fore
SplineSet
352 742 m 1,0,-1
 322 612 l 1,1,-1
 449 683 l 1,2,-1
 481 592 l 1,3,-1
 339 569 l 1,4,-1
 453 467 l 1,5,-1
 372 414 l 1,6,-1
 295 539 l 1,7,-1
 218 414 l 1,8,-1
 135 467 l 1,9,-1
 251 569 l 1,10,-1
 109 592 l 1,11,-1
 139 683 l 1,12,-1
 268 612 l 1,13,-1
 236 742 l 1,14,-1
 352 742 l 1,0,-1
EndSplineSet
Validated: 3073
EndChar

StartChar: plus
Encoding: 43 43 15
Width: 588
VWidth: 0
Flags: W
HStem: 315 82<66.905 254 336 516.749>
VStem: 254 82<134.767 315 397 585.024>
LayerCount: 2
Fore
SplineSet
295 587 m 128,-1,1
 336 587 336 587 336 559 c 2,2,-1
 336 397 l 1,3,-1
 495 397 l 2,4,5
 509 397 509 397 517 385.5 c 128,-1,6
 525 374 525 374 525 356 c 128,-1,7
 525 338 525 338 517 326.5 c 128,-1,8
 509 315 509 315 495 315 c 2,9,-1
 336 315 l 1,10,-1
 336 157 l 2,11,12
 336 143 336 143 324.5 134.5 c 128,-1,13
 313 126 313 126 295 126 c 128,-1,14
 277 126 277 126 265.5 134.5 c 128,-1,15
 254 143 254 143 254 157 c 2,16,-1
 254 315 l 1,17,-1
 92 315 l 2,18,19
 65 315 65 315 65 356 c 128,-1,20
 65 397 65 397 92 397 c 2,21,-1
 254 397 l 1,22,-1
 254 559 l 2,23,0
 254 587 254 587 295 587 c 128,-1,1
EndSplineSet
Validated: 3073
EndChar

StartChar: comma
Encoding: 44 44 16
Width: 588
VWidth: 0
Flags: W
HStem: -6 136<244.004 318.76>
VStem: 223 146<12.6178 109.271>
LayerCount: 2
Fore
SplineSet
297 130 m 0,0,1
 325 130 325 130 347 110.5 c 128,-1,2
 369 91 369 91 369 61 c 0,3,4
 368 25 368 25 356 -16.5 c 128,-1,5
 344 -58 344 -58 314 -93.5 c 128,-1,6
 284 -129 284 -129 243 -129 c 0,7,8
 231 -129 231 -129 231 -119 c 0,9,10
 231 -114 231 -114 240.5 -107 c 128,-1,11
 250 -100 250 -100 263 -91.5 c 128,-1,12
 276 -83 276 -83 292 -57.5 c 128,-1,13
 308 -32 308 -32 319 6 c 1,14,15
 313 -6 313 -6 287 -6 c 0,16,17
 264 -6 264 -6 243.5 13.5 c 128,-1,18
 223 33 223 33 223 61 c 0,19,20
 223 86 223 86 244 108 c 128,-1,21
 265 130 265 130 297 130 c 0,0,1
EndSplineSet
Validated: 3073
EndChar

StartChar: hyphen
Encoding: 45 45 17
Width: 588
VWidth: 0
Flags: W
HStem: 315 82<66.905 516.749>
LayerCount: 2
Fore
SplineSet
495 397 m 2,0,1
 509 397 509 397 517 385.5 c 128,-1,2
 525 374 525 374 525 356 c 128,-1,3
 525 338 525 338 517 326.5 c 128,-1,4
 509 315 509 315 495 315 c 2,5,-1
 92 315 l 2,6,7
 65 315 65 315 65 356 c 128,-1,8
 65 397 65 397 92 397 c 2,9,-1
 495 397 l 2,0,1
EndSplineSet
Validated: 3073
EndChar

StartChar: period
Encoding: 46 46 18
Width: 588
VWidth: 0
Flags: W
HStem: -6 132<243.689 344.826>
VStem: 221 146<13.0804 105.889>
LayerCount: 2
Fore
SplineSet
295 126 m 24,0,1
 324 126 324 126 345.5 106.5 c 128,-1,2
 367 87 367 87 367 59 c 128,-1,3
 367 31 367 31 345.5 12.5 c 128,-1,4
 324 -6 324 -6 295 -6 c 0,5,6
 265 -6 265 -6 243 12.5 c 128,-1,7
 221 31 221 31 221 59 c 0,8,9
 221 88 221 88 243 107 c 128,-1,10
 265 126 265 126 295 126 c 24,0,1
EndSplineSet
Validated: 3073
EndChar

StartChar: two
Encoding: 50 50 19
Width: 588
VWidth: 0
Flags: W
HStem: 1 140<451 535> 1 74<143 451> 675 74<207.203 390.682>
VStem: 54 82<507 600.089> 453 82<75 141 474.252 615.352>
LayerCount: 2
Fore
SplineSet
295 749 m 0,0,1
 404 749 404 749 469 685.5 c 128,-1,2
 534 622 534 622 535 539 c 1,3,4
 534 490 534 490 498.5 436.5 c 128,-1,5
 463 383 463 383 410 336 c 128,-1,6
 357 289 357 289 302.5 245 c 128,-1,7
 248 201 248 201 202.5 156 c 128,-1,8
 157 111 157 111 143 75 c 1,9,-1
 451 75 l 1,10,-1
 451 141 l 1,11,-1
 535 141 l 1,12,-1
 535 1 l 1,13,-1
 54 1 l 1,14,-1
 54 75 l 1,15,16
 67 118 67 118 113.5 169.5 c 128,-1,17
 160 221 160 221 216 268 c 128,-1,18
 272 315 272 315 326 361 c 128,-1,19
 380 407 380 407 416.5 454 c 128,-1,20
 453 501 453 501 453 539 c 0,21,22
 453 602 453 602 411 638.5 c 128,-1,23
 369 675 369 675 295 675 c 0,24,25
 219 675 219 675 178 628.5 c 128,-1,26
 137 582 137 582 136 507 c 1,27,-1
 54 507 l 1,28,29
 55 604 55 604 120 676 c 128,-1,30
 185 748 185 748 295 749 c 0,0,1
EndSplineSet
Validated: 3073
EndChar

StartChar: three
Encoding: 51 51 20
Width: 588
VWidth: 0
Flags: W
HStem: -6 21G<71 86.5> 433 74<347 408.694> 606 136<55 137> 669 73<137 422>
VStem: 55 82<606 669> 454 80<226.117 384.027>
LayerCount: 2
Fore
SplineSet
524 742 m 29,0,-1
 524 669 l 1,1,-1
 347 507 l 1,2,3
 390 506 390 506 424 493 c 128,-1,4
 458 480 458 480 477 459 c 128,-1,5
 496 438 496 438 508.5 417 c 128,-1,6
 521 396 521 396 526 372.5 c 128,-1,7
 531 349 531 349 532.5 338 c 128,-1,8
 534 327 534 327 534 319 c 0,9,10
 534 258 534 258 512 207.5 c 128,-1,11
 490 157 490 157 456.5 124.5 c 128,-1,12
 423 92 423 92 377 67 c 128,-1,13
 331 42 331 42 288.5 28.5 c 128,-1,14
 246 15 246 15 199.5 7 c 128,-1,15
 153 -1 153 -1 125.5 -3.5 c 128,-1,16
 98 -6 98 -6 75 -6 c 0,17,18
 67 -6 67 -6 58 3 c 128,-1,19
 49 12 49 12 48 18 c 1,20,21
 48 25 48 25 55 35 c 128,-1,22
 62 45 62 45 71 49 c 1,23,24
 109 57 109 57 125.5 60.5 c 128,-1,25
 142 64 142 64 181 74 c 128,-1,26
 220 84 220 84 240 91.5 c 128,-1,27
 260 99 260 99 294 112 c 128,-1,28
 328 125 328 125 346.5 138 c 128,-1,29
 365 151 365 151 388.5 170.5 c 128,-1,30
 412 190 412 190 424 211 c 128,-1,31
 436 232 436 232 445 259 c 128,-1,32
 454 286 454 286 454 317 c 1,33,34
 451 359 451 359 424 395.5 c 128,-1,35
 397 432 397 432 336 433 c 1,36,37
 269 433 269 433 214 397 c 1,38,-1
 158 434 l 1,39,-1
 215 483 l 1,40,-1
 422 669 l 1,41,-1
 137 669 l 1,42,-1
 137 606 l 1,43,-1
 55 606 l 1,44,-1
 55 742 l 1,45,-1
 524 742 l 29,0,-1
EndSplineSet
Validated: 3073
EndChar

StartChar: four
Encoding: 52 52 21
Width: 588
VWidth: 0
Flags: W
HStem: 0 21G<354 436> 231 74<187 354 436 536> 722 20G<342.258 436>
VStem: 354 82<0 231 305 603>
LayerCount: 2
Fore
SplineSet
354 603 m 1,0,-1
 187 305 l 1,1,-1
 354 305 l 1,2,-1
 354 603 l 1,0,-1
436 742 m 1,3,-1
 436 305 l 1,4,-1
 536 305 l 1,5,-1
 536 231 l 1,6,-1
 436 231 l 1,7,-1
 436 0 l 1,8,-1
 354 0 l 1,9,-1
 354 231 l 1,10,-1
 54 231 l 1,11,-1
 354 742 l 1,12,-1
 436 742 l 1,3,-1
EndSplineSet
Validated: 3073
EndChar

StartChar: five
Encoding: 53 53 22
Width: 588
VWidth: 0
Flags: W
HStem: -6 21G<72 85> 434 74<236.531 409.329> 669 73<138 525>
VStem: 56 82<434 669> 453 82<222.5 387.652>
LayerCount: 2
Fore
SplineSet
525 742 m 25,0,-1
 525 669 l 1,1,-1
 138 669 l 1,2,-1
 138 434 l 1,3,4
 141 437 141 437 146 442 c 128,-1,5
 151 447 151 447 169.5 460 c 128,-1,6
 188 473 188 473 209.5 482.5 c 128,-1,7
 231 492 231 492 267.5 500 c 128,-1,8
 304 508 304 508 345 508 c 0,9,10
 391 508 391 508 426.5 492.5 c 128,-1,11
 462 477 462 477 482 455.5 c 128,-1,12
 502 434 502 434 514.5 406 c 128,-1,13
 527 378 527 378 531 357 c 128,-1,14
 535 336 535 336 535 319 c 0,15,16
 535 257 535 257 512.5 206.5 c 128,-1,17
 490 156 490 156 455 123 c 128,-1,18
 420 90 420 90 372.5 65 c 128,-1,19
 325 40 325 40 281.5 27 c 128,-1,20
 238 14 238 14 192 6 c 128,-1,21
 146 -2 146 -2 120 -4 c 128,-1,22
 94 -6 94 -6 76 -6 c 0,23,24
 68 -6 68 -6 58.5 3 c 128,-1,25
 49 12 49 12 48 18 c 1,26,27
 48 25 48 25 55.5 35 c 128,-1,28
 63 45 63 45 72 49 c 1,29,30
 183 72 183 72 260 101 c 128,-1,31
 337 130 337 130 378 164 c 128,-1,32
 419 198 419 198 436 232 c 128,-1,33
 453 266 453 266 453 307 c 0,34,35
 452 359 452 359 425 396 c 128,-1,36
 398 433 398 433 337 434 c 1,37,38
 273 434 273 434 224 405 c 128,-1,39
 175 376 175 376 148 337 c 1,40,-1
 56 379 l 1,41,-1
 56 742 l 1,42,-1
 525 742 l 25,0,-1
EndSplineSet
Validated: 3073
EndChar

StartChar: six
Encoding: 54 54 23
Width: 588
VWidth: 0
Flags: W
HStem: -6 74<214.898 380.511> 376 74<214.856 380.184> 693 56<348.092 460.828>
VStem: 54 82<144.285 299.492> 453 82<141.039 301.141>
LayerCount: 2
Fore
SplineSet
136 220 m 28,0,1
 136 157 136 157 184 112.5 c 128,-1,2
 232 68 232 68 301 68 c 0,3,4
 366 68 366 68 409.5 113.5 c 128,-1,5
 453 159 453 159 453 220 c 0,6,7
 453 282 453 282 409.5 329 c 128,-1,8
 366 376 366 376 301 376 c 0,9,10
 231 376 231 376 183.5 330 c 128,-1,11
 136 284 136 284 136 220 c 28,0,1
462 724 m 4,12,13
 462 693 462 693 414 693 c 1,14,15
 334 685 334 685 248.5 586.5 c 128,-1,16
 163 488 163 488 153 391 c 1,17,18
 154 392 154 392 164 401.5 c 128,-1,19
 174 411 174 411 178 413.5 c 128,-1,20
 182 416 182 416 192.5 424 c 128,-1,21
 203 432 203 432 212 435 c 128,-1,22
 221 438 221 438 235 442.5 c 128,-1,23
 249 447 249 447 265.5 448.5 c 128,-1,24
 282 450 282 450 301 450 c 0,25,26
 373 450 373 450 427 413.5 c 128,-1,27
 481 377 481 377 506 326.5 c 128,-1,28
 531 276 531 276 535 220 c 1,29,30
 535 128 535 128 465.5 61 c 128,-1,31
 396 -6 396 -6 301 -6 c 0,32,33
 204 -6 204 -6 131.5 61 c 128,-1,34
 59 128 59 128 54 220 c 1,35,36
 54 297 54 297 56.5 333 c 128,-1,37
 59 369 59 369 75 422 c 128,-1,38
 91 475 91 475 126 540 c 1,39,40
 170 626 170 626 254 687.5 c 128,-1,41
 338 749 338 749 407 749 c 1,42,43
 462 748 462 748 462 724 c 4,12,13
EndSplineSet
Validated: 3073
EndChar

StartChar: seven
Encoding: 55 55 24
Width: 588
VWidth: 0
Flags: W
HStem: 0 21G<249 336> 588 154<54 136> 669 73<136 453>
VStem: 54 82<588 669> 249 87<0 242.246> 453 82<517.023 669>
LayerCount: 2
Fore
SplineSet
535 742 m 25,0,-1
 535 545 l 1,1,2
 532 518 532 518 499.5 469 c 128,-1,3
 467 420 467 420 431 373 c 128,-1,4
 395 326 395 326 365.5 260.5 c 128,-1,5
 336 195 336 195 336 138 c 2,6,-1
 336 0 l 1,7,-1
 249 0 l 1,8,-1
 249 138 l 2,9,10
 249 197 249 197 269.5 252.5 c 128,-1,11
 290 308 290 308 317 346.5 c 128,-1,12
 344 385 344 385 385.5 445.5 c 128,-1,13
 427 506 427 506 453 556 c 1,14,-1
 453 669 l 1,15,-1
 136 669 l 1,16,-1
 136 588 l 1,17,-1
 54 588 l 1,18,-1
 54 742 l 1,19,-1
 535 742 l 25,0,-1
EndSplineSet
Validated: 3073
EndChar

StartChar: eight
Encoding: 56 56 25
Width: 588
VWidth: 0
Flags: W
HStem: -6 73<208.918 380.558> 349 73<216.96 372.734> 676 73<218.804 370.998>
VStem: 54 82<133.918 280.18> 76 82<478.268 617.676> 431 82<477.863 618.322> 453 82<133.918 279.955>
LayerCount: 2
Fore
SplineSet
136 206 m 24,0,1
 136 146 136 146 183.5 106.5 c 128,-1,2
 231 67 231 67 295 67 c 0,3,4
 358 67 358 67 405.5 106.5 c 128,-1,5
 453 146 453 146 453 206 c 0,6,7
 453 267 453 267 406 308 c 128,-1,8
 359 349 359 349 295 349 c 128,-1,9
 231 349 231 349 183.5 308 c 128,-1,10
 136 267 136 267 136 206 c 24,0,1
158 548 m 152,-1,12
 158 494 158 494 198.5 458 c 128,-1,13
 239 422 239 422 295 422 c 128,-1,14
 351 422 351 422 391 458 c 128,-1,15
 431 494 431 494 431 548 c 128,-1,16
 431 602 431 602 391 639 c 128,-1,17
 351 676 351 676 295 676 c 128,-1,18
 239 676 239 676 198.5 639 c 128,-1,11
 158 602 158 602 158 548 c 152,-1,12
295 749 m 152,-1,20
 384 749 384 749 448.5 691 c 128,-1,21
 513 633 513 633 513 548 c 0,22,23
 513 443 513 443 416 385 c 1,24,25
 535 322 535 322 535 206 c 0,26,27
 535 115 535 115 463.5 54.5 c 128,-1,28
 392 -6 392 -6 295 -6 c 128,-1,29
 198 -6 198 -6 126 54.5 c 128,-1,30
 54 115 54 115 54 206 c 0,31,32
 54 323 54 323 172 385 c 1,33,34
 76 442 76 442 76 548 c 0,35,36
 76 633 76 633 141 691 c 128,-1,19
 206 749 206 749 295 749 c 152,-1,20
EndSplineSet
Validated: 3073
EndChar

StartChar: nine
Encoding: 57 57 26
Width: 588
VWidth: 0
Flags: W
HStem: -6 55<129.934 243.621> 287 73<210.5 372.835> 675 74<210.478 372.923>
VStem: 54 82<436.69 599.176> 453 82<439.756 597.597>
LayerCount: 2
Fore
SplineSet
453 519 m 28,0,1
 453 584 453 584 404.5 629.5 c 128,-1,2
 356 675 356 675 289 675 c 0,3,4
 226 675 226 675 181 629 c 128,-1,5
 136 583 136 583 136 519 c 0,6,7
 136 454 136 454 180.5 407 c 128,-1,8
 225 360 225 360 289 360 c 0,9,10
 356 360 356 360 404.5 406.5 c 128,-1,11
 453 453 453 453 453 519 c 28,0,1
289 749 m 28,12,13
 386 749 386 749 458 680 c 128,-1,14
 530 611 530 611 535 519 c 1,15,16
 535 412 535 412 523.5 355.5 c 128,-1,17
 512 299 512 299 462 205 c 0,18,19
 417 119 417 119 334.5 56.5 c 128,-1,20
 252 -6 252 -6 183 -6 c 1,21,22
 128 -5 128 -5 128 19 c 0,23,24
 128 32 128 32 146 40.5 c 128,-1,25
 164 49 164 49 176 49 c 1,26,27
 228 54 228 54 287 100 c 128,-1,28
 346 146 346 146 388.5 213.5 c 128,-1,29
 431 281 431 281 437 344 c 1,30,31
 436 343 436 343 427 335 c 128,-1,32
 418 327 418 327 415.5 325 c 128,-1,33
 413 323 413 323 403.5 316 c 128,-1,34
 394 309 394 309 388 306.5 c 128,-1,35
 382 304 382 304 370.5 299 c 128,-1,36
 359 294 359 294 348 292 c 128,-1,37
 337 290 337 290 321.5 288.5 c 128,-1,38
 306 287 306 287 289 287 c 0,39,40
 184 287 184 287 122 358.5 c 128,-1,41
 60 430 60 430 54 519 c 1,42,43
 54 612 54 612 123.5 680.5 c 128,-1,44
 193 749 193 749 289 749 c 28,12,13
EndSplineSet
Validated: 3073
EndChar

StartChar: colon
Encoding: 58 58 27
Width: 588
VWidth: 0
Flags: W
HStem: -6 132<242.689 343.826> 337 132<242.689 343.826>
VStem: 220 146<13.5959 106.404 356.08 448.889>
LayerCount: 2
Fore
SplineSet
294 469 m 24,0,1
 323 469 323 469 344.5 449.5 c 128,-1,2
 366 430 366 430 366 402 c 128,-1,3
 366 374 366 374 344.5 355.5 c 128,-1,4
 323 337 323 337 294 337 c 0,5,6
 264 337 264 337 242 355.5 c 128,-1,7
 220 374 220 374 220 402 c 0,8,9
 220 431 220 431 242 450 c 128,-1,10
 264 469 264 469 294 469 c 24,0,1
294 126 m 24,11,12
 323 126 323 126 344.5 107 c 128,-1,13
 366 88 366 88 366 60 c 128,-1,14
 366 32 366 32 344.5 13 c 128,-1,15
 323 -6 323 -6 294 -6 c 0,16,17
 264 -6 264 -6 242 12.5 c 128,-1,18
 220 31 220 31 220 60 c 128,-1,19
 220 89 220 89 242 107.5 c 128,-1,20
 264 126 264 126 294 126 c 24,11,12
EndSplineSet
Validated: 3073
EndChar

StartChar: semicolon
Encoding: 59 59 28
Width: 588
VWidth: 0
Flags: W
HStem: -6 136<245.004 320.557> 337 132<244.689 345.826>
VStem: 224 146<12.6178 109.271 356.666 448.197>
LayerCount: 2
Fore
SplineSet
298 130 m 0,0,1
 326 130 326 130 348 110.5 c 128,-1,2
 370 91 370 91 370 61 c 0,3,4
 369 25 369 25 357 -16.5 c 128,-1,5
 345 -58 345 -58 315 -93.5 c 128,-1,6
 285 -129 285 -129 244 -129 c 0,7,8
 232 -129 232 -129 232 -119 c 0,9,10
 232 -114 232 -114 241.5 -107 c 128,-1,11
 251 -100 251 -100 264 -91.5 c 128,-1,12
 277 -83 277 -83 293.5 -57.5 c 128,-1,13
 310 -32 310 -32 321 6 c 1,14,15
 315 -6 315 -6 288 -6 c 0,16,17
 265 -6 265 -6 244.5 13.5 c 128,-1,18
 224 33 224 33 224 61 c 0,19,20
 224 86 224 86 245 108 c 128,-1,21
 266 130 266 130 298 130 c 0,0,1
296 469 m 24,22,23
 325 469 325 469 346.5 449.5 c 128,-1,24
 368 430 368 430 368 402 c 128,-1,25
 368 374 368 374 346.5 355.5 c 128,-1,26
 325 337 325 337 296 337 c 0,27,28
 266 337 266 337 244 355.5 c 128,-1,29
 222 374 222 374 222 402 c 0,30,31
 222 431 222 431 244 450 c 128,-1,32
 266 469 266 469 296 469 c 24,22,23
EndSplineSet
Validated: 3073
EndChar

StartChar: less
Encoding: 60 60 29
Width: 588
VWidth: 0
Flags: W
LayerCount: 2
Fore
SplineSet
518 819 m 25,0,-1
 518 702 l 1,1,-1
 204 371 l 1,2,-1
 518 29 l 1,3,-1
 518 -88 l 1,4,-1
 87 371 l 1,5,-1
 518 819 l 25,0,-1
EndSplineSet
Validated: 3073
EndChar

StartChar: equal
Encoding: 61 61 30
Width: 588
VWidth: 0
Flags: W
HStem: 203 82<66.905 516.749> 428 82<66.905 516.749>
LayerCount: 2
Fore
SplineSet
495 285 m 2,0,1
 509 285 509 285 517 273.5 c 128,-1,2
 525 262 525 262 525 244 c 128,-1,3
 525 226 525 226 517 214.5 c 128,-1,4
 509 203 509 203 495 203 c 2,5,-1
 92 203 l 2,6,7
 65 203 65 203 65 244 c 128,-1,8
 65 285 65 285 92 285 c 2,9,-1
 495 285 l 2,0,1
495 510 m 2,10,11
 509 510 509 510 517 498.5 c 128,-1,12
 525 487 525 487 525 469 c 128,-1,13
 525 451 525 451 517 439.5 c 128,-1,14
 509 428 509 428 495 428 c 2,15,-1
 92 428 l 2,16,17
 65 428 65 428 65 469 c 128,-1,18
 65 510 65 510 92 510 c 2,19,-1
 495 510 l 2,10,11
EndSplineSet
Validated: 3073
EndChar

StartChar: greater
Encoding: 62 62 31
Width: 588
VWidth: 0
Flags: W
LayerCount: 2
Fore
SplineSet
71 819 m 25,0,-1
 502 371 l 1,1,-1
 71 -88 l 1,2,-1
 71 29 l 1,3,-1
 385 371 l 1,4,-1
 71 702 l 1,5,-1
 71 819 l 25,0,-1
EndSplineSet
Validated: 3073
EndChar

StartChar: question
Encoding: 63 63 32
Width: 588
VWidth: 0
Flags: W
HStem: -6 132<243.689 344.826> 677 72<194.67 392.649>
VStem: 221 146<13.0804 105.889> 253 82<181.978 377.676> 453 82<524.093 621.883>
LayerCount: 2
Fore
SplineSet
295 126 m 24,0,1
 324 126 324 126 345.5 106.5 c 128,-1,2
 367 87 367 87 367 59 c 128,-1,3
 367 31 367 31 345.5 12.5 c 128,-1,4
 324 -6 324 -6 295 -6 c 0,5,6
 265 -6 265 -6 243 12.5 c 128,-1,7
 221 31 221 31 221 59 c 0,8,9
 221 88 221 88 243 107 c 128,-1,10
 265 126 265 126 295 126 c 24,0,1
295 749 m 0,11,12
 411 749 411 749 473 694.5 c 128,-1,13
 535 640 535 640 535 561 c 0,14,15
 535 528 535 528 503.5 492.5 c 128,-1,16
 472 457 472 457 435 433 c 128,-1,17
 398 409 398 409 366.5 385 c 128,-1,18
 335 361 335 361 335 348 c 2,19,-1
 335 205 l 2,20,21
 335 180 335 180 295 180 c 0,22,23
 253 180 253 180 253 205 c 2,24,-1
 253 376 l 1,25,26
 255 389 255 389 287 415 c 128,-1,27
 319 441 319 441 355.5 465 c 128,-1,28
 392 489 392 489 422.5 516.5 c 128,-1,29
 453 544 453 544 453 561 c 0,30,31
 453 566 453 566 452 573.5 c 128,-1,32
 451 581 451 581 442.5 601 c 128,-1,33
 434 621 434 621 419 636.5 c 128,-1,34
 404 652 404 652 371.5 664.5 c 128,-1,35
 339 677 339 677 295 677 c 0,36,37
 250 677 250 677 217.5 665 c 128,-1,38
 185 653 185 653 170 636 c 128,-1,39
 155 619 155 619 146.5 602 c 128,-1,40
 138 585 138 585 137 573 c 2,41,-1
 136 561 l 1,42,-1
 54 561 l 1,43,44
 54 640 54 640 116 694.5 c 128,-1,45
 178 749 178 749 295 749 c 0,11,12
EndSplineSet
Validated: 3073
EndChar

StartChar: at
Encoding: 64 64 33
Width: 588
VWidth: 0
Flags: W
HStem: 0 71<198.763 243> 161 71<251.033 326.276> 432 74<253.908 322.427> 589 70<218.835 361.59>
VStem: 32 80<204.37 449.844> 168 65<249.568 411.926> 341 67<250.759 415.178> 477 80<227.749 443.855>
LayerCount: 2
Fore
SplineSet
289 659 m 128,-1,1
 362 659 362 659 425.5 607.5 c 128,-1,2
 489 556 489 556 523 481.5 c 128,-1,3
 557 407 557 407 557 333 c 0,4,5
 557 280 557 280 536 222.5 c 128,-1,6
 515 165 515 165 481 123 c 1,7,-1
 424 144 l 1,8,9
 415 151 415 151 406.5 159.5 c 128,-1,10
 398 168 398 168 392.5 176 c 128,-1,11
 387 184 387 184 383 191 c 0,12,13
 378 198 378 198 376 202 c 2,14,-1
 374 207 l 1,15,16
 367 182 367 182 341.5 171.5 c 128,-1,17
 316 161 316 161 289 161 c 0,18,19
 246 161 246 161 207 220.5 c 128,-1,20
 168 280 168 280 168 333 c 0,21,22
 168 387 168 387 206.5 446.5 c 128,-1,23
 245 506 245 506 289 506 c 0,24,25
 346 506 346 506 376 450.5 c 128,-1,26
 406 395 406 395 408 333 c 0,27,28
 409 274 409 274 416.5 250 c 128,-1,29
 424 226 424 226 451 219 c 1,30,31
 477 274 477 274 477 333 c 0,32,33
 477 424 477 424 420.5 506.5 c 128,-1,34
 364 589 364 589 289 589 c 0,35,36
 215 589 215 589 163.5 507.5 c 128,-1,37
 112 426 112 426 112 333 c 0,38,39
 112 276 112 276 131 214.5 c 128,-1,40
 150 153 150 153 181 112 c 128,-1,41
 212 71 212 71 243 71 c 1,42,-1
 301 119 l 1,43,-1
 441 0 l 1,44,-1
 253 0 l 2,45,46
 191 0 191 0 138.5 53.5 c 128,-1,47
 86 107 86 107 59 182.5 c 128,-1,48
 32 258 32 258 32 333 c 128,-1,49
 32 408 32 408 63 482 c 128,-1,50
 94 556 94 556 155 607.5 c 128,-1,0
 216 659 216 659 289 659 c 128,-1,1
289 432 m 128,-1,52
 265 432 265 432 249 402 c 128,-1,53
 233 372 233 372 233 333 c 0,54,55
 233 291 233 291 247 261.5 c 128,-1,56
 261 232 261 232 289 232 c 0,57,58
 341 232 341 232 341 333 c 0,59,60
 341 372 341 372 327 402 c 128,-1,51
 313 432 313 432 289 432 c 128,-1,52
EndSplineSet
Validated: 3073
EndChar

StartChar: A
Encoding: 65 65 34
Width: 588
VWidth: 0
Flags: MW
LayerCount: 2
Back
SplineSet
32 211 m 5,0,-1
 601 470 l 1029,1,2
32 290 m 1,3,-1
 601 549 l 1025,4,5
EndSplineSet
Fore
SplineSet
43 0 m 25,9,-1
 73 460 l 17,10,11
 79 749 79 749 294.5 749 c 128,-1,12
 510 749 510 749 515 460 c 9,13,-1
 545 0 l 17,14,-1
 462 0 l 1,15,-1
 443 398 l 1,16,-1
 140 260 l 1,17,-1
 126 0 l 1,18,-1
 43 0 l 25,9,-1
146 342 m 1,0,-1
 434 473 l 1,1,2
 434 520 434 520 423 551 c 0,3,4
 378 668 378 668 295 668 c 0,5,6
 188 668 188 668 167 551 c 0,7,8
 154 479 154 479 146 342 c 1,0,-1
EndSplineSet
EndChar

StartChar: B
Encoding: 66 66 35
Width: 588
VWidth: 0
Flags: W
HStem: 0 74<125 408.906> 369 73<125 366.046> 670 72<125 381.578>
VStem: 43 82<74 369 442 670> 409 81<492.289 640.996> 470 82<130.285 294.589>
LayerCount: 2
Fore
SplineSet
470 206 m 0,0,1
 470 277 470 277 426.5 323 c 128,-1,2
 383 369 383 369 328 369 c 2,3,-1
 125 369 l 1,4,-1
 125 74 l 1,5,-1
 341 74 l 2,6,7
 384 74 384 74 427 108.5 c 128,-1,8
 470 143 470 143 470 206 c 0,0,1
409 563 m 0,9,10
 409 604 409 604 389.5 637 c 128,-1,11
 370 670 370 670 335 670 c 2,12,-1
 125 670 l 1,13,-1
 125 442 l 1,14,-1
 324 442 l 2,15,16
 353 442 353 442 381 483.5 c 128,-1,17
 409 525 409 525 409 563 c 0,9,10
324 742 m 2,18,19
 370 742 370 742 404 725.5 c 128,-1,20
 438 709 438 709 456 682 c 128,-1,21
 474 655 474 655 482 625.5 c 128,-1,22
 490 596 490 596 490 563 c 0,23,24
 490 518 490 518 463 469.5 c 128,-1,25
 436 421 436 421 414 416 c 1,26,-1
 414 401 l 1,27,28
 474 379 474 379 513 322.5 c 128,-1,29
 552 266 552 266 552 206 c 0,30,31
 552 115 552 115 495 57.5 c 128,-1,32
 438 0 438 0 343 0 c 2,33,-1
 43 0 l 1,34,-1
 43 742 l 1,35,-1
 324 742 l 2,18,19
EndSplineSet
Validated: 3073
EndChar

StartChar: E
Encoding: 69 69 36
Width: 588
VWidth: 0
Flags: W
HStem: 0 74<125 503> 364 73<125 376> 670 72<125 503>
VStem: 43 82<74 364 437 670>
LayerCount: 2
Fore
SplineSet
503 742 m 25,0,-1
 547 670 l 1,1,-1
 125 670 l 1,2,-1
 125 437 l 1,3,-1
 376 437 l 1,4,-1
 420 364 l 1,5,-1
 125 364 l 1,6,-1
 125 74 l 1,7,-1
 503 74 l 1,8,-1
 547 0 l 1,9,-1
 43 0 l 1,10,-1
 43 742 l 1,11,-1
 503 742 l 25,0,-1
EndSplineSet
Validated: 3073
EndChar

StartChar: F
Encoding: 70 70 37
Width: 588
VWidth: 0
Flags: W
HStem: 0 21G<43 125> 374 72<125 376> 670 72<125 503>
VStem: 43 82<0 374 446 670>
LayerCount: 2
Fore
SplineSet
503 742 m 25,0,-1
 547 670 l 1,1,-1
 125 670 l 1,2,-1
 125 446 l 1,3,-1
 376 446 l 1,4,-1
 420 374 l 1,5,-1
 125 374 l 1,6,-1
 125 0 l 1,7,-1
 43 0 l 1,8,-1
 43 742 l 1,9,-1
 503 742 l 25,0,-1
EndSplineSet
Validated: 3073
EndChar

StartChar: G
Encoding: 71 71 38
Width: 588
VWidth: 0
Flags: W
HStem: 0 74<234.084 465> 371 75<305 432> 670 72<227.652 499>
VStem: 43 82<224.305 532.103>
LayerCount: 2
Fore
SplineSet
499 742 m 29,0,-1
 543 670 l 5,1,-1
 301 670 l 5,2,3
 252 667 252 667 216 639.5 c 132,-1,4
 180 612 180 612 161 568 c 132,-1,5
 142 524 142 524 133.5 477.5 c 132,-1,6
 125 431 125 431 125 379 c 4,7,8
 125 324 125 324 135 273 c 132,-1,9
 145 222 145 222 165.5 176 c 132,-1,10
 186 130 186 130 224 102 c 132,-1,11
 262 74 262 74 312 74 c 6,12,-1
 465 74 l 5,13,-1
 432 371 l 5,14,-1
 305 371 l 5,15,-1
 274 446 l 5,16,-1
 501 446 l 5,17,-1
 547 74 l 5,18,-1
 547 0 l 5,19,-1
 312 0 l 6,20,21
 226 0 226 0 163 58 c 132,-1,22
 100 116 100 116 71.5 200 c 132,-1,23
 43 284 43 284 43 379 c 4,24,25
 43 470 43 470 69 550 c 132,-1,26
 95 630 95 630 154 686 c 132,-1,27
 213 742 213 742 295 742 c 6,28,-1
 499 742 l 29,0,-1
EndSplineSet
Validated: 3073
EndChar

StartChar: H
Encoding: 72 72 39
Width: 588
VWidth: 0
Flags: W
HStem: 0 21G<43 125 465 547> 364 73<125 465> 722 20G<43 125 465 547>
VStem: 43 82<0 364 437 742> 465 82<0 364 437 742>
LayerCount: 2
Fore
SplineSet
465 437 m 1,0,-1
 465 742 l 1,1,-1
 547 742 l 1,2,-1
 547 0 l 1,3,-1
 465 0 l 1,4,-1
 465 364 l 1,5,-1
 125 364 l 1,6,-1
 125 0 l 1,7,-1
 43 0 l 1,8,-1
 43 742 l 1,9,-1
 125 742 l 1,10,-1
 125 437 l 1,11,-1
 465 437 l 1,0,-1
EndSplineSet
Validated: 3073
EndChar

StartChar: I
Encoding: 73 73 40
Width: 588
VWidth: 0
Flags: W
HStem: 0 74<87 252 334 503> 670 72<87 252 334 503>
VStem: 252 82<74 670>
LayerCount: 2
Fore
SplineSet
503 742 m 25,0,-1
 547 670 l 1,1,-1
 334 670 l 1,2,-1
 334 74 l 1,3,-1
 503 74 l 1,4,-1
 547 0 l 1,5,-1
 87 0 l 1,6,-1
 43 74 l 1,7,-1
 252 74 l 1,8,-1
 252 670 l 1,9,-1
 87 670 l 1,10,-1
 43 742 l 1,11,-1
 503 742 l 25,0,-1
EndSplineSet
Validated: 3073
EndChar

StartChar: J
Encoding: 74 74 41
Width: 588
VWidth: 0
Flags: W
HStem: -4 73<218.514 369.779> 669 72<129 418 500 545>
VStem: 85 82<127.007 247> 418 82<125.667 669>
LayerCount: 2
Fore
SplineSet
545 741 m 25,0,-1
 589 669 l 1,1,-1
 500 669 l 1,2,-1
 500 247 l 2,3,4
 500 -4 500 -4 295 -4 c 0,5,6
 186 -4 186 -4 135.5 64 c 128,-1,7
 85 132 85 132 85 247 c 1,8,-1
 167 247 l 1,9,10
 167 151 167 151 199 110 c 128,-1,11
 231 69 231 69 295 69 c 0,12,13
 358 69 358 69 388 109.5 c 128,-1,14
 418 150 418 150 418 247 c 2,15,-1
 418 669 l 1,16,-1
 129 669 l 1,17,-1
 85 741 l 1,18,-1
 545 741 l 25,0,-1
EndSplineSet
Validated: 3073
EndChar

StartChar: K
Encoding: 75 75 42
Width: 588
VWidth: 0
Flags: W
HStem: 0 21G<43 125 451.308 547> 364 73<125 233> 722 20G<43 125 438.574 536>
VStem: 43 82<0 364 437 742>
LayerCount: 2
Fore
SplineSet
536 742 m 1,0,-1
 297 401 l 1,1,-1
 547 0 l 1,2,-1
 464 0 l 1,3,-1
 233 364 l 1,4,-1
 125 364 l 1,5,-1
 125 0 l 1,6,-1
 43 0 l 1,7,-1
 43 742 l 1,8,-1
 125 742 l 1,9,-1
 125 437 l 1,10,-1
 233 437 l 1,11,-1
 453 742 l 1,12,-1
 536 742 l 1,0,-1
EndSplineSet
Validated: 3073
EndChar

StartChar: L
Encoding: 76 76 43
Width: 588
VWidth: 0
Flags: W
HStem: 0 74<125 503> 722 20G<43 125>
VStem: 43 82<74 742>
LayerCount: 2
Fore
SplineSet
125 742 m 25,0,-1
 125 74 l 1,1,-1
 503 74 l 1,2,-1
 547 0 l 1,3,-1
 43 0 l 1,4,-1
 43 742 l 1,5,-1
 125 742 l 25,0,-1
EndSplineSet
Validated: 3073
EndChar

StartChar: M
Encoding: 77 77 44
Width: 588
VWidth: 0
Flags: W
HStem: 0 21G<43 125 465 547> 721 20G<43 137.143 452.857 547>
VStem: 43 82<0 615> 465 82<0 615>
LayerCount: 2
Fore
SplineSet
547 741 m 25,0,-1
 547 0 l 1,1,-1
 465 0 l 1,2,-1
 465 615 l 1,3,-1
 295 339 l 1,4,-1
 125 615 l 1,5,-1
 125 0 l 1,6,-1
 43 0 l 1,7,-1
 43 741 l 1,8,-1
 125 741 l 1,9,-1
 295 461 l 1,10,-1
 465 741 l 1,11,-1
 547 741 l 25,0,-1
EndSplineSet
Validated: 3073
EndChar

StartChar: N
Encoding: 78 78 45
Width: 588
VWidth: 0
Flags: W
HStem: 0 21G<43 125 453.667 547> 722 20G<43 136.352 465 547>
VStem: 43 82<0 600> 465 82<143 742>
LayerCount: 2
Fore
SplineSet
547 742 m 25,0,-1
 547 0 l 1,1,-1
 465 0 l 1,2,-1
 125 600 l 1,3,-1
 125 0 l 1,4,-1
 43 0 l 1,5,-1
 43 742 l 1,6,-1
 125 742 l 1,7,-1
 465 143 l 1,8,-1
 465 742 l 1,9,-1
 547 742 l 25,0,-1
EndSplineSet
Validated: 3073
EndChar

StartChar: O
Encoding: 79 79 46
Width: 588
VWidth: 0
Flags: W
HStem: -6 72<218.231 371.334> 677 72<224.543 372.593>
VStem: 33 87<208.392 514.786> 469 87<208.806 529.602>
LayerCount: 2
Fore
SplineSet
295 677 m 3,0,1
 246 677 246 677 209.5 642.5 c 128,-1,2
 173 608 173 608 155 555.5 c 128,-1,3
 137 503 137 503 128.5 456 c 128,-1,4
 120 409 120 409 120 370 c 0,5,6
 120 326 120 326 125 285 c 128,-1,7
 130 244 130 244 142.5 203 c 128,-1,8
 155 162 155 162 174 132.5 c 128,-1,9
 193 103 193 103 224 84.5 c 128,-1,10
 255 66 255 66 295 66 c 0,11,12
 344 66 344 66 379.5 93.5 c 128,-1,13
 415 121 415 121 433.5 167.5 c 128,-1,14
 452 214 452 214 460.5 264.5 c 128,-1,15
 469 315 469 315 469 370 c 0,16,17
 469 426 469 426 461 476.5 c 128,-1,18
 453 527 453 527 434.5 574 c 128,-1,19
 416 621 416 621 380.5 649 c 128,-1,20
 345 677 345 677 295 677 c 3,0,1
295 749 m 7,21,22
 378 749 378 749 439.5 690 c 128,-1,23
 501 631 501 631 528.5 547 c 128,-1,24
 556 463 556 463 556 370 c 0,25,26
 556 276 556 276 529 193 c 128,-1,27
 502 110 502 110 440.5 52 c 128,-1,28
 379 -6 379 -6 295 -6 c 0,29,30
 210 -6 210 -6 148.5 52 c 128,-1,31
 87 110 87 110 60 193 c 128,-1,32
 33 276 33 276 33 370 c 0,33,34
 33 438 33 438 49.5 504 c 128,-1,35
 66 570 66 570 97.5 625.5 c 128,-1,36
 129 681 129 681 180.5 715 c 128,-1,37
 232 749 232 749 295 749 c 7,21,22
EndSplineSet
Validated: 3073
EndChar

StartChar: P
Encoding: 80 80 47
Width: 588
VWidth: 0
Flags: W
HStem: 0 21G<53 135> 344 74<135 411.594> 670 72<135 411.289>
VStem: 53 82<0 344 418 670> 454 82<465.462 623.349>
LayerCount: 2
Fore
SplineSet
454 548 m 24,0,1
 454 596 454 596 425.5 633 c 128,-1,2
 397 670 397 670 353 670 c 2,3,-1
 135 670 l 1,4,-1
 135 418 l 1,5,-1
 353 418 l 2,6,7
 399 418 399 418 426.5 457 c 128,-1,8
 454 496 454 496 454 548 c 24,0,1
369 742 m 26,9,10
 442 742 442 742 489 684 c 128,-1,11
 536 626 536 626 536 548 c 0,12,13
 536 467 536 467 489 405.5 c 128,-1,14
 442 344 442 344 369 344 c 2,15,-1
 135 344 l 1,16,-1
 135 0 l 1,17,-1
 53 0 l 1,18,-1
 53 742 l 1,19,-1
 369 742 l 26,9,10
EndSplineSet
Validated: 3073
EndChar

StartChar: Q
Encoding: 81 81 48
Width: 588
VWidth: 0
Flags: W
HStem: -13 86<461 530> -13 73<216.447 368.68> 156 69<267 330> 678 74<224.529 371.821>
VStem: 43 82<206.887 526.442> 462 82<193.434 535.231>
LayerCount: 2
Fore
SplineSet
295 678 m 0,0,1
 246 678 246 678 210.5 644.5 c 128,-1,2
 175 611 175 611 157.5 559.5 c 128,-1,3
 140 508 140 508 132.5 460.5 c 128,-1,4
 125 413 125 413 125 370 c 0,5,6
 125 60 125 60 295 60 c 0,7,8
 348 60 348 60 376 89 c 1,9,-1
 330 156 l 1,10,-1
 267 156 l 1,11,-1
 214 225 l 1,12,-1
 336 225 l 1,13,-1
 412 126 l 1,14,15
 439 176 439 176 450.5 225 c 128,-1,16
 462 274 462 274 462 370 c 0,17,18
 462 428 462 428 455 477.5 c 128,-1,19
 448 527 448 527 431 575 c 128,-1,20
 414 623 414 623 379.5 650.5 c 128,-1,21
 345 678 345 678 295 678 c 0,0,1
295 752 m 128,-1,23
 358 752 358 752 407.5 717.5 c 128,-1,24
 457 683 457 683 486 626.5 c 128,-1,25
 515 570 515 570 529.5 504.5 c 128,-1,26
 544 439 544 439 544 370 c 0,27,28
 544 176 544 176 461 73 c 1,29,-1
 530 73 l 1,30,-1
 592 -13 l 1,31,-1
 455 -13 l 1,32,-1
 424 35 l 1,33,34
 378 -13 378 -13 295 -13 c 0,35,36
 232 -13 232 -13 182 21.5 c 128,-1,37
 132 56 132 56 102.5 113 c 128,-1,38
 73 170 73 170 58 235.5 c 128,-1,39
 43 301 43 301 43 370 c 128,-1,40
 43 439 43 439 58 504.5 c 128,-1,41
 73 570 73 570 102.5 626.5 c 128,-1,42
 132 683 132 683 182 717.5 c 128,-1,22
 232 752 232 752 295 752 c 128,-1,23
EndSplineSet
Validated: 3073
EndChar

StartChar: R
Encoding: 82 82 49
Width: 588
VWidth: 0
Flags: W
HStem: 0 21G<43 125 464 546> 374 72<125 378.906> 670 72<125 393.056>
VStem: 43 82<0 374 446 670> 435 82<495.416 629.428> 464 82<0 285.331>
LayerCount: 2
Fore
SplineSet
329 742 m 2,0,1
 419 742 419 742 468 689.5 c 128,-1,2
 517 637 517 637 517 569 c 0,3,4
 517 468 517 468 423 422 c 1,5,-1
 423 409 l 1,6,7
 483 387 483 387 514.5 332.5 c 128,-1,8
 546 278 546 278 546 206 c 2,9,-1
 546 0 l 1,10,-1
 464 0 l 1,11,-1
 464 206 l 2,12,13
 464 271 464 271 414 322.5 c 128,-1,14
 364 374 364 374 310 374 c 2,15,-1
 125 374 l 1,16,-1
 125 0 l 1,17,-1
 43 0 l 1,18,-1
 43 742 l 1,19,-1
 329 742 l 2,0,1
435 569 m 0,20,21
 435 607 435 607 404.5 638.5 c 128,-1,22
 374 670 374 670 333 670 c 2,23,-1
 125 670 l 1,24,-1
 125 446 l 5,25,-1
 335 446 l 2,26,27
 372 446 372 446 403 482 c 128,-1,28
 434 518 434 518 435 569 c 0,20,21
EndSplineSet
Validated: 3073
EndChar

StartChar: S
Encoding: 83 83 50
Width: 588
VWidth: 0
Flags: W
HStem: 0 74<86 386.137> 377 74<158.529 425.615> 668 74<168.861 503>
VStem: 42 82<484.523 627.854> 465 82<154.285 337.14>
LayerCount: 2
Fore
SplineSet
503 742 m 29,0,-1
 547 668 l 5,1,2
 274 668 l 6,3,4
 124 668 124 668 124 564 c 4,5,6
 124 451 124 451 231 451 c 6,7,-1
 370 451 l 6,8,9
 547 451 547 451 547 230 c 4,10,11
 547 121 547 121 478 60.5 c 132,-1,12
 409 0 409 0 295 0 c 6,13,-1
 42 0 l 5,14,-1
 86 74 l 5,15,-1
 290 74 l 6,16,17
 367 74 367 74 409 112 c 4,18,19
 451 151 451 151 460 200 c 4,20,21
 465 229 465 229 465 252 c 4,22,23
 465 377 465 377 351 377 c 6,24,-1
 238 377 l 6,25,26
 132 377 132 377 82 443 c 4,27,28
 42 495 42 495 42 563 c 4,29,30
 42 742 42 742 274 742 c 6,31,-1
 503 742 l 29,0,-1
EndSplineSet
EndChar

StartChar: T
Encoding: 84 84 51
Width: 588
VWidth: 0
Flags: W
HStem: 0 21G<252 335> 669 73<87 252 335 503>
VStem: 252 83<0 669>
LayerCount: 2
Fore
SplineSet
252 669 m 25,0,-1
 87 669 l 1,1,-1
 43 742 l 1,2,-1
 503 742 l 1,3,-1
 547 669 l 1,4,-1
 335 669 l 1,5,6
 335 0 l 1,7,-1
 252 0 l 1,8,-1
 252 669 l 25,0,-1
EndSplineSet
Validated: 3073
EndChar

StartChar: U
Encoding: 85 85 52
Width: 588
VWidth: 0
Flags: W
HStem: -6 73<209.797 381.271> 720 20G<43 125 464 546>
VStem: 43 82<165.938 740> 464 82<167.214 740>
LayerCount: 2
Fore
SplineSet
546 740 m 25,0,-1
 546 289 l 1,1,2
 543 148 543 148 477 71 c 128,-1,3
 411 -6 411 -6 295 -6 c 0,4,5
 181 -6 181 -6 113.5 72 c 128,-1,6
 46 150 46 150 43 289 c 1,7,-1
 43 740 l 1,8,-1
 125 740 l 1,9,-1
 125 289 l 1,10,11
 127 183 127 183 170 125 c 128,-1,12
 213 67 213 67 295 67 c 0,13,14
 458 67 458 67 464 289 c 1,15,-1
 464 740 l 1,16,-1
 546 740 l 25,0,-1
EndSplineSet
Validated: 3073
EndChar

StartChar: V
Encoding: 86 86 53
Width: 588
VWidth: 0
Flags: W
HStem: 722 20G<42 136.471 455.451 547>
LayerCount: 2
Fore
SplineSet
547 742 m 25,0,-1
 295 -15 l 1,1,-1
 42 742 l 1,2,-1
 130 742 l 1,3,-1
 295 232 l 1,4,-1
 462 742 l 1,5,-1
 547 742 l 25,0,-1
EndSplineSet
Validated: 3073
EndChar

StartChar: W
Encoding: 87 87 54
Width: 588
VWidth: 0
Flags: W
HStem: 0 21G<76.0553 213.308 375.763 512.945> 721 20G<42 125.049 463.951 547>
VStem: 42 82<604.398 741> 465 82<604.398 741>
LayerCount: 2
Fore
SplineSet
547 741 m 25,0,-1
 512 0 l 1,1,-1
 382 0 l 1,2,-1
 295 279 l 1,3,-1
 207 0 l 1,4,-1
 77 0 l 1,5,-1
 42 741 l 1,6,-1
 124 741 l 1,7,-1
 159 74 l 1,8,-1
 295 469 l 1,9,-1
 430 74 l 1,10,-1
 465 741 l 1,11,-1
 547 741 l 25,0,-1
EndSplineSet
Validated: 3073
EndChar

StartChar: X
Encoding: 88 88 55
Width: 588
VWidth: 0
Flags: W
HStem: 0 21G<43 135.241 452.88 546> 722 20G<43 137.186 450.957 546>
LayerCount: 2
Fore
SplineSet
295 463 m 1,0,-1
 463 742 l 1,1,-1
 546 742 l 1,2,-1
 343 396 l 1,3,-1
 546 0 l 1,4,-1
 463 0 l 1,5,-1
 295 332 l 1,6,-1
 125 0 l 1,7,-1
 43 0 l 1,8,-1
 245 396 l 1,9,-1
 43 742 l 1,10,-1
 125 742 l 1,11,-1
 295 463 l 1,0,-1
EndSplineSet
Validated: 3073
EndChar

StartChar: Y
Encoding: 89 89 56
Width: 588
VWidth: 0
Flags: W
HStem: 0 21G<254 336> 722 20G<42 135.104 453.961 547>
VStem: 254 82<0 353>
LayerCount: 2
Fore
SplineSet
547 742 m 25,0,-1
 336 353 l 1,1,-1
 336 0 l 1,2,-1
 254 0 l 1,3,-1
 254 353 l 1,4,-1
 42 742 l 1,5,-1
 124 742 l 1,6,-1
 295 434 l 1,7,-1
 465 742 l 1,8,-1
 547 742 l 25,0,-1
EndSplineSet
Validated: 3073
EndChar

StartChar: Z
Encoding: 90 90 57
Width: 588
VWidth: 0
Flags: W
HStem: 0 74<136 503> 669 73<87 452>
LayerCount: 2
Fore
SplineSet
503 742 m 25,0,-1
 547 669 l 1,1,-1
 136 74 l 1,2,-1
 503 74 l 1,3,-1
 547 0 l 1,4,-1
 87 0 l 1,5,-1
 43 74 l 1,6,-1
 452 669 l 1,7,-1
 87 669 l 1,8,-1
 43 742 l 1,9,-1
 503 742 l 25,0,-1
EndSplineSet
Validated: 3073
EndChar

StartChar: bracketleft
Encoding: 91 91 58
Width: 588
VWidth: 0
Flags: W
HStem: -88 82<276 395> 737 82<276 395>
VStem: 195 200<-88 -6 737 819> 195 81<-6 737>
LayerCount: 2
Fore
SplineSet
395 819 m 25,0,-1
 395 737 l 1,1,-1
 276 737 l 1,2,-1
 276 -6 l 1,3,-1
 395 -6 l 1,4,-1
 395 -88 l 1,5,-1
 195 -88 l 1,6,-1
 195 819 l 1,7,-1
 395 819 l 25,0,-1
EndSplineSet
Validated: 3073
EndChar

StartChar: backslash
Encoding: 92 92 59
Width: 588
VWidth: 0
Flags: W
LayerCount: 2
Fore
SplineSet
135 819 m 25,0,-1
 536 -77 l 1,1,-1
 454 -77 l 1,2,-1
 53 819 l 1,3,-1
 135 819 l 25,0,-1
EndSplineSet
Validated: 3073
EndChar

StartChar: bracketright
Encoding: 93 93 60
Width: 588
VWidth: 0
Flags: W
HStem: -88 82<195 313> 737 82<195 313>
VStem: 195 200<-88 -6 737 819> 313 82<-6 737>
LayerCount: 2
Fore
SplineSet
395 819 m 25,0,-1
 395 -88 l 1,1,-1
 195 -88 l 1,2,-1
 195 -6 l 1,3,-1
 313 -6 l 1,4,-1
 313 737 l 1,5,-1
 195 737 l 1,6,-1
 195 819 l 1,7,-1
 395 819 l 25,0,-1
EndSplineSet
Validated: 3073
EndChar

StartChar: asciicircum
Encoding: 94 94 61
Width: 588
VWidth: 0
Flags: W
HStem: 515 284
LayerCount: 2
Fore
SplineSet
295 799 m 25,0,-1
 538 515 l 1,1,-1
 431 515 l 1,2,-1
 295 682 l 1,3,-1
 158 515 l 1,4,-1
 51 515 l 1,5,-1
 295 799 l 25,0,-1
EndSplineSet
Validated: 3073
EndChar

StartChar: underscore
Encoding: 95 95 62
Width: 588
VWidth: 0
Flags: W
HStem: 0 73<53 536>
LayerCount: 2
Fore
SplineSet
536 0 m 25,0,-1
 53 0 l 1,1,-1
 53 73 l 1,2,-1
 536 73 l 1,3,-1
 536 0 l 25,0,-1
EndSplineSet
Validated: 3073
EndChar

StartChar: grave
Encoding: 96 96 63
Width: 588
VWidth: 0
Flags: W
HStem: 582 217
VStem: 213 162
LayerCount: 2
Fore
SplineSet
274 799 m 1,0,1
 331 780 331 780 375 654 c 1,2,3
 375 582 375 582 358 582 c 0,4,5
 327 582 327 582 270 659.5 c 128,-1,6
 213 737 213 737 213 761 c 0,7,8
 213 770 213 770 233.5 784.5 c 128,-1,9
 254 799 254 799 274 799 c 1,0,1
EndSplineSet
Validated: 3073
EndChar

StartChar: a
Encoding: 97 97 64
Width: 588
VWidth: 0
Flags: W
HStem: -6 73<200.269 331.144 492.86 520.419> 410 69<205.355 341.472>
VStem: 63 82<139.228 342.161> 407 73<176.631 354.169> 427 53<76.6135 129>
LayerCount: 2
Fore
SplineSet
506 473 m 1,0,-1
 480 446 l 1,1,-1
 480 152 l 1,2,3
 480 79 480 79 523 63 c 1,4,-1
 575 63 l 1,5,-1
 516 -8 l 1,6,7
 427 4 427 4 427 129 c 1,8,9
 388 -6 388 -6 295 -6 c 0,10,11
 197 -6 197 -6 133 67 c 0,12,13
 63 146 63 146 63 241 c 0,14,15
 63 327 63 327 121.5 403 c 128,-1,16
 180 479 180 479 266 479 c 4,17,18
 298 479 298 479 341.5 456.5 c 128,-1,19
 385 434 385 434 398 421 c 1,20,-1
 398 473 l 1,21,-1
 506 473 l 1,0,-1
263 410 m 0,22,23
 236 410 236 410 201 385 c 0,24,25
 178 369 178 369 164 335 c 0,26,27
 145 288 145 288 145 227 c 0,28,29
 145 156 145 156 187 102 c 0,30,31
 215 67 215 67 284 67 c 0,32,33
 346 67 346 67 392 196 c 0,34,35
 407 239 407 239 407 296 c 0,36,37
 407 335 407 335 377 362 c 128,-1,38
 347 389 347 389 322 399.5 c 128,-1,39
 297 410 297 410 263 410 c 0,22,23
EndSplineSet
Validated: 3073
EndChar

StartChar: b
Encoding: 98 98 65
Width: 588
VWidth: 0
Flags: W
HStem: -6 73<217.619 350.745> 407 72<262.481 412.901> 722 20G<80 187>
VStem: 105 78<111.994 346.452 421 717> 452 81<161.899 361.1>
LayerCount: 2
Fore
SplineSet
80 742 m 1,0,-1
 187 742 l 1,1,-1
 187 421 l 1,2,3
 197 431 197 431 257 455 c 128,-1,4
 317 479 317 479 340 479 c 0,5,6
 431 479 431 479 482 415.5 c 128,-1,7
 533 352 533 352 533 241 c 0,8,9
 533 143 533 143 450 68.5 c 128,-1,10
 367 -6 367 -6 271 -6 c 0,11,12
 199 -6 199 -6 145 78 c 1,13,14
 144 4 144 4 90 -8 c 1,15,-1
 26 54 l 1,16,-1
 72 54 l 1,17,18
 102 85 102 85 105 142 c 1,19,-1
 105 717 l 1,20,-1
 80 742 l 1,0,-1
359 407 m 0,21,22
 335 407 335 407 294.5 396 c 128,-1,23
 254 385 254 385 218.5 358.5 c 128,-1,24
 183 332 183 332 183 296 c 0,25,26
 183 266 183 266 183.5 249 c 128,-1,27
 184 232 184 232 186 200.5 c 128,-1,28
 188 169 188 169 193 149.5 c 128,-1,29
 198 130 198 130 206.5 109 c 128,-1,30
 215 88 215 88 230 77.5 c 128,-1,31
 245 67 245 67 264 67 c 0,32,33
 335 67 335 67 393.5 119 c 128,-1,34
 452 171 452 171 452 234 c 0,35,36
 452 407 452 407 359 407 c 0,21,22
EndSplineSet
Validated: 3073
EndChar

StartChar: c
Encoding: 99 99 66
Width: 588
VWidth: 0
Flags: W
HStem: -6 73<216.76 372.576> 407 72<217.846 364.266>
VStem: 72 82<139.89 336.061>
LayerCount: 2
Fore
SplineSet
297 479 m 31,0,1
 364 479 364 479 432 430.5 c 128,-1,2
 500 382 500 382 500 345 c 1,3,-1
 413 263 l 1,4,-1
 413 331 l 1,5,6
 402 360 402 360 366.5 383.5 c 128,-1,7
 331 407 331 407 297 407 c 0,8,9
 228 407 228 407 191 359.5 c 128,-1,10
 154 312 154 312 154 243 c 0,11,12
 154 169 154 169 188.5 118 c 128,-1,13
 223 67 223 67 297 67 c 0,14,15
 342 67 342 67 379 93.5 c 128,-1,16
 416 120 416 120 433 159 c 1,17,-1
 526 159 l 1,18,19
 503 97 503 97 438 45.5 c 128,-1,20
 373 -6 373 -6 295 -6 c 0,21,22
 198 -6 198 -6 135 65.5 c 128,-1,23
 72 137 72 137 72 243 c 128,-1,24
 72 349 72 349 136 414 c 128,-1,25
 200 479 200 479 297 479 c 31,0,1
EndSplineSet
Validated: 3073
EndChar

StartChar: d
Encoding: 100 100 67
Width: 588
VWidth: 0
Flags: W
HStem: -6 73<237.255 370.381> 407 72<175.099 325.519> 722 20G<401 508>
VStem: 55 81<161.899 361.1> 401 82<102.906 350.859 421 717>
LayerCount: 2
Fore
SplineSet
508 742 m 5,0,-1
 483 717 l 5,1,-1
 483 142 l 5,2,3
 486 85 486 85 516 54 c 5,4,-1
 562 54 l 5,5,-1
 498 -8 l 5,6,7
 444 4 444 4 443 78 c 5,8,9
 389 -6 389 -6 317 -6 c 4,10,11
 221 -6 221 -6 138 68.5 c 132,-1,12
 55 143 55 143 55 241 c 4,13,14
 55 352 55 352 106 415.5 c 132,-1,15
 157 479 157 479 248 479 c 4,16,17
 271 479 271 479 331 455 c 132,-1,18
 391 431 391 431 401 421 c 5,19,-1
 401 742 l 5,20,-1
 508 742 l 5,0,-1
229 407 m 4,21,22
 136 407 136 407 136 234 c 4,23,24
 136 171 136 171 194.5 119 c 132,-1,25
 253 67 253 67 324 67 c 4,26,27
 343 67 343 67 358 77.5 c 132,-1,28
 373 88 373 88 381.5 109 c 132,-1,29
 390 130 390 130 395 149.5 c 132,-1,30
 400 169 400 169 402 200.5 c 132,-1,31
 404 232 404 232 404.5 249 c 132,-1,32
 405 266 405 266 405 296 c 4,33,34
 405 332 405 332 369.5 358.5 c 132,-1,35
 334 385 334 385 293.5 396 c 132,-1,36
 253 407 253 407 229 407 c 4,21,22
EndSplineSet
Validated: 3073
EndChar

StartChar: e
Encoding: 101 101 68
Width: 588
VWidth: 0
Flags: W
HStem: -6 62<216.137 383.615> 417 62<220.339 378.333>
VStem: 72 82<185.704 344.827>
LayerCount: 2
Fore
SplineSet
295 479 m 4,0,1
 332 479 332 479 366 467 c 132,-1,2
 400 455 400 455 423 437 c 132,-1,3
 446 419 446 419 463.5 397.5 c 132,-1,4
 481 376 481 376 491.5 350 c 132,-1,5
 502 324 502 324 502 310 c 5,6,-1
 176 126 l 5,7,8
 181 107 181 107 210 83 c 4,9,10
 222 73 222 73 245 64.5 c 132,-1,11
 268 56 268 56 295 56 c 4,12,13
 350 56 350 56 390.5 82 c 132,-1,14
 431 108 431 108 431 134 c 5,15,-1
 537 165 l 5,16,17
 512 99 512 99 448.5 46.5 c 132,-1,18
 385 -6 385 -6 295 -6 c 4,19,20
 197 -6 197 -6 134.5 62.5 c 132,-1,21
 72 131 72 131 72 236 c 4,22,23
 72 343 72 343 134.5 411 c 132,-1,24
 197 479 197 479 295 479 c 4,0,1
408 350 m 5,25,26
 408 353 408 353 406.5 357.5 c 132,-1,27
 405 362 405 362 397.5 373.5 c 132,-1,28
 390 385 390 385 379 394 c 132,-1,29
 368 403 368 403 346 410 c 132,-1,30
 324 417 324 417 295 417 c 4,31,32
 242 417 242 417 208.5 386 c 132,-1,33
 175 355 175 355 164.5 317 c 132,-1,34
 154 279 154 279 154 236 c 4,35,36
 154 205 154 205 156 185 c 5,37,-1
 408 350 l 5,25,26
EndSplineSet
Validated: 3073
EndChar

StartChar: f
Encoding: 102 102 69
Width: 588
VWidth: 0
Flags: W
HStem: 0 21G<194 334> 390 73<83 223 305 461> 673 72<320.152 431.207>
VStem: 223 82<34 390 463 658.079> 445 82<614.056 659.219>
LayerCount: 2
Fore
SplineSet
377 745 m 0,0,1
 411 745 411 745 439.5 730.5 c 128,-1,2
 468 716 468 716 485.5 694.5 c 128,-1,3
 503 673 503 673 513 654.5 c 128,-1,4
 523 636 523 636 527 620 c 1,5,-1
 445 552 l 1,6,-1
 445 601 l 2,7,8
 445 673 445 673 377 673 c 0,9,10
 305 673 305 673 305 601 c 2,11,-1
 305 463 l 1,12,-1
 499 463 l 1,13,-1
 461 390 l 1,14,-1
 305 390 l 1,15,-1
 305 34 l 1,16,-1
 334 0 l 1,17,-1
 194 0 l 1,18,-1
 223 34 l 1,19,-1
 223 390 l 1,20,-1
 83 390 l 1,21,-1
 83 463 l 1,22,-1
 223 463 l 1,23,-1
 223 621 l 2,24,25
 223 671 223 671 264.5 708 c 128,-1,26
 306 745 306 745 377 745 c 0,0,1
EndSplineSet
Validated: 3073
EndChar

StartChar: g
Encoding: 103 103 70
Width: 588
VWidth: 0
Flags: W
HStem: -195 73<202.513 387.144> -28 20G<141.882 166> 43 73<217.334 359.513> 407 72<213.999 361.138>
VStem: 84 82<171.859 355.751> 402 88<162.828 361.754> 418 72<-93.1836 128 397 446>
LayerCount: 2
Fore
SplineSet
418 128 m 1,0,1
 402 86 402 86 367 64.5 c 128,-1,2
 332 43 332 43 291 43 c 0,3,4
 204 43 204 43 144 111.5 c 128,-1,5
 84 180 84 180 84 264 c 0,6,7
 84 349 84 349 143 414 c 128,-1,8
 202 479 202 479 291 479 c 0,9,10
 332 479 332 479 367 459 c 128,-1,11
 402 439 402 439 418 397 c 1,12,-1
 418 473 l 5,13,-1
 514 473 l 1,14,-1
 490 446 l 1,15,-1
 490 -87 l 2,16,17
 490 -123 490 -123 433.5 -158.5 c 128,-1,18
 377 -194 377 -194 293 -195 c 0,19,20
 209 -195 209 -195 153.5 -154.5 c 128,-1,21
 98 -114 98 -114 84 -76 c 1,22,-1
 166 -8 l 1,23,-1
 166 -76 l 1,24,25
 171 -81 171 -81 181 -88.5 c 128,-1,26
 191 -96 191 -96 224 -109 c 128,-1,27
 257 -122 257 -122 293 -122 c 0,28,29
 352 -121 352 -121 385 -101 c 128,-1,30
 418 -81 418 -81 418 -52 c 2,31,-1
 418 128 l 1,0,1
291 407 m 0,32,33
 227 407 227 407 196.5 367.5 c 128,-1,34
 166 328 166 328 166 264 c 128,-1,35
 166 200 166 200 197 158 c 128,-1,36
 228 116 228 116 291 116 c 0,37,38
 402 116 402 116 402 264 c 0,39,40
 402 407 402 407 291 407 c 0,32,33
EndSplineSet
Validated: 3073
EndChar

StartChar: h
Encoding: 104 104 71
Width: 588
VWidth: 0
Flags: W
HStem: 0 21G<70 199 396 527> 407 72<238.173 378.725> 722 20G<68 175>
VStem: 93 82<30 341.759 413 720> 423 82<30 357.957>
LayerCount: 2
Fore
SplineSet
175 742 m 1,0,-1
 175 413 l 1,1,2
 201 442 201 442 239 460.5 c 128,-1,3
 277 479 277 479 311 479 c 0,4,5
 406 479 406 479 455 411.5 c 128,-1,6
 504 344 504 344 505 252 c 1,7,-1
 505 30 l 1,8,-1
 527 0 l 1,9,-1
 396 0 l 1,10,-1
 423 30 l 1,11,-1
 423 252 l 2,12,13
 423 407 423 407 311 407 c 0,14,15
 258 407 258 407 217.5 368 c 128,-1,16
 177 329 177 329 177 255 c 2,17,-1
 177 30 l 1,18,-1
 199 0 l 1,19,-1
 70 0 l 1,20,-1
 93 30 l 1,21,-1
 93 720 l 1,22,-1
 68 742 l 1,23,-1
 175 742 l 1,0,-1
EndSplineSet
Validated: 3073
EndChar

StartChar: i
Encoding: 105 105 72
Width: 588
VWidth: 0
Flags: W
HStem: 0 83<327 375> 390 83<182 247> 567 126<223.068 315.728>
VStem: 182 145<390 473> 205 129<585.504 674.496> 247 80<83 390>
LayerCount: 2
Fore
SplineSet
270 693 m 152,-1,1
 291 693 291 693 312.5 674 c 128,-1,2
 334 655 334 655 334 630 c 128,-1,3
 334 605 334 605 312.5 586 c 128,-1,4
 291 567 291 567 270 567 c 128,-1,5
 249 567 249 567 227 585.5 c 128,-1,6
 205 604 205 604 205 630 c 128,-1,7
 205 656 205 656 227 674.5 c 128,-1,0
 249 693 249 693 270 693 c 152,-1,1
327 473 m 25,8,-1
 327 83 l 25,9,-1
 413 83 l 25,10,-1
 375 0 l 1,11,-1
 247 0 l 1,12,-1
 247 390 l 1,13,-1
 182 390 l 1,14,-1
 182 473 l 5,15,-1
 327 473 l 25,8,-1
EndSplineSet
Validated: 3073
EndChar

StartChar: j
Encoding: 106 106 73
Width: 588
VWidth: 0
Flags: W
HStem: -198 73<226.744 361.034> 453 20G<380 507> 565 132<393.174 493.826>
VStem: 102 82<-78.0732 55.191> 371 145<584.596 677.404> 403 82<-78.4124 443>
LayerCount: 2
Fore
SplineSet
444 697 m 24,0,1
 473 697 473 697 494.5 678 c 128,-1,2
 516 659 516 659 516 631 c 128,-1,3
 516 603 516 603 494.5 584 c 128,-1,4
 473 565 473 565 444 565 c 0,5,6
 414 565 414 565 392.5 583.5 c 128,-1,7
 371 602 371 602 371 631 c 128,-1,8
 371 660 371 660 392.5 678.5 c 128,-1,9
 414 697 414 697 444 697 c 24,0,1
102 35 m 0,10,11
 102 61 102 61 117 85 c 128,-1,12
 132 109 132 109 162 109 c 0,13,14
 177 109 177 109 202 99 c 128,-1,15
 227 89 227 89 227 78 c 128,-1,16
 227 67 227 67 205.5 55 c 128,-1,17
 184 43 184 43 184 25 c 0,18,19
 184 -125 184 -125 295 -125 c 0,20,21
 348 -125 348 -125 375.5 -87 c 128,-1,22
 403 -49 403 -49 403 12 c 2,23,-1
 403 443 l 5,24,-1
 380 473 l 5,25,-1
 507 473 l 5,26,-1
 485 443 l 5,27,-1
 485 12 l 2,28,29
 485 -76 485 -76 427 -137 c 128,-1,30
 369 -198 369 -198 295 -198 c 0,31,32
 213 -198 213 -198 157.5 -140.5 c 128,-1,33
 102 -83 102 -83 102 35 c 0,10,11
EndSplineSet
Validated: 3073
EndChar

StartChar: k
Encoding: 107 107 74
Width: 588
VWidth: 0
Flags: W
HStem: 0 21G<73 199 388 516> 237 72<177 324.291> 453 20G<364 493> 722 20G<73 199>
VStem: 95 82<30 237 309 714> 388 82<370.641 441>
LayerCount: 2
Fore
SplineSet
388 441 m 5,0,-1
 364 473 l 1,1,-1
 493 473 l 1,2,-1
 470 441 l 5,3,4
 469 341 469 341 353 274 c 1,5,6
 414 232 414 232 451.5 166.5 c 128,-1,7
 489 101 489 101 493 30 c 1,8,-1
 516 0 l 1,9,-1
 388 0 l 1,10,-1
 414 30 l 1,11,12
 411 154 411 154 302 237 c 1,13,-1
 177 237 l 1,14,-1
 177 30 l 1,15,-1
 199 0 l 1,16,-1
 73 0 l 1,17,-1
 95 30 l 1,18,-1
 95 714 l 1,19,-1
 73 742 l 1,20,-1
 199 742 l 1,21,-1
 177 714 l 1,22,-1
 177 309 l 1,23,-1
 281 309 l 1,24,25
 342 335 342 335 365 367.5 c 128,-1,26
 388 400 388 400 388 441 c 5,0,-1
EndSplineSet
Validated: 3073
EndChar

StartChar: l
Encoding: 108 108 75
Width: 588
VWidth: 0
Flags: W
HStem: -6 73<270.391 385.942> 722 20G<153 285>
VStem: 178 82<76.2383 714>
LayerCount: 2
Fore
SplineSet
285 742 m 29,0,-1
 260 714 l 1,1,2
 260 158 l 2,3,4
 260 132 260 132 261.5 119.5 c 128,-1,5
 263 107 263 107 269 92.5 c 128,-1,6
 275 78 275 78 289 72.5 c 128,-1,7
 303 67 303 67 327 67 c 0,8,9
 396 67 396 67 396 123 c 2,10,-1
 396 191 l 1,11,-1
 478 108 l 1,12,13
 468 71 468 71 429 32.5 c 128,-1,14
 390 -6 390 -6 327 -6 c 0,15,16
 291 -6 291 -6 265.5 0.5 c 128,-1,17
 240 7 240 7 223.5 23.5 c 128,-1,18
 207 40 207 40 197.5 56.5 c 128,-1,19
 188 73 188 73 184 105.5 c 128,-1,20
 180 138 180 138 179 163 c 128,-1,21
 178 188 178 188 178 234 c 2,22,-1
 178 714 l 1,23,-1
 153 742 l 1,24,-1
 285 742 l 29,0,-1
EndSplineSet
Validated: 3073
EndChar

StartChar: m
Encoding: 109 109 76
Width: 588
VWidth: 0
Flags: W
HStem: 0 21G<15 145 231 360 446 576> 407 72<151.95 231.59 365.209 441.817>
VStem: 40 82<30 372.711 432 448> 257 82<30 379.438> 469 82<30 377.278>
LayerCount: 2
Fore
SplineSet
122 473 m 25,0,-1
 122 432 l 1,1,2
 130 448 130 448 155 463.5 c 128,-1,3
 180 479 180 479 197 479 c 4,4,5
 228 478 228 478 250.5 462.5 c 128,-1,6
 273 447 273 447 297 415 c 1,7,8
 345 478 345 478 402 479 c 0,9,10
 445 479 445 479 481.5 451 c 128,-1,11
 518 423 518 423 529.5 380 c 128,-1,12
 541 337 541 337 546 303 c 128,-1,13
 551 269 551 269 551 240 c 2,14,-1
 551 30 l 1,15,-1
 576 0 l 1,16,-1
 446 0 l 1,17,-1
 469 30 l 1,18,-1
 469 240 l 2,19,20
 469 407 469 407 402 407 c 0,21,22
 339 407 339 407 339 240 c 2,23,-1
 339 30 l 1,24,-1
 360 0 l 1,25,-1
 231 0 l 1,26,-1
 257 30 l 1,27,-1
 257 240 l 2,28,29
 257 407 257 407 195 407 c 0,30,31
 122 407 122 407 122 240 c 2,32,-1
 122 30 l 1,33,-1
 145 0 l 1,34,-1
 15 0 l 1,35,-1
 40 30 l 1,36,-1
 40 448 l 1,37,-1
 14 473 l 1,38,-1
 122 473 l 25,0,-1
EndSplineSet
Validated: 3073
EndChar

StartChar: n
Encoding: 110 110 77
Width: 588
VWidth: 0
Flags: W
HStem: 0 21G<83 210 399 530> 411 68<230.747 371.129>
VStem: 104 82<30 359.646 420 448> 424 82<30 348.144>
LayerCount: 2
Fore
SplineSet
306 479 m 0,0,1
 374 479 374 479 420.5 442 c 128,-1,2
 467 405 467 405 486.5 351.5 c 128,-1,3
 506 298 506 298 506 232 c 2,4,-1
 506 30 l 1,5,-1
 530 0 l 1,6,-1
 399 0 l 1,7,-1
 424 30 l 1,8,-1
 424 232 l 2,9,10
 424 316 424 316 393.5 363.5 c 128,-1,11
 363 411 363 411 306 411 c 0,12,13
 237 411 237 411 211.5 365.5 c 128,-1,14
 186 320 186 320 186 232 c 2,15,-1
 186 30 l 1,16,-1
 210 0 l 1,17,-1
 83 0 l 1,18,-1
 104 30 l 1,19,-1
 104 448 l 1,20,-1
 79 473 l 5,21,-1
 185 473 l 5,22,-1
 185 420 l 1,23,24
 239 479 239 479 306 479 c 0,0,1
EndSplineSet
Validated: 3073
EndChar

StartChar: o
Encoding: 111 111 78
Width: 588
VWidth: 0
Flags: W
HStem: -6 62<212.311 367.51> 417 62<217.911 364.179>
VStem: 72 92<124.183 337.125> 425 92<129.319 333.89>
LayerCount: 2
Fore
SplineSet
289 417 m 4,0,1
 164 417 164 417 164 230 c 4,2,3
 164 147 164 147 192 101.5 c 132,-1,4
 220 56 220 56 289 56 c 4,5,6
 359 56 359 56 392 102.5 c 132,-1,7
 425 149 425 149 425 230 c 4,8,9
 425 313 425 313 391.5 365 c 132,-1,10
 358 417 358 417 289 417 c 4,0,1
289 479 m 4,11,12
 384 479 384 479 450.5 402.5 c 132,-1,13
 517 326 517 326 517 230 c 4,14,15
 517 136 517 136 451 65 c 132,-1,16
 385 -6 385 -6 289 -6 c 4,17,18
 194 -6 194 -6 133 64 c 132,-1,19
 72 134 72 134 72 230 c 4,20,21
 72 327 72 327 133.5 403 c 132,-1,22
 195 479 195 479 289 479 c 4,11,12
EndSplineSet
Validated: 3073
EndChar

StartChar: p
Encoding: 112 112 79
Width: 588
VWidth: 0
Flags: W
HStem: -6 73<272.76 408.153> 407 72<274.187 408.149>
VStem: 127 87<137.617 333.633> 127 77<-174 74 402 448> 461 77<130.07 341.645>
LayerCount: 2
Fore
SplineSet
341 479 m 0,0,1
 427 479 427 479 482.5 401 c 128,-1,2
 538 323 538 323 538 234 c 0,3,4
 538 147 538 147 482 70.5 c 128,-1,5
 426 -6 426 -6 341 -6 c 0,6,7
 298 -6 298 -6 259 13.5 c 128,-1,8
 220 33 220 33 204 74 c 1,9,-1
 204 -174 l 1,10,-1
 228 -205 l 1,11,-1
 101 -205 l 1,12,-1
 127 -174 l 1,13,-1
 127 448 l 5,14,-1
 101 473 l 5,15,-1
 204 473 l 5,16,-1
 204 402 l 1,17,18
 234 479 234 479 341 479 c 0,0,1
341 407 m 0,19,20
 280 407 280 407 247 354 c 128,-1,21
 214 301 214 301 214 234 c 0,22,23
 214 169 214 169 247 118 c 128,-1,24
 280 67 280 67 341 67 c 128,-1,25
 402 67 402 67 431.5 116.5 c 128,-1,26
 461 166 461 166 461 234 c 0,27,28
 461 304 461 304 432 355.5 c 128,-1,29
 403 407 403 407 341 407 c 0,19,20
EndSplineSet
Validated: 3073
EndChar

StartChar: q
Encoding: 113 113 80
Width: 588
VWidth: 0
Flags: W
HStem: -205 58<493.244 564.009> -6 73<193.77 328.284> 407 72<195.271 326.724>
VStem: 66 81<127.401 345.592> 396 77<-126.914 74 152.976 317.711 402 450>
LayerCount: 2
Fore
SplineSet
496 473 m 5,0,-1
 473 450 l 1,1,-1
 473 4 l 2,2,3
 473 -146 473 -146 524 -147 c 1,4,5
 577 -147 577 -147 577 -61 c 1,6,-1
 658 -89 l 1,7,8
 648 -126 648 -126 611.5 -165.5 c 128,-1,9
 575 -205 575 -205 519 -205 c 0,10,11
 396 -204 396 -204 396 4 c 2,12,-1
 396 74 l 1,13,14
 380 33 380 33 341.5 13.5 c 128,-1,15
 303 -6 303 -6 260 -6 c 0,16,17
 175 -6 175 -6 120.5 70.5 c 128,-1,18
 66 147 66 147 66 234 c 0,19,20
 66 291 66 291 88.5 346 c 128,-1,21
 111 401 111 401 156.5 440 c 128,-1,22
 202 479 202 479 260 479 c 0,23,24
 366 479 366 479 396 402 c 1,25,-1
 396 473 l 1,26,-1
 496 473 l 5,0,-1
260 407 m 128,-1,28
 199 407 199 407 173 356.5 c 128,-1,29
 147 306 147 306 147 234 c 0,30,31
 147 164 147 164 173 115.5 c 128,-1,32
 199 67 199 67 260 67 c 128,-1,33
 321 67 321 67 355 118 c 128,-1,34
 389 169 389 169 389 234 c 0,35,36
 389 301 389 301 355 354 c 128,-1,27
 321 407 321 407 260 407 c 128,-1,28
EndSplineSet
Validated: 3073
EndChar

StartChar: r
Encoding: 114 114 81
Width: 588
VWidth: 0
Flags: W
HStem: 0 21G<71 200> 407 72<246.534 401.399>
VStem: 93 82<32 317.774 399 470.062> 429 82<296.855 380.713>
LayerCount: 2
Fore
SplineSet
316 479 m 0,0,1
 406 478 406 478 458 424 c 128,-1,2
 510 370 510 370 511 319 c 0,3,4
 511 299 511 299 487.5 284 c 128,-1,5
 464 269 464 269 430 269 c 0,6,7
 419 269 419 269 412.5 278 c 128,-1,8
 406 287 406 287 406 293 c 0,9,10
 406 302 406 302 417.5 312 c 128,-1,11
 429 322 429 322 429 330 c 0,12,13
 429 370 429 370 396 388.5 c 128,-1,14
 363 407 363 407 316 407 c 0,15,16
 276 407 276 407 246 384.5 c 128,-1,17
 216 362 216 362 202 329 c 128,-1,18
 188 296 188 296 181.5 267 c 128,-1,19
 175 238 175 238 175 215 c 2,20,-1
 175 32 l 1,21,-1
 200 0 l 1,22,-1
 71 0 l 1,23,-1
 93 32 l 1,24,-1
 93 450 l 1,25,26
 69 469 69 469 69 473 c 5,27,-1
 175 473 l 1,28,-1
 175 399 l 1,29,30
 185 426 185 426 232.5 452.5 c 128,-1,31
 280 479 280 479 316 479 c 0,0,1
EndSplineSet
Validated: 3073
EndChar

StartChar: s
Encoding: 115 115 82
Width: 588
VWidth: 0
Flags: W
HStem: -6 73<163.832 407.38> 208 73<186.535 404.043> 407 72<186.535 424.309>
VStem: 87 82<296.9 391.439> 87 68<78.2029 124.393> 419 82<77.8268 191.06> 433 68<344.633 396.959>
LayerCount: 2
Fore
SplineSet
386 479 m 6,0,1
 406 479 406 479 454 454 c 4,2,3
 472 445 472 445 486 418 c 132,-1,4
 500 391 500 391 501 369 c 4,5,6
 501 348 501 348 487.5 338.5 c 132,-1,7
 474 329 474 329 441 329 c 4,8,9
 429 329 429 329 419.5 332.5 c 132,-1,10
 410 336 410 336 410 341 c 4,11,12
 410 350 410 350 421.5 355.5 c 132,-1,13
 433 361 433 361 433 369 c 4,14,15
 433 380 433 380 415.5 393.5 c 132,-1,16
 398 407 398 407 377 407 c 6,17,-1
 236 407 l 6,18,19
 203 407 203 407 186 390 c 132,-1,20
 169 373 169 373 169 345 c 4,21,22
 169 316 169 316 186 298.5 c 132,-1,23
 203 281 203 281 236 281 c 6,24,-1
 358 281 l 6,25,26
 418 281 418 281 459.5 239 c 132,-1,27
 501 197 501 197 501 142 c 132,-1,28
 501 87 501 87 458.5 40.5 c 132,-1,29
 416 -6 416 -6 358 -6 c 6,30,-1
 201 -6 l 6,31,32
 186 -6 186 -6 136 19 c 4,33,34
 118 28 118 28 103 55.5 c 132,-1,35
 88 83 88 83 87 104 c 5,36,37
 87 144 87 144 155 144 c 4,38,39
 180 144 180 144 180 132 c 4,40,41
 180 123 180 123 167.5 117.5 c 132,-1,42
 155 112 155 112 155 104 c 4,43,44
 155 94 155 94 173.5 80.5 c 132,-1,45
 192 67 192 67 213 67 c 6,46,-1
 360 67 l 6,47,48
 419 67 419 67 419 136 c 4,49,50
 419 167 419 167 404.5 187.5 c 132,-1,51
 390 208 390 208 358 208 c 6,52,-1
 245 208 l 6,53,54
 184 208 184 208 135.5 250 c 132,-1,55
 87 292 87 292 87 345 c 132,-1,56
 87 398 87 398 135 438.5 c 132,-1,57
 183 479 183 479 245 479 c 6,58,-1
 386 479 l 6,0,1
EndSplineSet
Validated: 3073
EndChar

StartChar: t
Encoding: 116 116 83
Width: 588
VWidth: 0
Flags: W
HStem: -6 73<299.235 397.938> 390 73<78 206 288 472> 722 20G<178 310>
VStem: 206 82<78.9453 390 463 713>
LayerCount: 2
Fore
SplineSet
310 742 m 1,0,-1
 288 713 l 1,1,-1
 288 463 l 1,2,-1
 510 463 l 1,3,-1
 472 390 l 1,4,-1
 288 390 l 1,5,-1
 288 164 l 2,6,7
 288 143 288 143 288 132 c 128,-1,8
 288 121 288 121 292 106.5 c 128,-1,9
 296 92 296 92 302.5 85 c 128,-1,10
 309 78 309 78 322 72.5 c 128,-1,11
 335 67 335 67 354 67 c 0,12,13
 376 67 376 67 394 85 c 128,-1,14
 412 103 412 103 420 121 c 2,15,-1
 427 139 l 1,16,-1
 427 208 l 1,17,-1
 501 134 l 1,18,19
 495 112 495 112 477 82 c 128,-1,20
 459 52 459 52 423.5 23 c 128,-1,21
 388 -6 388 -6 349 -6 c 0,22,23
 293 -6 293 -6 249.5 27.5 c 128,-1,24
 206 61 206 61 206 119 c 2,25,-1
 206 390 l 1,26,-1
 78 390 l 1,27,-1
 78 463 l 1,28,-1
 206 463 l 1,29,-1
 206 713 l 1,30,-1
 178 742 l 1,31,-1
 310 742 l 1,0,-1
EndSplineSet
Validated: 3073
EndChar

StartChar: u
Encoding: 117 117 84
Width: 588
VWidth: 0
Flags: W
HStem: -6 73<224.383 360.506> 453 20G<67 198 393 520>
VStem: 90 82<130.44 442> 416 82<15 63 132.143 442>
LayerCount: 2
Fore
SplineSet
520 473 m 29,0,-1
 498 442 l 5,1,-1
 498 15 l 1,2,-1
 522 -6 l 1,3,-1
 416 -6 l 1,4,-1
 416 63 l 1,5,6
 353 -6 353 -6 289 -6 c 0,7,8
 190 -6 190 -6 140 66.5 c 128,-1,9
 90 139 90 139 90 242 c 2,10,-1
 90 442 l 5,11,-1
 67 473 l 5,12,-1
 198 473 l 5,13,-1
 172 442 l 5,14,15
 172 248 l 2,16,17
 172 163 172 163 202 115 c 128,-1,18
 232 67 232 67 289 67 c 0,19,20
 353 67 353 67 384.5 116 c 128,-1,21
 416 165 416 165 416 248 c 2,22,-1
 416 442 l 5,23,-1
 393 473 l 5,24,-1
 520 473 l 29,0,-1
EndSplineSet
Validated: 3073
EndChar

StartChar: v
Encoding: 118 118 85
Width: 588
VWidth: 0
Flags: W
HStem: -6 21G<258 332> 453 20G<68 202 385 521>
VStem: 93 82<260.638 441> 414 82<260.638 441>
LayerCount: 2
Fore
SplineSet
521 473 m 29,0,-1
 496 441 l 5,1,-1
 496 369 l 2,2,3
 496 288 496 288 432.5 163 c 128,-1,4
 369 38 369 38 295 -6 c 1,5,6
 221 38 221 38 157 163 c 128,-1,7
 93 288 93 288 93 369 c 2,8,-1
 93 441 l 5,9,-1
 68 473 l 5,10,-1
 202 473 l 5,11,-1
 175 441 l 5,12,-1
 175 369 l 2,13,14
 175 313 175 313 213.5 213 c 128,-1,15
 252 113 252 113 295 75 c 1,16,17
 337 113 337 113 375.5 213 c 128,-1,18
 414 313 414 313 414 369 c 2,19,-1
 414 441 l 5,20,-1
 385 473 l 5,21,-1
 521 473 l 29,0,-1
EndSplineSet
Validated: 3073
EndChar

StartChar: w
Encoding: 119 119 86
Width: 588
VWidth: 0
Flags: W
HStem: -6 21G<126 235 379 467> 453 20G<33 161 228 357 427 556>
VStem: 55 82<102.672 441> 254 81<115.188 441> 452 82<97.2795 441>
CounterMasks: 1 38
LayerCount: 2
Fore
SplineSet
556 473 m 25,0,-1
 534 441 l 1,1,-1
 534 217 l 2,2,3
 534 37 534 37 400 -6 c 1,4,5
 358 15 358 15 331.5 39 c 128,-1,6
 305 63 305 63 294 99 c 1,7,8
 273 32 273 32 197 -6 c 1,9,10
 55 40 55 40 55 217 c 2,11,-1
 55 441 l 1,12,-1
 33 473 l 5,13,-1
 161 473 l 1,14,-1
 137 441 l 1,15,-1
 137 217 l 2,16,17
 137 156 137 156 147 125 c 128,-1,18
 157 94 157 94 197 67 c 1,19,20
 235 101 235 101 244.5 130 c 128,-1,21
 254 159 254 159 254 217 c 2,22,-1
 254 441 l 1,23,-1
 228 473 l 1,24,-1
 357 473 l 1,25,-1
 335 441 l 1,26,-1
 335 217 l 2,27,28
 335 163 335 163 347.5 133 c 128,-1,29
 360 103 360 103 400 67 c 1,30,31
 425 84 425 84 436.5 109 c 128,-1,32
 448 134 448 134 449.5 153 c 128,-1,33
 451 172 451 172 452 217 c 1,34,-1
 452 441 l 1,35,-1
 427 473 l 1,36,-1
 556 473 l 25,0,-1
EndSplineSet
Validated: 3073
EndChar

StartChar: x
Encoding: 120 120 87
Width: 588
VWidth: 0
Flags: W
HStem: 469 20G<141.556 164.381 422.619 445.444>
LayerCount: 2
Fore
SplineSet
292 292 m 1,0,-1
 420 447 l 1,1,-1
 425 489 l 1,2,-1
 517 399 l 1,3,-1
 478 394 l 1,4,-1
 346 236 l 1,5,-1
 477 78 l 1,6,-1
 517 74 l 1,7,-1
 425 -27 l 1,8,-1
 420 25 l 1,9,-1
 292 180 l 1,10,-1
 167 25 l 1,11,-1
 162 -27 l 1,12,-1
 70 74 l 1,13,-1
 110 78 l 1,14,-1
 241 236 l 1,15,-1
 109 394 l 1,16,-1
 70 399 l 1,17,-1
 162 489 l 1,18,-1
 167 447 l 1,19,-1
 292 292 l 1,0,-1
EndSplineSet
Validated: 3073
EndChar

StartChar: y
Encoding: 121 121 88
Width: 588
VWidth: 0
Flags: W
HStem: -205 73<203.94 371.915> 41 73<218.567 365.437> 453 20G<70 202 392 520>
VStem: 93 82<161.805 442> 104 63<-95.3604 -59> 415 82<-86.8851 110 166.808 442>
LayerCount: 2
Fore
SplineSet
520 473 m 29,0,-1
 497 442 l 5,1,-1
 497 10 l 2,2,3
 497 -98 497 -98 442.5 -151.5 c 128,-1,4
 388 -205 388 -205 289 -205 c 1,5,6
 218 -204 218 -204 162.5 -166 c 128,-1,7
 107 -128 107 -128 104 -59 c 1,8,-1
 167 -23 l 1,9,10
 167 -132 167 -132 289 -132 c 0,11,12
 358 -132 358 -132 388 -95 c 128,-1,13
 418 -58 418 -58 418 20 c 2,14,-1
 418 110 l 1,15,16
 406 76 406 76 367.5 58.5 c 128,-1,17
 329 41 329 41 289 41 c 0,18,19
 190 41 190 41 141.5 107.5 c 128,-1,20
 93 174 93 174 93 272 c 2,21,-1
 93 442 l 5,22,-1
 70 473 l 5,23,-1
 202 473 l 5,24,-1
 175 442 l 5,25,-1
 175 272 l 2,26,27
 175 190 175 190 203 152 c 128,-1,28
 231 114 231 114 289 114 c 0,29,30
 415 114 415 114 415 272 c 2,31,-1
 415 442 l 5,32,-1
 392 473 l 5,33,-1
 520 473 l 29,0,-1
EndSplineSet
Validated: 3073
EndChar

StartChar: z
Encoding: 122 122 89
Width: 588
VWidth: 0
Flags: W
HStem: 399 72<152.691 393>
VStem: 82 70<352.906 395.838> 433 69<42.5 104.949>
LayerCount: 2
Fore
SplineSet
517 471 m 21,0,1
 514 366 514 366 174 78 c 5,2,3
 396 65 l 5,4,5
 433 72 433 72 433 84 c 4,6,7
 433 92 433 92 421 97 c 132,-1,8
 409 102 409 102 409 111 c 4,9,10
 409 124 409 124 433 124 c 4,11,12
 465 124 465 124 483.5 106.5 c 132,-1,13
 502 89 502 89 502 67 c 4,14,15
 500 18 500 18 464 -1 c 4,16,17
 439 -14 439 -14 407 -14 c 5,18,19
 234 5 234 5 152 5 c 4,20,21
 72 5 72 5 72 78 c 5,22,23
 94 107 94 107 166 172 c 132,-1,24
 238 237 238 237 305.5 298.5 c 132,-1,25
 373 360 373 360 393 399 c 5,26,-1
 187 399 l 5,27,28
 152 392 152 392 152 380 c 4,29,30
 152 372 152 372 163 366 c 132,-1,31
 174 360 174 360 174 351 c 4,32,33
 174 337 174 337 152 337 c 4,34,35
 120 337 120 337 101 354 c 132,-1,36
 82 371 82 371 82 393 c 4,37,38
 84 437 84 437 122 457 c 4,39,40
 149 471 149 471 177 471 c 6,41,-1
 517 471 l 21,0,1
EndSplineSet
Validated: 3073
EndChar

StartChar: braceleft
Encoding: 123 123 90
Width: 588
VWidth: 0
Flags: W
HStem: -88 82<351.876 411> 737 82<350.128 411>
VStem: 286 82<171.923 260.259 471.994 562.53>
LayerCount: 2
Fore
SplineSet
411 819 m 9,0,-1
 411 737 l 1,1,2
 382 737 382 737 363.5 725 c 128,-1,3
 345 713 345 713 341 701 c 2,4,-1
 337 689 l 1,5,6
 368 553 368 553 368 520 c 0,7,8
 368 502 368 502 352.5 479.5 c 128,-1,9
 337 457 337 457 309.5 425 c 128,-1,10
 282 393 282 393 268 373 c 1,11,12
 282 351 282 351 309.5 315 c 128,-1,13
 337 279 337 279 352.5 254 c 128,-1,14
 368 229 368 229 368 211 c 1,15,-1
 337 42 l 2,16,17
 337 40 337 40 338.5 37 c 128,-1,18
 340 34 340 34 345 25.5 c 128,-1,19
 350 17 350 17 357.5 10.5 c 128,-1,20
 365 4 365 4 379 -1 c 128,-1,21
 393 -6 393 -6 411 -6 c 1,22,-1
 411 -88 l 1,23,24
 379 -88 379 -88 351 -75.5 c 128,-1,25
 323 -63 323 -63 306 -45.5 c 128,-1,26
 289 -28 289 -28 277 -10 c 0,27,28
 264 8 264 8 260 20 c 2,29,-1
 256 32 l 1,30,31
 286 181 286 181 286 211 c 0,32,33
 286 228 286 228 269 253 c 128,-1,34
 252 278 252 278 220.5 314.5 c 128,-1,35
 189 351 189 351 174 373 c 1,36,37
 189 393 189 393 220.5 424.5 c 128,-1,38
 252 456 252 456 269 478.5 c 128,-1,39
 286 501 286 501 286 520 c 1,40,-1
 256 698 l 1,41,42
 258 703 258 703 261.5 711 c 128,-1,43
 265 719 265 719 278 740 c 128,-1,44
 291 761 291 761 307 777 c 128,-1,45
 323 793 323 793 351 806 c 128,-1,46
 379 819 379 819 411 819 c 9,0,-1
EndSplineSet
Validated: 3073
EndChar

StartChar: bar
Encoding: 124 124 91
Width: 588
VWidth: 0
Flags: W
VStem: 253 82<-88 819>
LayerCount: 2
Fore
SplineSet
335 819 m 25,0,-1
 335 -88 l 1,1,-1
 253 -88 l 1,2,-1
 253 819 l 1,3,-1
 335 819 l 25,0,-1
EndSplineSet
Validated: 3073
EndChar

StartChar: braceright
Encoding: 125 125 92
Width: 588
VWidth: 0
Flags: W
HStem: -88 82<178 237.609> 737 82<178 238.357>
VStem: 221 82<171.923 260.259 471.994 562.53>
LayerCount: 2
Fore
SplineSet
178 819 m 17,0,1
 210 819 210 819 237.5 806.5 c 128,-1,2
 265 794 265 794 282 776 c 128,-1,3
 299 758 299 758 311 740 c 128,-1,4
 323 722 323 722 328 710 c 2,5,-1
 333 698 l 1,6,-1
 303 520 l 1,7,8
 303 501 303 501 320 478.5 c 128,-1,9
 337 456 337 456 368.5 424.5 c 128,-1,10
 400 393 400 393 415 373 c 1,11,12
 400 351 400 351 368.5 314.5 c 128,-1,13
 337 278 337 278 320 253 c 128,-1,14
 303 228 303 228 303 211 c 0,15,16
 303 198 303 198 310.5 153 c 128,-1,17
 318 108 318 108 326 70 c 2,18,-1
 333 32 l 1,19,20
 331 27 331 27 328 19 c 128,-1,21
 325 11 325 11 312 -9.5 c 128,-1,22
 299 -30 299 -30 283 -46 c 128,-1,23
 267 -62 267 -62 238.5 -75 c 128,-1,24
 210 -88 210 -88 178 -88 c 1,25,-1
 178 -6 l 1,26,27
 206 -6 206 -6 224 6 c 0,28,29
 244 18 244 18 248 30 c 2,30,-1
 252 42 l 1,31,-1
 221 211 l 1,32,33
 221 229 221 229 236.5 254 c 128,-1,34
 252 279 252 279 279.5 315 c 128,-1,35
 307 351 307 351 321 373 c 1,36,37
 307 393 307 393 279.5 425 c 128,-1,38
 252 457 252 457 236.5 479.5 c 128,-1,39
 221 502 221 502 221 520 c 0,40,41
 221 535 221 535 228.5 577 c 128,-1,42
 236 619 236 619 244 654 c 2,43,-1
 252 689 l 2,44,45
 252 691 252 691 251 694 c 128,-1,46
 250 697 250 697 245 705.5 c 128,-1,47
 240 714 240 714 232.5 720.5 c 128,-1,48
 225 727 225 727 210.5 732 c 128,-1,49
 196 737 196 737 178 737 c 1,50,-1
 178 819 l 17,0,1
EndSplineSet
Validated: 3073
EndChar

StartChar: asciitilde
Encoding: 126 126 93
Width: 588
VWidth: 0
Flags: W
HStem: 293 73<349.322 456.544> 391 72<131.138 238.667>
LayerCount: 2
Fore
SplineSet
505 424 m 1,0,1
 536 424 536 424 536 387 c 0,2,3
 536 361 536 361 491 327 c 128,-1,4
 446 293 446 293 404 293 c 0,5,6
 381 293 381 293 290.5 342 c 128,-1,7
 200 391 200 391 185 391 c 0,8,9
 170 390 170 390 144 376 c 128,-1,10
 118 362 118 362 100 347 c 2,11,-1
 82 332 l 1,12,13
 54 332 54 332 54 369 c 0,14,15
 54 395 54 395 98.5 429 c 128,-1,16
 143 463 143 463 185 463 c 0,17,18
 208 463 208 463 298.5 414.5 c 128,-1,19
 389 366 389 366 404 366 c 128,-1,20
 419 366 419 366 444 380 c 0,21,22
 469 396 469 396 487 410 c 2,23,-1
 505 424 l 1,0,1
EndSplineSet
Validated: 3073
EndChar

StartChar: plusminus
Encoding: 177 177 94
Width: 588
VWidth: 0
Flags: W
HStem: 0 74<55.5381 534.297> 288 71<55.3398 253 335 534.517>
VStem: 253 82<110.978 288 359 536.943>
LayerCount: 2
Fore
SplineSet
505 74 m 2,0,1
 536 74 536 74 536 37 c 128,-1,2
 536 0 536 0 505 0 c 2,3,-1
 82 0 l 2,4,5
 54 0 54 0 54 37 c 128,-1,6
 54 74 54 74 82 74 c 2,7,-1
 505 74 l 2,0,1
295 539 m 0,8,9
 335 539 335 539 335 513 c 2,10,-1
 335 359 l 1,11,-1
 505 359 l 2,12,13
 536 359 536 359 536 324 c 0,14,15
 536 288 536 288 505 288 c 2,16,-1
 335 288 l 1,17,-1
 335 134 l 2,18,19
 335 109 335 109 295 109 c 0,20,21
 253 109 253 109 253 134 c 2,22,-1
 253 288 l 1,23,-1
 82 288 l 2,24,25
 54 288 54 288 54 324 c 0,26,27
 54 359 54 359 82 359 c 2,28,-1
 253 359 l 1,29,-1
 253 513 l 2,30,31
 253 539 253 539 295 539 c 0,8,9
EndSplineSet
Validated: 3073
EndChar

StartChar: periodcentered
Encoding: 183 183 95
Width: 588
VWidth: 0
Flags: W
HStem: 344 72<271.798 318.202>
VStem: 262 66<354.829 405.171>
LayerCount: 2
Fore
SplineSet
295 416 m 152,-1,1
 309 416 309 416 318.5 405.5 c 128,-1,2
 328 395 328 395 328 380 c 128,-1,3
 328 365 328 365 318.5 354.5 c 128,-1,4
 309 344 309 344 295 344 c 128,-1,5
 281 344 281 344 271.5 354.5 c 128,-1,6
 262 365 262 365 262 380 c 128,-1,7
 262 395 262 395 271.5 405.5 c 128,-1,0
 281 416 281 416 295 416 c 152,-1,1
EndSplineSet
Validated: 3073
EndChar

StartChar: exclamdown
Encoding: 161 161 97
Width: 588
VWidth: 0
Flags: W
HStem: -4 21G<284 306> 631 110<257.955 331.076>
VStem: 231 125<3.03857 316.402> 243 102<648.017 725.014> 253 82<287.062 562.022>
LayerCount: 2
Fore
SplineSet
295 564 m 0,0,1
 335 564 335 564 335 539 c 0,2,3
 335 476 335 476 345.5 281 c 128,-1,4
 356 86 356 86 356 23 c 0,5,6
 356 11 356 11 336.5 3.5 c 128,-1,7
 317 -4 317 -4 295 -4 c 128,-1,8
 273 -4 273 -4 252 3.5 c 128,-1,9
 231 11 231 11 231 23 c 0,10,11
 231 86 231 86 242 281 c 128,-1,12
 253 476 253 476 253 539 c 0,13,14
 253 564 253 564 295 564 c 0,0,1
295 741 m 152,-1,16
 318 741 318 741 331.5 725.5 c 128,-1,17
 345 710 345 710 345 687 c 128,-1,18
 345 664 345 664 331.5 647.5 c 128,-1,19
 318 631 318 631 295 631 c 128,-1,20
 272 631 272 631 257.5 647.5 c 128,-1,21
 243 664 243 664 243 687 c 128,-1,22
 243 710 243 710 257.5 725.5 c 128,-1,15
 272 741 272 741 295 741 c 152,-1,16
EndSplineSet
Validated: 3073
EndChar

StartChar: uniFF01
Encoding: 65281 65281 98
Width: 1177
VWidth: 0
Flags: W
HStem: -6 132<480.394 696.646> 180 569<508.096 670.243>
VStem: 464 250<457.938 737.198> 507 164<186.1 470.062>
LayerCount: 2
Fore
SplineSet
591 126 m 24,0,1
 649 126 649 126 691.5 106.5 c 128,-1,2
 734 87 734 87 734 59 c 128,-1,3
 734 31 734 31 691.5 12.5 c 128,-1,4
 649 -6 649 -6 591 -6 c 0,5,6
 531 -6 531 -6 487 12.5 c 128,-1,7
 443 31 443 31 443 59 c 0,8,9
 443 88 443 88 487 107 c 128,-1,10
 531 126 531 126 591 126 c 24,0,1
591 749 m 0,11,12
 634 749 634 749 674 741.5 c 128,-1,13
 714 734 714 734 714 722 c 0,14,15
 714 659 714 659 692.5 464 c 128,-1,16
 671 269 671 269 671 206 c 0,17,18
 671 180 671 180 591 180 c 0,19,20
 507 180 507 180 507 206 c 0,21,22
 507 269 507 269 485.5 464 c 128,-1,23
 464 659 464 659 464 722 c 0,24,25
 464 734 464 734 505.5 741.5 c 128,-1,26
 547 749 547 749 591 749 c 0,11,12
EndSplineSet
Validated: 3073
EndChar

StartChar: uniFF02
Encoding: 65282 65282 99
Width: 1177
VWidth: 0
Flags: W
HStem: 518 281<303.492 400.827 772.492 869.111>
VStem: 242 225<623.731 779.147> 261.5 184<571.221 752.434> 711 225<625.112 779.147> 730.5 183.5<571.625 752.434>
LayerCount: 2
Fore
SplineSet
821 799 m 128,-1,1
 867 799 867 799 901.5 785 c 128,-1,2
 936 771 936 771 936 753 c 0,3,4
 936 737 936 737 931 704 c 128,-1,5
 926 671 926 671 914 626.5 c 128,-1,6
 902 582 902 582 878 550 c 128,-1,7
 854 518 854 518 821 518 c 128,-1,8
 788 518 788 518 764.5 549.5 c 128,-1,9
 741 581 741 581 730.5 626 c 128,-1,10
 720 671 720 671 715.5 703 c 128,-1,11
 711 735 711 735 711 753 c 128,-1,12
 711 771 711 771 743 785 c 128,-1,0
 775 799 775 799 821 799 c 128,-1,1
352 799 m 128,-1,14
 398 799 398 799 432.5 785 c 128,-1,15
 467 771 467 771 467 753 c 0,16,17
 467 737 467 737 462 704 c 128,-1,18
 457 671 457 671 445.5 626.5 c 128,-1,19
 434 582 434 582 409.5 550 c 128,-1,20
 385 518 385 518 352 518 c 128,-1,21
 319 518 319 518 295.5 549.5 c 128,-1,22
 272 581 272 581 261.5 626 c 128,-1,23
 251 671 251 671 246.5 703 c 128,-1,24
 242 735 242 735 242 753 c 128,-1,25
 242 771 242 771 274 785 c 128,-1,13
 306 799 306 799 352 799 c 128,-1,14
EndSplineSet
Validated: 3073
EndChar

StartChar: uniFF03
Encoding: 65283 65283 100
Width: 1177
VWidth: 0
Flags: W
HStem: 158 70<89 230 404 646 820 1027> 439 70<146 321 497 738 912 1084>
LayerCount: 2
Fore
SplineSet
804 158 m 1,0,-1
 769 44 l 1,1,-1
 615 44 l 1,2,-1
 646 158 l 1,3,-1
 388 158 l 1,4,-1
 351 44 l 1,5,-1
 194 44 l 1,6,-1
 230 158 l 1,7,-1
 71 158 l 1,8,-1
 89 228 l 1,9,-1
 251 228 l 1,10,-1
 321 439 l 1,11,-1
 128 439 l 1,12,-1
 146 509 l 1,13,-1
 339 509 l 1,14,-1
 370 622 l 1,15,-1
 523 622 l 1,16,-1
 497 509 l 1,17,-1
 755 509 l 1,18,-1
 785 622 l 1,19,-1
 939 622 l 1,20,-1
 912 509 l 1,21,-1
 1107 509 l 1,22,-1
 1084 439 l 1,23,-1
 892 439 l 1,24,-1
 820 228 l 1,25,-1
 1050 228 l 1,26,-1
 1027 158 l 1,27,-1
 804 158 l 1,0,-1
669 228 m 1,28,-1
 738 439 l 1,29,-1
 474 439 l 1,30,-1
 404 228 l 1,31,-1
 669 228 l 1,28,-1
EndSplineSet
Validated: 3073
EndChar

StartChar: uniFF04
Encoding: 65284 65284 101
Width: 1177
VWidth: 0
Flags: W
HStem: 0 74<172 506 670 812.27> 379 74<333.295 506 670 822.511> 669 72<333.295 506 670 1006>
VStem: 84 164<509.239 612.466> 506 164<-88 0 78 379 453 669 741 819> 930 164<159.694 296.611>
LayerCount: 2
Fore
SplineSet
1006 741 m 1,0,-1
 1094 669 l 1,1,-1
 670 669 l 1,2,-1
 670 453 l 1,3,4
 869 453 869 453 981.5 389 c 128,-1,5
 1094 325 1094 325 1094 228 c 128,-1,6
 1094 131 1094 131 981.5 65.5 c 128,-1,7
 869 0 869 0 670 0 c 1,8,-1
 670 -88 l 1,9,-1
 506 -88 l 1,10,-1
 506 0 l 1,11,-1
 84 0 l 1,12,-1
 172 74 l 1,13,-1
 506 74 l 1,14,-1
 506 379 l 1,15,16
 396 379 396 379 301.5 399.5 c 128,-1,17
 207 420 207 420 145.5 462 c 128,-1,18
 84 504 84 504 84 560 c 128,-1,19
 84 616 84 616 145.5 657.5 c 128,-1,20
 207 699 207 699 301.5 719 c 128,-1,21
 396 739 396 739 506 739 c 1,22,-1
 506 819 l 1,23,-1
 670 819 l 1,24,-1
 670 741 l 1,25,-1
 1006 741 l 1,0,-1
506 669 m 1,26,27
 387 669 387 669 317.5 641.5 c 128,-1,28
 248 614 248 614 248 561 c 128,-1,29
 248 508 248 508 317.5 480.5 c 128,-1,30
 387 453 387 453 506 453 c 1,31,-1
 506 669 l 1,26,27
670 78 m 1,32,33
 801 78 801 78 865.5 120 c 128,-1,34
 930 162 930 162 930 228 c 0,35,36
 930 295 930 295 866 337 c 128,-1,37
 802 379 802 379 670 379 c 1,38,-1
 670 78 l 1,32,33
EndSplineSet
Validated: 3073
EndChar

StartChar: uniFF05
Encoding: 65285 65285 102
Width: 1177
VWidth: 0
Flags: W
HStem: -6 42<757.735 920.287> 231 41<759.319 918.23> 404 42<257.695 418.573> 641 43<257.419 420.451>
VStem: 101 133<484.638 603.463> 442.5 133.5<484.619 603.416> 601 133<73.8287 192.278> 942.5 133.5<73.7512 192.249>
LayerCount: 2
Fore
SplineSet
839 231 m 4,0,1
 802 231 802 231 779 222.5 c 132,-1,2
 756 214 756 214 747 197 c 132,-1,3
 738 180 738 180 736 167.5 c 132,-1,4
 734 155 734 155 734 133 c 4,5,6
 734 116 734 116 735 106 c 132,-1,7
 736 96 736 96 741.5 81 c 132,-1,8
 747 66 747 66 757 57.5 c 132,-1,9
 767 49 767 49 788 42.5 c 132,-1,10
 809 36 809 36 839 36 c 132,-1,11
 869 36 869 36 889.5 42.5 c 132,-1,12
 910 49 910 49 920.5 57 c 132,-1,13
 931 65 931 65 936.5 80.5 c 132,-1,14
 942 96 942 96 942.5 105.5 c 132,-1,15
 943 115 943 115 943 133 c 132,-1,16
 943 151 943 151 942.5 160.5 c 132,-1,17
 942 170 942 170 936.5 185.5 c 132,-1,18
 931 201 931 201 920.5 209.5 c 132,-1,19
 910 218 910 218 889.5 224.5 c 132,-1,20
 869 231 869 231 839 231 c 4,0,1
839 272 m 132,-1,22
 943 272 943 272 1009.5 230 c 132,-1,23
 1076 188 1076 188 1076 133 c 132,-1,24
 1076 78 1076 78 1009.5 36 c 132,-1,25
 943 -6 943 -6 839 -6 c 132,-1,26
 735 -6 735 -6 668 36 c 132,-1,27
 601 78 601 78 601 133 c 132,-1,28
 601 188 601 188 668 230 c 132,-1,21
 735 272 735 272 839 272 c 132,-1,22
1076 678 m 29,29,-1
 273 0 l 5,30,-1
 112 0 l 5,31,-1
 908 678 l 5,32,-1
 1076 678 l 29,29,-1
339 641 m 132,-1,34
 309 641 309 641 288 634.5 c 132,-1,35
 267 628 267 628 257 619.5 c 132,-1,36
 247 611 247 611 241.5 596 c 132,-1,37
 236 581 236 581 235 571 c 132,-1,38
 234 561 234 561 234 544 c 4,39,40
 234 522 234 522 236 509.5 c 132,-1,41
 238 497 238 497 247 480 c 132,-1,42
 256 463 256 463 279 454.5 c 132,-1,43
 302 446 302 446 339 446 c 4,44,45
 369 446 369 446 389.5 452.5 c 132,-1,46
 410 459 410 459 420.5 467.5 c 132,-1,47
 431 476 431 476 436.5 491.5 c 132,-1,48
 442 507 442 507 442.5 516.5 c 132,-1,49
 443 526 443 526 443 544 c 132,-1,50
 443 562 443 562 442.5 571.5 c 132,-1,51
 442 581 442 581 436.5 596.5 c 132,-1,52
 431 612 431 612 420.5 620 c 132,-1,53
 410 628 410 628 389.5 634.5 c 132,-1,33
 369 641 369 641 339 641 c 132,-1,34
339 684 m 132,-1,55
 443 684 443 684 509.5 641.5 c 132,-1,56
 576 599 576 599 576 544 c 132,-1,57
 576 489 576 489 509.5 446.5 c 132,-1,58
 443 404 443 404 339 404 c 132,-1,59
 235 404 235 404 168 446.5 c 132,-1,60
 101 489 101 489 101 544 c 132,-1,61
 101 599 101 599 168 641.5 c 132,-1,54
 235 684 235 684 339 684 c 132,-1,55
EndSplineSet
Validated: 3073
EndChar

StartChar: uniFF06
Encoding: 65286 65286 103
Width: 1177
VWidth: 0
Flags: W
HStem: -6 72<334.813 594.465> 209 62<989.902 1046.09> 673 69<474.807 685.18>
VStem: 70 157<140.265 239.978> 250 158<521.678 624.522> 762 149<525.211 618.839>
LayerCount: 2
Fore
SplineSet
584 742 m 0,0,1
 723 742 723 742 817 686.5 c 128,-1,2
 911 631 911 631 911 575 c 0,3,4
 911 461 911 461 690 368 c 1,5,6
 736 344 736 344 765.5 325 c 128,-1,7
 795 306 795 306 814.5 282 c 128,-1,8
 834 258 834 258 841 246.5 c 128,-1,9
 848 235 848 235 866 201 c 1,10,11
 883 213 883 213 896.5 221 c 128,-1,12
 910 229 910 229 919.5 235.5 c 128,-1,13
 929 242 929 242 940 246.5 c 128,-1,14
 951 251 951 251 956 253.5 c 128,-1,15
 961 256 961 256 973.5 259 c 128,-1,16
 986 262 986 262 990.5 263 c 128,-1,17
 995 264 995 264 1012.5 267 c 128,-1,18
 1030 270 1030 270 1038 271 c 1,19,-1
 1108 209 l 1,20,21
 1047 208 1047 208 984 184.5 c 128,-1,22
 921 161 921 161 918 136 c 1,23,24
 987 76 987 76 1108 75 c 1,25,-1
 961 -1 l 1,26,27
 895 25 895 25 869 39.5 c 128,-1,28
 843 54 843 54 811 83 c 1,29,30
 797 78 797 78 746.5 57.5 c 128,-1,31
 696 37 696 37 676 31 c 128,-1,32
 656 25 656 25 610 13.5 c 128,-1,33
 564 2 564 2 513.5 -2 c 128,-1,34
 463 -6 463 -6 397 -6 c 0,35,36
 335 -6 335 -6 257.5 23.5 c 128,-1,37
 180 53 180 53 125 98 c 128,-1,38
 70 143 70 143 70 181 c 0,39,40
 71 221 71 221 97 250.5 c 128,-1,41
 123 280 123 280 206.5 316 c 128,-1,42
 290 352 290 352 442 391 c 1,43,44
 352 426 352 426 301 484.5 c 128,-1,45
 250 543 250 543 250 578 c 0,46,47
 250 621 250 621 299.5 659.5 c 128,-1,48
 349 698 349 698 426 720 c 128,-1,49
 503 742 503 742 584 742 c 0,0,1
588 673 m 0,50,51
 524 673 524 673 466 647 c 128,-1,52
 408 621 408 621 408 578 c 0,53,54
 408 550 408 550 421.5 526.5 c 128,-1,55
 435 503 435 503 463.5 484 c 128,-1,56
 492 465 492 465 517.5 452.5 c 128,-1,57
 543 440 543 440 584 424 c 1,58,59
 661 444 661 444 707.5 487.5 c 128,-1,60
 754 531 754 531 762 575 c 1,61,62
 762 614 762 614 701.5 643.5 c 128,-1,63
 641 673 641 673 588 673 c 0,50,51
541 335 m 1,64,65
 498 320 498 320 443.5 307 c 128,-1,66
 389 294 389 294 355.5 286 c 128,-1,67
 322 278 322 278 290 265.5 c 128,-1,68
 258 253 258 253 243 232.5 c 128,-1,69
 228 212 228 212 227 181 c 1,70,71
 227 145 227 145 298.5 105.5 c 128,-1,72
 370 66 370 66 440 66 c 0,73,74
 506 66 506 66 564.5 80.5 c 128,-1,75
 623 95 623 95 649.5 107.5 c 128,-1,76
 676 120 676 120 728 150 c 0,77,78
 737 155 737 155 741 157 c 1,79,80
 707 226 707 226 665 267.5 c 128,-1,81
 623 309 623 309 541 335 c 1,64,65
EndSplineSet
Validated: 3073
EndChar

StartChar: uniFF07
Encoding: 65287 65287 104
Width: 1177
VWidth: 0
Flags: W
HStem: 518 281<538.325 635.827>
VStem: 476 225<621.357 779.609> 495.5 184.5<570.457 752.465>
LayerCount: 2
Fore
SplineSet
587 799 m 128,-1,1
 633 799 633 799 667 785 c 128,-1,2
 701 771 701 771 701 753 c 0,3,4
 701 737 701 737 696 704 c 128,-1,5
 691 671 691 671 680 626.5 c 128,-1,6
 669 582 669 582 644.5 550 c 128,-1,7
 620 518 620 518 587 518 c 128,-1,8
 554 518 554 518 530 549.5 c 128,-1,9
 506 581 506 581 495.5 625.5 c 128,-1,10
 485 670 485 670 480.5 703 c 128,-1,11
 476 736 476 736 476 753 c 0,12,13
 476 771 476 771 508.5 785 c 128,-1,0
 541 799 541 799 587 799 c 128,-1,1
EndSplineSet
Validated: 3073
EndChar

StartChar: uniFF08
Encoding: 65288 65288 105
Width: 1177
VWidth: 0
Flags: W
HStem: -88 82<692.52 812> 737 82<692.754 812>
VStem: 366 163<187.148 543.013>
LayerCount: 2
Fore
SplineSet
812 819 m 9,0,-1
 812 737 l 1,1,2
 757 737 757 737 712.5 722 c 128,-1,3
 668 707 668 707 639.5 683.5 c 128,-1,4
 611 660 611 660 589.5 625.5 c 128,-1,5
 568 591 568 591 556.5 559 c 128,-1,6
 545 527 545 527 538.5 487.5 c 128,-1,7
 532 448 532 448 530.5 421.5 c 128,-1,8
 529 395 529 395 529 365 c 128,-1,9
 529 335 529 335 530.5 308.5 c 128,-1,10
 532 282 532 282 538.5 242.5 c 128,-1,11
 545 203 545 203 556.5 171 c 128,-1,12
 568 139 568 139 589.5 105 c 128,-1,13
 611 71 611 71 639.5 47.5 c 128,-1,14
 668 24 668 24 712.5 9 c 128,-1,15
 757 -6 757 -6 812 -6 c 1,16,-1
 812 -88 l 1,17,18
 728 -88 728 -88 659.5 -71.5 c 128,-1,19
 591 -55 591 -55 545.5 -29 c 128,-1,20
 500 -3 500 -3 466 35.5 c 128,-1,21
 432 74 432 74 413.5 112.5 c 128,-1,22
 395 151 395 151 383.5 199 c 128,-1,23
 372 247 372 247 369 284.5 c 128,-1,24
 366 322 366 322 366 365 c 0,25,26
 366 413 366 413 369 453 c 128,-1,27
 372 493 372 493 383.5 541.5 c 128,-1,28
 395 590 395 590 413.5 627.5 c 128,-1,29
 432 665 432 665 466 702.5 c 128,-1,30
 500 740 500 740 546 764.5 c 128,-1,31
 592 789 592 789 660 804 c 128,-1,32
 728 819 728 819 812 819 c 9,0,-1
EndSplineSet
Validated: 3073
EndChar

StartChar: uniFF09
Encoding: 65289 65289 106
Width: 1177
VWidth: 0
Flags: W
HStem: -88 82<366 485.48> 737 82<366 485.246>
VStem: 648 164<185.688 544.521>
LayerCount: 2
Fore
SplineSet
366 819 m 17,0,1
 450 819 450 819 518 804 c 128,-1,2
 586 789 586 789 632 764.5 c 128,-1,3
 678 740 678 740 712 702.5 c 128,-1,4
 746 665 746 665 764.5 627.5 c 128,-1,5
 783 590 783 590 794.5 541.5 c 128,-1,6
 806 493 806 493 809 453 c 128,-1,7
 812 413 812 413 812 365 c 0,8,9
 812 322 812 322 809 284.5 c 128,-1,10
 806 247 806 247 794.5 199 c 128,-1,11
 783 151 783 151 764.5 112.5 c 128,-1,12
 746 74 746 74 712 35.5 c 128,-1,13
 678 -3 678 -3 632.5 -29 c 128,-1,14
 587 -55 587 -55 518.5 -71.5 c 128,-1,15
 450 -88 450 -88 366 -88 c 1,16,-1
 366 -6 l 1,17,18
 421 -6 421 -6 465.5 9 c 128,-1,19
 510 24 510 24 538.5 47.5 c 128,-1,20
 567 71 567 71 588.5 105 c 128,-1,21
 610 139 610 139 621 171 c 128,-1,22
 632 203 632 203 638.5 242.5 c 128,-1,23
 645 282 645 282 646.5 308.5 c 128,-1,24
 648 335 648 335 648 365 c 128,-1,25
 648 395 648 395 646.5 421.5 c 128,-1,26
 645 448 645 448 638.5 487.5 c 128,-1,27
 632 527 632 527 621 559 c 128,-1,28
 610 591 610 591 588.5 625.5 c 128,-1,29
 567 660 567 660 538.5 683.5 c 128,-1,30
 510 707 510 707 465.5 722 c 128,-1,31
 421 737 421 737 366 737 c 1,32,-1
 366 819 l 17,0,1
EndSplineSet
Validated: 3073
EndChar

StartChar: uniFF0A
Encoding: 65290 65290 107
Width: 1177
VWidth: 0
Flags: W
HStem: 592 91<273.116 304.047 873.179 901.199> 722 20G<470 703>
LayerCount: 2
Fore
SplineSet
703 742 m 1,0,-1
 642 612 l 1,1,-1
 896 683 l 1,2,-1
 962 592 l 1,3,-1
 677 569 l 1,4,-1
 904 467 l 1,5,-1
 742 414 l 1,6,-1
 589 539 l 1,7,-1
 435 414 l 1,8,-1
 269 467 l 1,9,-1
 501 569 l 1,10,-1
 216 592 l 1,11,-1
 278 683 l 1,12,-1
 536 612 l 1,13,-1
 470 742 l 1,14,-1
 703 742 l 1,0,-1
EndSplineSet
Validated: 3073
EndChar

StartChar: uniFF0B
Encoding: 65291 65291 108
Width: 1177
VWidth: 0
Flags: W
HStem: 315 82<131.881 507 671 1032.98>
VStem: 507 164<135.037 315 397 580.431>
LayerCount: 2
Fore
SplineSet
589 587 m 128,-1,1
 671 587 671 587 671 559 c 2,2,-1
 671 397 l 1,3,-1
 988 397 l 2,4,5
 1017 397 1017 397 1033.5 385.5 c 128,-1,6
 1050 374 1050 374 1050 356 c 128,-1,7
 1050 338 1050 338 1033.5 326.5 c 128,-1,8
 1017 315 1017 315 988 315 c 2,9,-1
 671 315 l 1,10,-1
 671 157 l 2,11,12
 671 143 671 143 647.5 134.5 c 128,-1,13
 624 126 624 126 589 126 c 128,-1,14
 554 126 554 126 530.5 134.5 c 128,-1,15
 507 143 507 143 507 157 c 2,16,-1
 507 315 l 1,17,-1
 183 315 l 2,18,19
 128 315 128 315 128 356 c 128,-1,20
 128 397 128 397 183 397 c 2,21,-1
 507 397 l 1,22,-1
 507 559 l 2,23,0
 507 587 507 587 589 587 c 128,-1,1
EndSplineSet
Validated: 3073
EndChar

StartChar: uniFF0C
Encoding: 65292 65292 109
Width: 1177
VWidth: 0
Flags: W
HStem: -129 22<460.435 508.575> -6 136<485.008 635.448>
VStem: 443 291<24.4591 95.3877>
LayerCount: 2
Fore
SplineSet
591 130 m 0,0,1
 646 130 646 130 690 110.5 c 128,-1,2
 734 91 734 91 734 61 c 1,3,4
 733 35 733 35 718 4.5 c 128,-1,5
 703 -26 703 -26 674 -57 c 128,-1,6
 645 -88 645 -88 594.5 -108.5 c 128,-1,7
 544 -129 544 -129 482 -129 c 0,8,9
 460 -129 460 -129 460 -119 c 1,10,11
 461 -114 461 -114 479.5 -107 c 128,-1,12
 498 -100 498 -100 523.5 -91.5 c 128,-1,13
 549 -83 549 -83 581.5 -57.5 c 128,-1,14
 614 -32 614 -32 636 6 c 1,15,16
 624 -6 624 -6 570 -6 c 0,17,18
 524 -6 524 -6 483.5 13.5 c 128,-1,19
 443 33 443 33 443 61 c 0,20,21
 443 86 443 86 485 108 c 128,-1,22
 527 130 527 130 591 130 c 0,0,1
EndSplineSet
Validated: 3073
EndChar

StartChar: uniFF0D
Encoding: 65293 65293 110
Width: 1177
VWidth: 0
Flags: W
HStem: 315 82<131.881 1032.98>
LayerCount: 2
Fore
SplineSet
988 397 m 2,0,1
 1017 397 1017 397 1033.5 385.5 c 128,-1,2
 1050 374 1050 374 1050 356 c 128,-1,3
 1050 338 1050 338 1033.5 326.5 c 128,-1,4
 1017 315 1017 315 988 315 c 2,5,-1
 183 315 l 2,6,7
 128 315 128 315 128 356 c 128,-1,8
 128 397 128 397 183 397 c 2,9,-1
 988 397 l 2,0,1
EndSplineSet
Validated: 3073
EndChar

StartChar: uniFF0E
Encoding: 65294 65294 111
Width: 1177
VWidth: 0
Flags: W
HStem: -6 132<480.394 696.646>
VStem: 443 291<24.3217 94.8374>
LayerCount: 2
Fore
SplineSet
591 126 m 24,0,1
 649 126 649 126 691.5 106.5 c 128,-1,2
 734 87 734 87 734 59 c 128,-1,3
 734 31 734 31 691.5 12.5 c 128,-1,4
 649 -6 649 -6 591 -6 c 0,5,6
 531 -6 531 -6 487 12.5 c 128,-1,7
 443 31 443 31 443 59 c 0,8,9
 443 88 443 88 487 107 c 128,-1,10
 531 126 531 126 591 126 c 24,0,1
EndSplineSet
Validated: 3073
EndChar

StartChar: uniFF0F
Encoding: 65295 65295 112
Width: 1177
VWidth: 0
Flags: W
LayerCount: 2
Fore
SplineSet
1071 819 m 25,0,-1
 270 -77 l 1,1,-1
 106 -77 l 1,2,-1
 907 819 l 1,3,-1
 1071 819 l 25,0,-1
EndSplineSet
Validated: 3073
EndChar

StartChar: uniFF10
Encoding: 65296 65296 113
Width: 1177
VWidth: 0
Flags: W
HStem: -6 74<484.596 736.791> 675 74<459.881 711.213>
VStem: 119 164<251.267 495.453> 918 163<254.531 475.788>
LayerCount: 2
Fore
SplineSet
1071 749 m 1,0,-1
 946 629 l 1,1,2
 1081 516 1081 516 1081 373 c 0,3,4
 1081 302 1081 302 1050.5 235.5 c 128,-1,5
 1020 169 1020 169 962.5 114.5 c 128,-1,6
 905 60 905 60 811 27 c 128,-1,7
 717 -6 717 -6 600 -6 c 0,8,9
 455 -6 455 -6 332 57 c 1,10,-1
 258 0 l 1,11,-1
 96 0 l 1,12,-1
 236 120 l 1,13,14
 119 224 119 224 119 373 c 0,15,16
 119 446 119 446 148 512 c 128,-1,17
 177 578 177 578 234 631.5 c 128,-1,18
 291 685 291 685 385.5 717 c 128,-1,19
 480 749 480 749 600 749 c 0,20,21
 733 749 733 749 854 690 c 1,22,-1
 909 749 l 1,23,-1
 1071 749 l 1,0,-1
600 675 m 0,24,25
 512 675 512 675 447.5 648 c 128,-1,26
 383 621 383 621 348.5 575.5 c 128,-1,27
 314 530 314 530 298.5 480 c 128,-1,28
 283 430 283 430 283 373 c 0,29,30
 283 270 283 270 332 204 c 1,31,-1
 770 618 l 1,32,33
 698 675 698 675 600 675 c 0,24,25
412 129 m 1,34,35
 461 98 461 98 501.5 83 c 128,-1,36
 542 68 542 68 600 68 c 0,37,38
 670 68 670 68 726 86.5 c 128,-1,39
 782 105 782 105 817 135.5 c 128,-1,40
 852 166 852 166 875.5 206.5 c 128,-1,41
 899 247 899 247 908.5 288 c 128,-1,42
 918 329 918 329 918 373 c 0,43,44
 918 464 918 464 854 547 c 1,45,-1
 412 129 l 1,34,35
EndSplineSet
Validated: 3073
EndChar

StartChar: uniFF11
Encoding: 65297 65297 114
Width: 1177
VWidth: 0
Flags: W
HStem: 0 21G<591 755> 722 20G<609.747 755>
VStem: 591 164<0 568>
LayerCount: 2
Fore
SplineSet
755 742 m 25,0,-1
 755 0 l 1,1,-1
 591 0 l 1,2,-1
 591 568 l 1,3,-1
 423 568 l 1,4,-1
 634 742 l 1,5,-1
 755 742 l 25,0,-1
EndSplineSet
Validated: 3073
EndChar

StartChar: uniFF12
Encoding: 65298 65298 115
Width: 1177
VWidth: 0
Flags: W
HStem: 1 140<901 1069> 1 74<287 901> 675 74<414.748 781.153>
VStem: 905 164<75 141 495.005 596.531>
LayerCount: 2
Fore
SplineSet
590 749 m 0,0,1
 808 749 808 749 937.5 685.5 c 128,-1,2
 1067 622 1067 622 1069 539 c 1,3,4
 1067 490 1067 490 996 436.5 c 128,-1,5
 925 383 925 383 819.5 336 c 128,-1,6
 714 289 714 289 605.5 245 c 128,-1,7
 497 201 497 201 405.5 156 c 128,-1,8
 314 111 314 111 287 75 c 1,9,-1
 901 75 l 1,10,-1
 901 141 l 1,11,-1
 1069 141 l 1,12,-1
 1069 1 l 1,13,-1
 109 1 l 1,14,-1
 109 75 l 1,15,16
 136 118 136 118 228.5 169.5 c 128,-1,17
 321 221 321 221 432 268 c 128,-1,18
 543 315 543 315 651 361 c 128,-1,19
 759 407 759 407 831.5 454 c 128,-1,20
 904 501 904 501 905 539 c 1,21,22
 905 602 905 602 821.5 638.5 c 128,-1,23
 738 675 738 675 590 675 c 0,24,25
 438 675 438 675 356 628.5 c 128,-1,26
 274 582 274 582 272 507 c 1,27,-1
 109 507 l 1,28,29
 111 604 111 604 241 676 c 128,-1,30
 371 748 371 748 590 749 c 0,0,1
EndSplineSet
Validated: 3073
EndChar

StartChar: uniFF13
Encoding: 65299 65299 116
Width: 1177
VWidth: 0
Flags: W
HStem: -6 45<109.407 250.768> 433 74<696 819.344> 606 136<113 276> 669 73<276 846>
VStem: 909 160<250.884 362.51>
LayerCount: 2
Fore
SplineSet
1051 742 m 25,0,-1
 1051 669 l 1,1,-1
 696 507 l 1,2,3
 799 506 799 506 874.5 486.5 c 128,-1,4
 950 467 950 467 985.5 443.5 c 128,-1,5
 1021 420 1021 420 1042 389.5 c 128,-1,6
 1063 359 1063 359 1066 344.5 c 128,-1,7
 1069 330 1069 330 1069 319 c 0,8,9
 1069 258 1069 258 1025 207.5 c 128,-1,10
 981 157 981 157 914.5 124.5 c 128,-1,11
 848 92 848 92 756 67 c 128,-1,12
 664 42 664 42 579 28.5 c 128,-1,13
 494 15 494 15 401 7 c 128,-1,14
 308 -1 308 -1 252.5 -3.5 c 128,-1,15
 197 -6 197 -6 152 -6 c 0,16,17
 135 -6 135 -6 123 0.5 c 128,-1,18
 111 7 111 7 109 13 c 1,19,20
 109 31 109 31 143 39 c 1,21,22
 206 46 206 46 251.5 51 c 128,-1,23
 297 56 297 56 363.5 65.5 c 128,-1,24
 430 75 430 75 479.5 84 c 128,-1,25
 529 93 529 93 589 106.5 c 128,-1,26
 649 120 649 120 692 134.5 c 128,-1,27
 735 149 735 149 778.5 168.5 c 128,-1,28
 822 188 822 188 848.5 209.5 c 128,-1,29
 875 231 875 231 892 258.5 c 128,-1,30
 909 286 909 286 909 317 c 1,31,32
 903 359 903 359 849.5 395.5 c 128,-1,33
 796 432 796 432 674 433 c 1,34,35
 538 433 538 433 430 397 c 1,36,-1
 317 434 l 1,37,-1
 432 483 l 1,38,-1
 846 669 l 1,39,-1
 276 669 l 1,40,-1
 276 606 l 1,41,-1
 113 606 l 1,42,-1
 113 742 l 1,43,-1
 1051 742 l 25,0,-1
EndSplineSet
Validated: 3073
EndChar

StartChar: uniFF14
Encoding: 65300 65300 117
Width: 1177
VWidth: 0
Flags: W
HStem: 0 21G<708 871> 231 74<374 708 871 1070> 722 20G<684.517 871>
VStem: 708 163<0 231 305 603>
LayerCount: 2
Fore
SplineSet
708 603 m 1,0,-1
 374 305 l 1,1,-1
 708 305 l 1,2,-1
 708 603 l 1,0,-1
871 742 m 1,3,-1
 871 305 l 1,4,-1
 1070 305 l 1,5,-1
 1070 231 l 1,6,-1
 871 231 l 1,7,-1
 871 0 l 1,8,-1
 708 0 l 1,9,-1
 708 231 l 1,10,-1
 108 231 l 1,11,-1
 708 742 l 1,12,-1
 871 742 l 1,3,-1
EndSplineSet
Validated: 3073
EndChar

StartChar: uniFF15
Encoding: 65301 65301 118
Width: 1177
VWidth: 0
Flags: W
HStem: -6 21G<143.5 170> 434 74<471.961 818.664> 669 73<276 1051>
VStem: 113 163<434 669> 905 164<242.701 365.312>
LayerCount: 2
Fore
SplineSet
1051 742 m 25,0,-1
 1051 669 l 1,1,-1
 276 669 l 1,2,-1
 276 434 l 1,3,4
 281 437 281 437 291 442 c 128,-1,5
 301 447 301 447 338 460 c 128,-1,6
 375 473 375 473 418.5 482.5 c 128,-1,7
 462 492 462 492 535.5 500 c 128,-1,8
 609 508 609 508 690 508 c 0,9,10
 782 508 782 508 853.5 492.5 c 128,-1,11
 925 477 925 477 964 455.5 c 128,-1,12
 1003 434 1003 434 1028 406 c 128,-1,13
 1053 378 1053 378 1061 357 c 128,-1,14
 1069 336 1069 336 1069 319 c 0,15,16
 1069 257 1069 257 1023.5 206.5 c 128,-1,17
 978 156 978 156 908.5 123 c 128,-1,18
 839 90 839 90 744.5 65 c 128,-1,19
 650 40 650 40 563 27 c 128,-1,20
 476 14 476 14 384.5 6 c 128,-1,21
 293 -2 293 -2 240.5 -4 c 128,-1,22
 188 -6 188 -6 152 -6 c 0,23,24
 135 -6 135 -6 123 0.5 c 128,-1,25
 111 7 111 7 109 13 c 1,26,27
 109 31 109 31 143 39 c 1,28,29
 321 57 321 57 456.5 81 c 128,-1,30
 592 105 592 105 676 130.5 c 128,-1,31
 760 156 760 156 812.5 186.5 c 128,-1,32
 865 217 865 217 885 245.5 c 128,-1,33
 905 274 905 274 905 307 c 1,34,35
 903 359 903 359 849.5 396 c 128,-1,36
 796 433 796 433 674 434 c 1,37,38
 546 434 546 434 447.5 405 c 128,-1,39
 349 376 349 376 297 337 c 1,40,-1
 113 379 l 1,41,-1
 113 742 l 1,42,-1
 1051 742 l 25,0,-1
EndSplineSet
Validated: 3073
EndChar

StartChar: uniFF16
Encoding: 65302 65302 119
Width: 1177
VWidth: 0
Flags: W
HStem: -6 74<427.151 761.144> 376 74<431.436 758.184> 695 54<696.171 922.082>
VStem: 109 163<163.752 277.777> 905 164<162.596 278.626>
LayerCount: 2
Fore
SplineSet
272 220 m 24,0,1
 272 157 272 157 367.5 112.5 c 128,-1,2
 463 68 463 68 602 68 c 0,3,4
 732 68 732 68 818.5 113.5 c 128,-1,5
 905 159 905 159 905 220 c 0,6,7
 905 282 905 282 819 329 c 128,-1,8
 733 376 733 376 602 376 c 0,9,10
 463 376 463 376 367.5 330 c 128,-1,11
 272 284 272 284 272 220 c 24,0,1
924 725 m 0,12,13
 924 695 924 695 827 695 c 1,14,15
 723 690 723 690 605 641.5 c 128,-1,16
 487 593 487 593 402.5 523.5 c 128,-1,17
 318 454 318 454 305 391 c 1,18,19
 308 392 308 392 325 400 c 128,-1,20
 342 408 342 408 347.5 410.5 c 128,-1,21
 353 413 353 413 372 420 c 128,-1,22
 391 427 391 427 403.5 429.5 c 128,-1,23
 416 432 416 432 439 437 c 128,-1,24
 462 442 462 442 484 444 c 128,-1,25
 506 446 506 446 537 448 c 128,-1,26
 568 450 568 450 602 450 c 0,27,28
 812 450 812 450 934.5 379.5 c 128,-1,29
 1057 309 1057 309 1069 220 c 1,30,31
 1069 128 1069 128 931 61 c 128,-1,32
 793 -6 793 -6 602 -6 c 0,33,34
 474 -6 474 -6 362 25 c 128,-1,35
 250 56 250 56 182.5 108 c 128,-1,36
 115 160 115 160 109 220 c 1,37,38
 109 268 109 268 110 290.5 c 128,-1,39
 111 313 111 313 118 347.5 c 128,-1,40
 125 382 125 382 140 407 c 128,-1,41
 155 432 155 432 182.5 466 c 128,-1,42
 210 500 210 500 252 540 c 0,43,44
 342 626 342 626 508.5 687.5 c 128,-1,45
 675 749 675 749 813 749 c 1,46,47
 924 748 924 748 924 725 c 0,12,13
EndSplineSet
Validated: 3073
EndChar

StartChar: uniFF17
Encoding: 65303 65303 120
Width: 1177
VWidth: 0
Flags: W
HStem: 0 21G<498 672> 588 154<109 272> 669 73<272 905>
VStem: 109 163<588 669> 498 174<0 210.75> 905 164<535.953 669>
LayerCount: 2
Fore
SplineSet
1069 742 m 25,0,-1
 1069 545 l 1,1,2
 1063 522 1063 522 1019.5 487 c 128,-1,3
 976 452 976 452 919 413 c 128,-1,4
 862 374 862 374 805.5 330.5 c 128,-1,5
 749 287 749 287 710.5 236 c 128,-1,6
 672 185 672 185 672 138 c 2,7,-1
 672 0 l 1,8,-1
 498 0 l 1,9,-1
 498 138 l 2,10,11
 498 186 498 186 522.5 229.5 c 128,-1,12
 547 273 547 273 592 311.5 c 128,-1,13
 637 350 637 350 685 384.5 c 128,-1,14
 733 419 733 419 796.5 466 c 128,-1,15
 860 513 860 513 905 556 c 1,16,-1
 905 669 l 1,17,-1
 272 669 l 1,18,-1
 272 588 l 1,19,-1
 109 588 l 1,20,-1
 109 742 l 1,21,-1
 1069 742 l 25,0,-1
EndSplineSet
Validated: 3073
EndChar

StartChar: uniFF18
Encoding: 65304 65304 121
Width: 1177
VWidth: 0
Flags: W
HStem: -6 73<417.64 761.809> 349 73<434.263 744.822> 676 73<438.086 741.372>
VStem: 109 163<152.934 259.112> 152 163<497.393 598.828> 862 164<497.58 598.828> 905 164<152.934 260.544>
LayerCount: 2
Fore
SplineSet
272 206 m 24,0,1
 272 146 272 146 367.5 106.5 c 128,-1,2
 463 67 463 67 590 67 c 128,-1,3
 717 67 717 67 811 106.5 c 128,-1,4
 905 146 905 146 905 206 c 0,5,6
 905 267 905 267 811 308 c 128,-1,7
 717 349 717 349 590 349 c 0,8,9
 462 349 462 349 367 308 c 128,-1,10
 272 267 272 267 272 206 c 24,0,1
315 548 m 152,-1,12
 315 494 315 494 397 458 c 128,-1,13
 479 422 479 422 590 422 c 128,-1,14
 701 422 701 422 781.5 458 c 128,-1,15
 862 494 862 494 862 548 c 128,-1,16
 862 602 862 602 781.5 639 c 128,-1,17
 701 676 701 676 590 676 c 128,-1,18
 479 676 479 676 397 639 c 128,-1,11
 315 602 315 602 315 548 c 152,-1,12
590 749 m 152,-1,20
 767 749 767 749 896.5 691 c 128,-1,21
 1026 633 1026 633 1026 548 c 0,22,23
 1026 442 1026 442 831 385 c 1,24,25
 1069 322 1069 322 1069 206 c 0,26,27
 1069 145 1069 145 1001.5 96 c 128,-1,28
 934 47 934 47 824.5 20.5 c 128,-1,29
 715 -6 715 -6 590 -6 c 128,-1,30
 465 -6 465 -6 355 20.5 c 128,-1,31
 245 47 245 47 177 96 c 128,-1,32
 109 145 109 145 109 206 c 0,33,34
 109 323 109 323 344 385 c 1,35,36
 152 441 152 441 152 548 c 0,37,38
 152 633 152 633 282.5 691 c 128,-1,19
 413 749 413 749 590 749 c 152,-1,20
EndSplineSet
Validated: 3073
EndChar

StartChar: uniFF19
Encoding: 65305 65305 122
Width: 1177
VWidth: 0
Flags: W
HStem: -6 52<257.328 482.934> 287 73<421.651 744.525> 675 74<421.072 745.39>
VStem: 109 163<459.19 578.25> 905 164<461.41 575.653>
LayerCount: 2
Fore
SplineSet
905 519 m 24,0,1
 905 584 905 584 808 629.5 c 128,-1,2
 711 675 711 675 578 675 c 0,3,4
 451 675 451 675 361.5 629 c 128,-1,5
 272 583 272 583 272 519 c 0,6,7
 272 454 272 454 361 407 c 128,-1,8
 450 360 450 360 578 360 c 0,9,10
 712 360 712 360 808.5 406.5 c 128,-1,11
 905 453 905 453 905 519 c 24,0,1
578 749 m 24,12,13
 772 749 772 749 916 680 c 128,-1,14
 1060 611 1060 611 1069 519 c 1,15,16
 1069 473 1069 473 1067.5 449.5 c 128,-1,17
 1066 426 1066 426 1059 393.5 c 128,-1,18
 1052 361 1052 361 1036.5 336 c 128,-1,19
 1021 311 1021 311 994 278 c 128,-1,20
 967 245 967 245 924 205 c 1,21,22
 834 118 834 118 669 56 c 128,-1,23
 504 -6 504 -6 367 -6 c 1,24,25
 256 -5 256 -5 256 18 c 0,26,27
 256 46 256 46 352 46 c 1,28,29
 456 51 456 51 573.5 98 c 128,-1,30
 691 145 691 145 776 213 c 128,-1,31
 861 281 861 281 874 344 c 1,32,33
 872 343 872 343 856.5 336 c 128,-1,34
 841 329 841 329 836.5 327 c 128,-1,35
 832 325 832 325 816 318.5 c 128,-1,36
 800 312 800 312 790 310 c 128,-1,37
 780 308 780 308 761.5 303 c 128,-1,38
 743 298 743 298 726 296 c 128,-1,39
 709 294 709 294 685.5 291.5 c 128,-1,40
 662 289 662 289 635.5 288 c 128,-1,41
 609 287 609 287 578 287 c 0,42,43
 368 287 368 287 244.5 358.5 c 128,-1,44
 121 430 121 430 109 519 c 1,45,46
 109 580 109 580 172.5 633 c 128,-1,47
 236 686 236 686 344.5 717.5 c 128,-1,48
 453 749 453 749 578 749 c 24,12,13
EndSplineSet
Validated: 3073
EndChar

StartChar: uniFF1A
Encoding: 65306 65306 123
Width: 1177
VWidth: 0
Flags: W
HStem: -6 132<479.137 697.881> 337 132<480.394 696.646>
VStem: 443 291<24.4098 95.5902 367.322 437.837>
LayerCount: 2
Fore
SplineSet
591 469 m 24,0,1
 649 469 649 469 691.5 449.5 c 128,-1,2
 734 430 734 430 734 402 c 128,-1,3
 734 374 734 374 691.5 355.5 c 128,-1,4
 649 337 649 337 591 337 c 0,5,6
 531 337 531 337 487 355.5 c 128,-1,7
 443 374 443 374 443 402 c 0,8,9
 443 431 443 431 487 450 c 128,-1,10
 531 469 531 469 591 469 c 24,0,1
591 126 m 24,11,12
 649 126 649 126 691.5 107 c 128,-1,13
 734 88 734 88 734 60 c 128,-1,14
 734 32 734 32 691.5 13 c 128,-1,15
 649 -6 649 -6 591 -6 c 0,16,17
 531 -6 531 -6 487 12.5 c 128,-1,18
 443 31 443 31 443 60 c 128,-1,19
 443 89 443 89 487 107.5 c 128,-1,20
 531 126 531 126 591 126 c 24,11,12
EndSplineSet
Validated: 3073
EndChar

StartChar: uniFF1B
Encoding: 65307 65307 124
Width: 1177
VWidth: 0
Flags: W
HStem: -129 22<462.435 510.575> -6 136<487.008 637.448> 337 132<478.394 694.646>
VStem: 441 295
LayerCount: 2
Fore
SplineSet
593 130 m 0,0,1
 648 130 648 130 692 110.5 c 128,-1,2
 736 91 736 91 736 61 c 1,3,4
 735 35 735 35 720 4.5 c 128,-1,5
 705 -26 705 -26 676 -57 c 128,-1,6
 647 -88 647 -88 596.5 -108.5 c 128,-1,7
 546 -129 546 -129 484 -129 c 0,8,9
 462 -129 462 -129 462 -119 c 1,10,11
 463 -114 463 -114 481.5 -107 c 128,-1,12
 500 -100 500 -100 525.5 -91.5 c 128,-1,13
 551 -83 551 -83 583.5 -57.5 c 128,-1,14
 616 -32 616 -32 638 6 c 1,15,16
 626 -6 626 -6 572 -6 c 0,17,18
 526 -6 526 -6 485.5 13.5 c 128,-1,19
 445 33 445 33 445 61 c 0,20,21
 445 86 445 86 487 108 c 128,-1,22
 529 130 529 130 593 130 c 0,0,1
589 469 m 24,23,24
 647 469 647 469 689.5 449.5 c 128,-1,25
 732 430 732 430 732 402 c 128,-1,26
 732 374 732 374 689.5 355.5 c 128,-1,27
 647 337 647 337 589 337 c 0,28,29
 529 337 529 337 485 355.5 c 128,-1,30
 441 374 441 374 441 402 c 0,31,32
 441 431 441 431 485 450 c 128,-1,33
 529 469 529 469 589 469 c 24,23,24
EndSplineSet
Validated: 3073
EndChar

StartChar: uniFF1C
Encoding: 65308 65308 125
Width: 1177
VWidth: 0
Flags: W
LayerCount: 2
Fore
SplineSet
1020 819 m 25,0,-1
 1020 702 l 1,1,-1
 391 371 l 1,2,-1
 1020 29 l 1,3,-1
 1020 -88 l 1,4,-1
 158 371 l 1,5,-1
 1020 819 l 25,0,-1
EndSplineSet
Validated: 3073
EndChar

StartChar: uniFF1D
Encoding: 65309 65309 126
Width: 1177
VWidth: 0
Flags: W
HStem: 203 82<131.881 1032.98> 428 82<131.881 1032.98>
LayerCount: 2
Fore
SplineSet
988 285 m 2,0,1
 1017 285 1017 285 1033.5 273.5 c 128,-1,2
 1050 262 1050 262 1050 244 c 128,-1,3
 1050 226 1050 226 1033.5 214.5 c 128,-1,4
 1017 203 1017 203 988 203 c 2,5,-1
 183 203 l 2,6,7
 128 203 128 203 128 244 c 128,-1,8
 128 285 128 285 183 285 c 2,9,-1
 988 285 l 2,0,1
988 510 m 2,10,11
 1017 510 1017 510 1033.5 498.5 c 128,-1,12
 1050 487 1050 487 1050 469 c 128,-1,13
 1050 451 1050 451 1033.5 439.5 c 128,-1,14
 1017 428 1017 428 988 428 c 2,15,-1
 183 428 l 2,16,17
 128 428 128 428 128 469 c 128,-1,18
 128 510 128 510 183 510 c 2,19,-1
 988 510 l 2,10,11
EndSplineSet
Validated: 3073
EndChar

StartChar: uniFF1E
Encoding: 65310 65310 127
Width: 1177
VWidth: 0
Flags: W
LayerCount: 2
Fore
SplineSet
158 819 m 25,0,-1
 1020 371 l 1,1,-1
 158 -88 l 1,2,-1
 158 29 l 1,3,-1
 786 371 l 1,4,-1
 158 702 l 1,5,-1
 158 819 l 25,0,-1
EndSplineSet
Validated: 3073
EndChar

StartChar: uniFF1F
Encoding: 65311 65311 128
Width: 1177
VWidth: 0
Flags: W
HStem: -6 132<479.394 695.646> 180 249<555.239 667.973> 677 72<389.838 790.202>
VStem: 506 164<185.865 367.315> 905 164<537.323 604.041>
LayerCount: 2
Fore
SplineSet
590 126 m 24,0,1
 648 126 648 126 690.5 106.5 c 128,-1,2
 733 87 733 87 733 59 c 128,-1,3
 733 31 733 31 690.5 12.5 c 128,-1,4
 648 -6 648 -6 590 -6 c 0,5,6
 530 -6 530 -6 486 12.5 c 128,-1,7
 442 31 442 31 442 59 c 0,8,9
 442 88 442 88 486 107 c 128,-1,10
 530 126 530 126 590 126 c 24,0,1
590 749 m 128,-1,12
 823 749 823 749 946 694.5 c 128,-1,13
 1069 640 1069 640 1069 561 c 0,14,15
 1069 528 1069 528 1006.5 492.5 c 128,-1,16
 944 457 944 457 869.5 433 c 128,-1,17
 795 409 795 409 732.5 385 c 128,-1,18
 670 361 670 361 670 348 c 2,19,-1
 670 205 l 2,20,21
 670 180 670 180 590 180 c 0,22,23
 506 180 506 180 506 205 c 2,24,-1
 506 376 l 1,25,26
 512 393 512 393 612 429 c 128,-1,27
 712 465 712 465 808.5 502.5 c 128,-1,28
 905 540 905 540 905 561 c 0,29,30
 905 563 905 563 904.5 567.5 c 128,-1,31
 904 572 904 572 897.5 584 c 128,-1,32
 891 596 891 596 880.5 607 c 128,-1,33
 870 618 870 618 846 631.5 c 128,-1,34
 822 645 822 645 790.5 654.5 c 128,-1,35
 759 664 759 664 706.5 670.5 c 128,-1,36
 654 677 654 677 590 677 c 0,37,38
 501 677 501 677 435.5 665 c 128,-1,39
 370 653 370 653 340.5 636 c 128,-1,40
 311 619 311 619 293.5 602 c 128,-1,41
 276 585 276 585 274 573 c 2,42,-1
 272 561 l 1,43,-1
 109 561 l 1,44,45
 109 640 109 640 233 694.5 c 128,-1,11
 357 749 357 749 590 749 c 128,-1,12
EndSplineSet
Validated: 3073
EndChar

StartChar: uniFF20
Encoding: 65312 65312 129
Width: 1177
VWidth: 0
Flags: W
HStem: 0 71<392.875 485> 161 71<502.94 652.57> 432 74<508.001 644.981> 589 70<435.53 720.564>
VStem: 63 160<241.599 415.913> 336 131<274.427 392.166> 682 133<262.206 394.359> 954 160<258.523 411.484>
LayerCount: 2
Fore
SplineSet
578 659 m 128,-1,1
 689 659 689 659 790.5 628.5 c 128,-1,2
 892 598 892 598 961.5 550.5 c 128,-1,3
 1031 503 1031 503 1072.5 445.5 c 128,-1,4
 1114 388 1114 388 1114 333 c 0,5,6
 1114 280 1114 280 1072.5 222.5 c 128,-1,7
 1031 165 1031 165 963 123 c 1,8,-1
 848 144 l 1,9,10
 830 151 830 151 813.5 159.5 c 128,-1,11
 797 168 797 168 786 176 c 128,-1,12
 775 184 775 184 766.5 191 c 128,-1,13
 758 198 758 198 753 202 c 2,14,-1
 748 207 l 1,15,16
 733 182 733 182 681.5 171.5 c 128,-1,17
 630 161 630 161 578 161 c 0,18,19
 491 161 491 161 413.5 220.5 c 128,-1,20
 336 280 336 280 336 333 c 0,21,22
 336 387 336 387 413 446.5 c 128,-1,23
 490 506 490 506 578 506 c 0,24,25
 638 506 638 506 685.5 488.5 c 128,-1,26
 733 471 733 471 759.5 444 c 128,-1,27
 786 417 786 417 799.5 388.5 c 128,-1,28
 813 360 813 360 815 333 c 1,29,30
 817 274 817 274 832.5 250 c 128,-1,31
 848 226 848 226 901 219 c 1,32,33
 954 274 954 274 954 333 c 0,34,35
 954 391 954 391 904.5 450 c 128,-1,36
 855 509 855 509 766.5 549 c 128,-1,37
 678 589 678 589 578 589 c 0,38,39
 429 589 429 589 326 507.5 c 128,-1,40
 223 426 223 426 223 333 c 0,41,42
 223 244 223 244 306.5 157.5 c 128,-1,43
 390 71 390 71 485 71 c 1,44,-1
 602 119 l 1,45,-1
 883 0 l 1,46,-1
 506 0 l 2,47,48
 412 0 412 0 327 31.5 c 128,-1,49
 242 63 242 63 185.5 112 c 128,-1,50
 129 161 129 161 96 219.5 c 128,-1,51
 63 278 63 278 63 333 c 128,-1,52
 63 388 63 388 101 445.5 c 128,-1,53
 139 503 139 503 204.5 550.5 c 128,-1,54
 270 598 270 598 368.5 628.5 c 128,-1,0
 467 659 467 659 578 659 c 128,-1,1
578 432 m 0,55,56
 530 432 530 432 498.5 402 c 128,-1,57
 467 372 467 372 467 333 c 0,58,59
 467 291 467 291 494 261.5 c 128,-1,60
 521 232 521 232 578 232 c 0,61,62
 682 232 682 232 682 333 c 0,63,64
 682 372 682 372 653.5 402 c 128,-1,65
 625 432 625 432 578 432 c 0,55,56
EndSplineSet
Validated: 3073
EndChar

StartChar: uniFF21
Encoding: 65313 65313 130
Width: 1177
VWidth: 0
Flags: W
HStem: 0 21G<75 239 903.857 1103> 669 72<239 435>
VStem: 75 164<0 268 352 669>
LayerCount: 2
Fore
SplineSet
435 669 m 1,0,-1
 239 669 l 1,1,-1
 239 352 l 1,2,-1
 601 419 l 1,3,-1
 435 669 l 1,0,-1
75 0 m 25,4,-1
 75 741 l 1,5,-1
 548 741 l 1,6,-1
 1103 0 l 1,7,-1
 919 0 l 1,8,-1
 654 350 l 1,9,-1
 239 268 l 1,10,-1
 239 0 l 1,11,-1
 75 0 l 25,4,-1
EndSplineSet
Validated: 3073
EndChar

StartChar: uniFF22
Encoding: 65314 65314 131
Width: 1177
VWidth: 0
Flags: W
HStem: 0 74<244 811.812> 369 73<244 724.632> 670 72<244 755.497>
VStem: 80 164<74 369 442 670> 811 164<514.166 620.229> 934 164<151.961 268.839>
LayerCount: 2
Fore
SplineSet
934 206 m 0,0,1
 934 277 934 277 846 323 c 128,-1,2
 758 369 758 369 649 369 c 2,3,-1
 244 369 l 1,4,-1
 244 74 l 1,5,-1
 676 74 l 2,6,7
 712 74 712 74 754.5 82 c 128,-1,8
 797 90 797 90 838.5 105 c 128,-1,9
 880 120 880 120 907 146.5 c 128,-1,10
 934 173 934 173 934 206 c 0,0,1
811 563 m 0,11,12
 811 604 811 604 772.5 637 c 128,-1,13
 734 670 734 670 664 670 c 2,14,-1
 244 670 l 1,15,-1
 244 442 l 1,16,-1
 641 442 l 2,17,18
 699 442 699 442 755 483.5 c 128,-1,19
 811 525 811 525 811 563 c 0,11,12
641 742 m 2,20,21
 818 742 818 742 896.5 688.5 c 128,-1,22
 975 635 975 635 975 563 c 0,23,24
 975 518 975 518 920 469.5 c 128,-1,25
 865 421 865 421 821 416 c 1,26,-1
 821 401 l 1,27,28
 942 379 942 379 1020 322.5 c 128,-1,29
 1098 266 1098 266 1098 206 c 0,30,31
 1098 115 1098 115 984 57.5 c 128,-1,32
 870 0 870 0 680 0 c 2,33,-1
 80 0 l 1,34,-1
 80 742 l 1,35,-1
 641 742 l 2,20,21
EndSplineSet
Validated: 3073
EndChar

StartChar: uniFF23
Encoding: 65315 65315 132
Width: 1177
VWidth: 0
Flags: W
HStem: 0 74<542.685 1005> 670 72<491.433 1005>
VStem: 85 164<307.797 485.936>
LayerCount: 2
Fore
SplineSet
1005 742 m 1,0,-1
 1093 670 l 1,1,-1
 624 670 l 2,2,3
 538 670 538 670 450.5 632.5 c 128,-1,4
 363 595 363 595 306 533 c 128,-1,5
 249 471 249 471 249 406 c 0,6,7
 249 322 249 322 310 245 c 128,-1,8
 371 168 371 168 472.5 121 c 128,-1,9
 574 74 574 74 685 74 c 2,10,-1
 1005 74 l 1,11,-1
 1093 0 l 1,12,-1
 712 0 l 2,13,14
 438 0 438 0 261.5 115 c 128,-1,15
 85 230 85 230 85 406 c 0,16,17
 85 463 85 463 126 523 c 128,-1,18
 167 583 167 583 235 631.5 c 128,-1,19
 303 680 303 680 399 711 c 128,-1,20
 495 742 495 742 597 742 c 2,21,-1
 1005 742 l 1,0,-1
EndSplineSet
Validated: 3073
EndChar

StartChar: uniFF24
Encoding: 65316 65316 133
Width: 1177
VWidth: 0
Flags: W
HStem: 0 74<248 682.519> 670 72<248 693.782>
VStem: 84 164<74 670> 930 164<269.263 456.326>
LayerCount: 2
Fore
SplineSet
678 742 m 2,0,1
 749 742 749 742 841 694 c 128,-1,2
 933 646 933 646 997 583 c 0,3,4
 1094 487 1094 487 1094 353 c 0,5,6
 1094 302 1094 302 1067 243 c 128,-1,7
 1040 184 1040 184 979 131 c 0,8,9
 922 82 922 82 823.5 41 c 128,-1,10
 725 0 725 0 678 0 c 2,11,-1
 84 0 l 1,12,-1
 84 742 l 1,13,-1
 678 742 l 2,0,1
930 353 m 0,14,15
 930 395 930 395 912 446 c 128,-1,16
 894 497 894 497 852 539 c 0,17,18
 799 591 799 591 728.5 630.5 c 128,-1,19
 658 670 658 670 602 670 c 2,20,-1
 248 670 l 1,21,-1
 248 74 l 1,22,-1
 602 74 l 2,23,24
 639 74 639 74 713.5 110 c 128,-1,25
 788 146 788 146 838 187 c 1,26,27
 930 265 930 265 930 353 c 0,14,15
EndSplineSet
Validated: 3073
EndChar

StartChar: uniFF25
Encoding: 65317 65317 134
Width: 1177
VWidth: 0
Flags: W
HStem: 0 74<249 1005> 364 73<249 751> 670 72<249 1005>
VStem: 85 164<74 364 437 670>
LayerCount: 2
Fore
SplineSet
1005 742 m 25,0,-1
 1093 670 l 1,1,-1
 249 670 l 1,2,-1
 249 437 l 1,3,-1
 751 437 l 1,4,-1
 839 364 l 1,5,-1
 249 364 l 1,6,-1
 249 74 l 1,7,-1
 1005 74 l 1,8,-1
 1093 0 l 1,9,-1
 85 0 l 1,10,-1
 85 742 l 1,11,-1
 1005 742 l 25,0,-1
EndSplineSet
Validated: 3073
EndChar

StartChar: uniFF26
Encoding: 65318 65318 135
Width: 1177
VWidth: 0
Flags: W
HStem: 0 21G<85 249> 374 72<249 751> 670 72<249 1005>
VStem: 85 164<0 374 446 670>
LayerCount: 2
Fore
SplineSet
1005 742 m 25,0,-1
 1093 670 l 1,1,-1
 249 670 l 1,2,-1
 249 446 l 1,3,-1
 751 446 l 1,4,-1
 839 374 l 1,5,-1
 249 374 l 1,6,-1
 249 0 l 1,7,-1
 85 0 l 1,8,-1
 85 742 l 1,9,-1
 1005 742 l 25,0,-1
EndSplineSet
Validated: 3073
EndChar

StartChar: uniFF27
Encoding: 65319 65319 136
Width: 1177
VWidth: 0
Flags: W
HStem: 0 74<467.287 929> 388 75<609 863> 670 72<453.981 996>
VStem: 85 164<267.992 487.434>
LayerCount: 2
Fore
SplineSet
996 742 m 25,0,-1
 1084 670 l 1,1,-1
 601 670 l 1,2,3
 502 667 502 667 430.5 639.5 c 128,-1,4
 359 612 359 612 321.5 568 c 128,-1,5
 284 524 284 524 267 477.5 c 128,-1,6
 250 431 250 431 249 379 c 1,7,8
 250 336 250 336 261.5 295 c 128,-1,9
 273 254 273 254 301 213 c 128,-1,10
 329 172 329 172 370 142 c 128,-1,11
 411 112 411 112 476.5 93 c 128,-1,12
 542 74 542 74 624 74 c 2,13,-1
 929 74 l 1,14,-1
 863 388 l 1,15,-1
 609 388 l 1,16,-1
 548 463 l 1,17,-1
 1000 463 l 1,18,-1
 1093 74 l 1,19,-1
 1093 0 l 1,20,-1
 624 0 l 2,21,22
 494 0 494 0 388 33.5 c 128,-1,23
 282 67 282 67 217.5 122 c 128,-1,24
 153 177 153 177 119 243 c 128,-1,25
 85 309 85 309 85 379 c 0,26,27
 85 446 85 446 116 509 c 128,-1,28
 147 572 147 572 207 625 c 128,-1,29
 267 678 267 678 366 710 c 128,-1,30
 465 742 465 742 589 742 c 2,31,-1
 996 742 l 25,0,-1
EndSplineSet
Validated: 3073
EndChar

StartChar: uniFF28
Encoding: 65320 65320 137
Width: 1177
VWidth: 0
Flags: W
HStem: 0 21G<85 249 929 1093> 364 73<249 929> 722 20G<85 249 929 1093>
VStem: 85 164<0 364 437 742> 929 164<0 364 437 742>
LayerCount: 2
Fore
SplineSet
929 437 m 1,0,-1
 929 742 l 1,1,-1
 1093 742 l 1,2,-1
 1093 0 l 1,3,-1
 929 0 l 1,4,-1
 929 364 l 1,5,-1
 249 364 l 1,6,-1
 249 0 l 1,7,-1
 85 0 l 1,8,-1
 85 742 l 1,9,-1
 249 742 l 1,10,-1
 249 437 l 1,11,-1
 929 437 l 1,0,-1
EndSplineSet
Validated: 3073
EndChar

StartChar: uniFF29
Encoding: 65321 65321 138
Width: 1177
VWidth: 0
Flags: W
HStem: 0 74<173 503 667 1005> 670 72<173 503 667 1005>
VStem: 503 164<74 670>
LayerCount: 2
Fore
SplineSet
1005 742 m 25,0,-1
 1093 670 l 1,1,-1
 667 670 l 1,2,-1
 667 74 l 1,3,-1
 1005 74 l 1,4,-1
 1093 0 l 1,5,-1
 173 0 l 1,6,-1
 85 74 l 1,7,-1
 503 74 l 1,8,-1
 503 670 l 1,9,-1
 173 670 l 1,10,-1
 85 742 l 1,11,-1
 1005 742 l 25,0,-1
EndSplineSet
Validated: 3073
EndChar

StartChar: uniFF2A
Encoding: 65322 65322 139
Width: 1177
VWidth: 0
Flags: W
HStem: -4 73<352.304 654.705> 669 72<173 751 914 1005>
VStem: 85 164<155.371 247> 751 163<149.762 669>
LayerCount: 2
Fore
SplineSet
1005 741 m 25,0,-1
 1093 669 l 1,1,-1
 914 669 l 1,2,-1
 914 247 l 2,3,4
 914 -4 914 -4 505 -4 c 0,5,6
 288 -4 288 -4 186.5 64 c 128,-1,7
 85 132 85 132 85 247 c 1,8,-1
 249 247 l 1,9,10
 249 151 249 151 313 110 c 128,-1,11
 377 69 377 69 505 69 c 0,12,13
 632 69 632 69 691.5 109.5 c 128,-1,14
 751 150 751 150 751 247 c 2,15,-1
 751 669 l 1,16,-1
 173 669 l 1,17,-1
 85 741 l 1,18,-1
 1005 741 l 25,0,-1
EndSplineSet
Validated: 3073
EndChar

StartChar: uniFF2B
Encoding: 65323 65323 140
Width: 1177
VWidth: 0
Flags: W
HStem: 0 21G<85 249 901.67 1093> 364 73<249 466> 722 20G<85 249 875.279 1070>
VStem: 85 164<0 364 437 742>
LayerCount: 2
Fore
SplineSet
1070 742 m 1,0,-1
 593 401 l 1,1,-1
 1093 0 l 1,2,-1
 927 0 l 1,3,-1
 466 364 l 1,4,-1
 249 364 l 1,5,-1
 249 0 l 1,6,-1
 85 0 l 1,7,-1
 85 742 l 1,8,-1
 249 742 l 1,9,-1
 249 437 l 1,10,-1
 466 437 l 1,11,-1
 904 742 l 1,12,-1
 1070 742 l 1,0,-1
EndSplineSet
Validated: 3073
EndChar

StartChar: uniFF2C
Encoding: 65324 65324 141
Width: 1177
VWidth: 0
Flags: W
HStem: 0 74<249 1005> 722 20G<85 249>
VStem: 85 164<74 742>
LayerCount: 2
Fore
SplineSet
249 742 m 25,0,-1
 249 74 l 1,1,-1
 1005 74 l 1,2,-1
 1093 0 l 1,3,-1
 85 0 l 1,4,-1
 85 742 l 1,5,-1
 249 742 l 25,0,-1
EndSplineSet
Validated: 3073
EndChar

StartChar: uniFF2D
Encoding: 65325 65325 142
Width: 1177
VWidth: 0
Flags: W
HStem: 0 21G<85 249 929 1093> 721 20G<85 273.286 904.714 1093>
VStem: 85 164<0 615> 929 164<0 615>
LayerCount: 2
Fore
SplineSet
1093 741 m 25,0,-1
 1093 0 l 1,1,-1
 929 0 l 1,2,-1
 929 615 l 1,3,-1
 589 339 l 1,4,-1
 249 615 l 1,5,-1
 249 0 l 1,6,-1
 85 0 l 1,7,-1
 85 741 l 1,8,-1
 249 741 l 1,9,-1
 589 461 l 1,10,-1
 929 741 l 1,11,-1
 1093 741 l 25,0,-1
EndSplineSet
Validated: 3073
EndChar

StartChar: uniFF2E
Encoding: 65326 65326 143
Width: 1177
VWidth: 0
Flags: W
HStem: 0 21G<85 249 906.333 1093> 722 20G<85 271.705 929 1093>
VStem: 85 164<0 600> 929 164<143 742>
LayerCount: 2
Fore
SplineSet
1093 742 m 25,0,-1
 1093 0 l 1,1,-1
 929 0 l 1,2,-1
 249 600 l 1,3,-1
 249 0 l 1,4,-1
 85 0 l 1,5,-1
 85 742 l 1,6,-1
 249 742 l 1,7,-1
 929 143 l 1,8,-1
 929 742 l 1,9,-1
 1093 742 l 25,0,-1
EndSplineSet
Validated: 3073
EndChar

StartChar: uniFF2F
Encoding: 65327 65327 144
Width: 1177
VWidth: 0
Flags: W
HStem: -6 72<438.244 739.888> 677 72<450.157 742.863>
VStem: 66 174<258.106 473.104> 938 174<257.888 482.241>
LayerCount: 2
Fore
SplineSet
590 677 m 3,0,1
 523 677 523 677 467.5 660.5 c 128,-1,2
 412 644 412 644 375 616.5 c 128,-1,3
 338 589 338 589 310.5 556.5 c 128,-1,4
 283 524 283 524 268.5 488.5 c 128,-1,5
 254 453 254 453 247 423.5 c 128,-1,6
 240 394 240 394 240 370 c 0,7,8
 240 326 240 326 250 285 c 128,-1,9
 260 244 260 244 285 203 c 128,-1,10
 310 162 310 162 348.5 132.5 c 128,-1,11
 387 103 387 103 449 84.5 c 128,-1,12
 511 66 511 66 590 66 c 0,13,14
 668 66 668 66 730 85 c 128,-1,15
 792 104 792 104 830 134 c 128,-1,16
 868 164 868 164 893.5 204.5 c 128,-1,17
 919 245 919 245 928.5 285.5 c 128,-1,18
 938 326 938 326 938 370 c 128,-1,19
 938 414 938 414 929 454.5 c 128,-1,20
 920 495 920 495 895.5 537 c 128,-1,21
 871 579 871 579 833.5 609 c 128,-1,22
 796 639 796 639 733 658 c 128,-1,23
 670 677 670 677 590 677 c 3,0,1
590 749 m 3,24,25
 692 749 692 749 779 726.5 c 128,-1,26
 866 704 866 704 926 666.5 c 128,-1,27
 986 629 986 629 1029 579.5 c 128,-1,28
 1072 530 1072 530 1092 477 c 128,-1,29
 1112 424 1112 424 1112 370 c 0,30,31
 1112 301 1112 301 1079.5 235.5 c 128,-1,32
 1047 170 1047 170 985.5 115.5 c 128,-1,33
 924 61 924 61 821 27.5 c 128,-1,34
 718 -6 718 -6 590 -6 c 0,35,36
 461 -6 461 -6 358 27 c 128,-1,37
 255 60 255 60 193 115 c 128,-1,38
 131 170 131 170 98.5 235.5 c 128,-1,39
 66 301 66 301 66 370 c 0,40,41
 66 438 66 438 99.5 504 c 128,-1,42
 133 570 133 570 195.5 625.5 c 128,-1,43
 258 681 258 681 360.5 715 c 128,-1,44
 463 749 463 749 590 749 c 3,24,25
EndSplineSet
Validated: 3073
EndChar

StartChar: uniFF30
Encoding: 65328 65328 145
Width: 1177
VWidth: 0
Flags: W
HStem: 0 21G<106 270> 344 74<270 823.625> 670 72<270 822.992>
VStem: 106 164<0 344 418 670> 907 164<487.202 603.695>
LayerCount: 2
Fore
SplineSet
907 548 m 24,0,1
 907 596 907 596 851 633 c 128,-1,2
 795 670 795 670 707 670 c 2,3,-1
 270 670 l 1,4,-1
 270 418 l 1,5,-1
 707 418 l 2,6,7
 799 418 799 418 853 457 c 128,-1,8
 907 496 907 496 907 548 c 24,0,1
737 742 m 26,9,10
 883 742 883 742 977 684 c 128,-1,11
 1071 626 1071 626 1071 548 c 0,12,13
 1071 467 1071 467 977.5 405.5 c 128,-1,14
 884 344 884 344 737 344 c 2,15,-1
 270 344 l 1,16,-1
 270 0 l 1,17,-1
 106 0 l 1,18,-1
 106 742 l 1,19,-1
 737 742 l 26,9,10
EndSplineSet
Validated: 3073
EndChar

StartChar: uniFF31
Encoding: 65329 65329 146
Width: 1177
VWidth: 0
Flags: W
HStem: -13 86<876 1015> -13 73<388.593 689.475> 156 69<488 613> 678 74<403.757 694.654>
VStem: 40 164<254.367 484.45> 878 163<241.733 488.45>
LayerCount: 2
Fore
SplineSet
544 678 m 0,0,1
 465 678 465 678 402 655 c 128,-1,2
 339 632 339 632 303 598 c 128,-1,3
 267 564 267 564 243.5 520.5 c 128,-1,4
 220 477 220 477 212 440 c 128,-1,5
 204 403 204 403 204 370 c 0,6,7
 204 218 204 218 289 139 c 128,-1,8
 374 60 374 60 544 60 c 0,9,10
 649 60 649 60 706 89 c 1,11,-1
 613 156 l 1,12,-1
 488 156 l 1,13,-1
 382 225 l 1,14,-1
 626 225 l 1,15,-1
 777 126 l 1,16,17
 831 177 831 177 854.5 226 c 128,-1,18
 878 275 878 275 878 370 c 0,19,20
 878 416 878 416 870.5 456 c 128,-1,21
 863 496 863 496 840.5 538 c 128,-1,22
 818 580 818 580 782.5 610 c 128,-1,23
 747 640 747 640 685.5 659 c 128,-1,24
 624 678 624 678 544 678 c 0,0,1
544 752 m 128,-1,26
 670 752 670 752 769 717.5 c 128,-1,27
 868 683 868 683 925.5 626.5 c 128,-1,28
 983 570 983 570 1012 504.5 c 128,-1,29
 1041 439 1041 439 1041 370 c 0,30,31
 1041 177 1041 177 876 73 c 1,32,-1
 1015 73 l 1,33,-1
 1138 -13 l 1,34,-1
 863 -13 l 1,35,-1
 802 35 l 1,36,37
 711 -13 711 -13 544 -13 c 0,38,39
 418 -13 418 -13 318 21.5 c 128,-1,40
 218 56 218 56 159 113 c 128,-1,41
 100 170 100 170 70 235.5 c 128,-1,42
 40 301 40 301 40 370 c 128,-1,43
 40 439 40 439 70 504.5 c 128,-1,44
 100 570 100 570 159 626.5 c 128,-1,45
 218 683 218 683 318 717.5 c 128,-1,25
 418 752 418 752 544 752 c 128,-1,26
EndSplineSet
Validated: 3073
EndChar

StartChar: uniFF32
Encoding: 65330 65330 147
Width: 1177
VWidth: 0
Flags: W
HStem: 0 21G<86 250 928 1092> 374 72<250 758.008> 670 72<250 785.741>
VStem: 86 164<0 374 446 670> 870 164<514.803 611.647> 928 164<0 263.363>
LayerCount: 2
Fore
SplineSet
657 742 m 2,0,1
 838 742 838 742 936 689 c 128,-1,2
 1034 636 1034 636 1034 569 c 0,3,4
 1034 519 1034 519 990 483 c 128,-1,5
 946 447 946 447 846 422 c 1,6,-1
 846 409 l 1,7,8
 965 387 965 387 1028.5 332.5 c 128,-1,9
 1092 278 1092 278 1092 206 c 2,10,-1
 1092 0 l 1,11,-1
 928 0 l 1,12,-1
 928 206 l 2,13,14
 928 270 928 270 828 322 c 128,-1,15
 728 374 728 374 621 374 c 2,16,-1
 250 374 l 1,17,-1
 250 0 l 1,18,-1
 86 0 l 1,19,-1
 86 742 l 1,20,-1
 657 742 l 2,0,1
870 569 m 0,21,22
 870 607 870 607 809 638.5 c 128,-1,23
 748 670 748 670 666 670 c 2,24,-1
 250 670 l 1,25,-1
 250 446 l 1,26,-1
 670 446 l 2,27,28
 744 446 744 446 806.5 482 c 128,-1,29
 869 518 869 518 870 569 c 0,21,22
EndSplineSet
Validated: 3073
EndChar

StartChar: uniFF33
Encoding: 65331 65331 148
Width: 1177
VWidth: 0
Flags: W
HStem: 0 74<172 769.197> 379 74<324.386 815.794> 669 73<368.012 1006>
VStem: 84 164<509.564 604.945> 930 164<166.032 290.023>
LayerCount: 2
Fore
SplineSet
1006 742 m 25,0,-1
 1094 669 l 1,1,2
 590 669 l 2,3,4
 444 669 444 669 346 641 c 128,-1,5
 248 613 248 613 248 563 c 0,6,7
 248 515 248 515 304.5 484 c 128,-1,8
 361 453 361 453 463 453 c 2,9,-1
 698 453 l 2,10,11
 893 453 893 453 993.5 384 c 128,-1,12
 1094 315 1094 315 1094 220 c 0,13,14
 1094 147 1094 147 1027.5 96.5 c 128,-1,15
 961 46 961 46 850 23 c 128,-1,16
 739 0 739 0 590 0 c 2,17,-1
 84 0 l 1,18,-1
 172 74 l 1,19,-1
 590 74 l 2,20,21
 726 74 726 74 828 115.5 c 128,-1,22
 930 157 930 157 930 220 c 0,23,24
 930 286 930 286 864.5 332.5 c 128,-1,25
 799 379 799 379 672 379 c 2,26,-1
 455 379 l 2,27,28
 344 379 344 379 268 393.5 c 128,-1,29
 192 408 192 408 153.5 434.5 c 128,-1,30
 115 461 115 461 99.5 491.5 c 128,-1,31
 84 522 84 522 84 563 c 0,32,33
 84 614 84 614 127.5 650.5 c 128,-1,34
 171 687 171 687 246.5 706 c 128,-1,35
 322 725 322 725 406.5 733.5 c 128,-1,36
 491 742 491 742 590 742 c 2,37,-1
 1006 742 l 25,0,-1
EndSplineSet
Validated: 3073
EndChar

StartChar: uniFF34
Encoding: 65332 65332 149
Width: 1177
VWidth: 0
Flags: W
HStem: 0 21G<503 669> 669 73<173 503 669 1005>
VStem: 503 166<0 669>
LayerCount: 2
Fore
SplineSet
503 669 m 25,0,-1
 173 669 l 1,1,-1
 85 742 l 1,2,-1
 1005 742 l 1,3,-1
 1093 669 l 1,4,-1
 669 669 l 1,5,6
 669 0 l 1,7,-1
 503 0 l 1,8,-1
 503 669 l 25,0,-1
EndSplineSet
Validated: 3073
EndChar

StartChar: uniFF35
Encoding: 65333 65333 150
Width: 1177
VWidth: 0
Flags: W
HStem: -6 73<419.687 762.044> 720 20G<86 250 928 1092>
VStem: 86 164<200.646 740> 928 164<202.498 740>
LayerCount: 2
Fore
SplineSet
1092 740 m 25,0,-1
 1092 289 l 1,1,2
 1086 148 1086 148 953.5 71 c 128,-1,3
 821 -6 821 -6 590 -6 c 0,4,5
 362 -6 362 -6 227 72 c 128,-1,6
 92 150 92 150 86 289 c 1,7,-1
 86 740 l 1,8,-1
 250 740 l 1,9,-1
 250 289 l 1,10,11
 255 183 255 183 340.5 125 c 128,-1,12
 426 67 426 67 590 67 c 0,13,14
 915 67 915 67 928 289 c 1,15,-1
 928 740 l 1,16,-1
 1092 740 l 25,0,-1
EndSplineSet
Validated: 3073
EndChar

StartChar: uniFF36
Encoding: 65334 65334 151
Width: 1177
VWidth: 0
Flags: W
HStem: 722 20G<84 272.941 910.902 1094>
LayerCount: 2
Fore
SplineSet
1094 742 m 25,0,-1
 590 -15 l 1,1,-1
 84 742 l 1,2,-1
 260 742 l 1,3,-1
 590 232 l 1,4,-1
 924 742 l 1,5,-1
 1094 742 l 25,0,-1
EndSplineSet
Validated: 3073
EndChar

StartChar: uniFF37
Encoding: 65335 65335 152
Width: 1177
VWidth: 0
Flags: W
HStem: 0 21G<152.111 426.616 751.527 1025.89> 721 20G<84 250.069 927.901 1094>
LayerCount: 2
Fore
SplineSet
1094 741 m 25,0,-1
 1024 0 l 1,1,-1
 764 0 l 1,2,-1
 590 279 l 1,3,-1
 414 0 l 1,4,-1
 154 0 l 1,5,-1
 84 741 l 1,6,-1
 248 741 l 1,7,-1
 317 74 l 1,8,-1
 590 469 l 1,9,-1
 860 74 l 1,10,-1
 930 741 l 1,11,-1
 1094 741 l 25,0,-1
EndSplineSet
Validated: 3073
EndChar

StartChar: uniFF38
Encoding: 65336 65336 153
Width: 1177
VWidth: 0
Flags: W
HStem: 0 21G<86 270.482 905.759 1092> 722 20G<86 274.373 901.914 1092>
LayerCount: 2
Fore
SplineSet
590 463 m 1,0,-1
 926 742 l 1,1,-1
 1092 742 l 1,2,-1
 686 396 l 1,3,-1
 1092 0 l 1,4,-1
 926 0 l 1,5,-1
 590 332 l 1,6,-1
 250 0 l 1,7,-1
 86 0 l 1,8,-1
 489 396 l 1,9,-1
 86 742 l 1,10,-1
 250 742 l 1,11,-1
 590 463 l 1,0,-1
EndSplineSet
Validated: 3073
EndChar

StartChar: uniFF39
Encoding: 65337 65337 154
Width: 1177
VWidth: 0
Flags: W
HStem: 0 21G<508 672> 722 20G<84 270.208 907.922 1094>
VStem: 508 164<0 353>
LayerCount: 2
Fore
SplineSet
1094 742 m 25,0,-1
 672 353 l 1,1,-1
 672 0 l 1,2,-1
 508 0 l 1,3,-1
 508 353 l 1,4,-1
 84 742 l 1,5,-1
 248 742 l 1,6,-1
 590 434 l 1,7,-1
 930 742 l 1,8,-1
 1094 742 l 25,0,-1
EndSplineSet
Validated: 3073
EndChar

StartChar: uniFF3A
Encoding: 65338 65338 155
Width: 1177
VWidth: 0
Flags: W
HStem: 0 74<271 1005> 669 73<173 902>
LayerCount: 2
Fore
SplineSet
1005 742 m 25,0,-1
 1093 669 l 1,1,-1
 271 74 l 1,2,-1
 1005 74 l 1,3,-1
 1093 0 l 1,4,-1
 173 0 l 1,5,-1
 85 74 l 1,6,-1
 902 669 l 1,7,-1
 173 669 l 1,8,-1
 85 742 l 1,9,-1
 1005 742 l 25,0,-1
EndSplineSet
Validated: 3073
EndChar

StartChar: uniFF3B
Encoding: 65339 65339 156
Width: 1177
VWidth: 0
Flags: W
HStem: -88 82<552 790> 737 82<552 790>
VStem: 388 164<-6 737>
LayerCount: 2
Fore
SplineSet
790 819 m 25,0,-1
 790 737 l 1,1,-1
 552 737 l 1,2,-1
 552 -6 l 1,3,-1
 790 -6 l 1,4,-1
 790 -88 l 1,5,-1
 388 -88 l 1,6,-1
 388 819 l 1,7,-1
 790 819 l 25,0,-1
EndSplineSet
Validated: 3073
EndChar

StartChar: uniFF3C
Encoding: 65340 65340 157
Width: 1177
VWidth: 0
Flags: W
LayerCount: 2
Fore
SplineSet
270 819 m 25,0,-1
 1071 -77 l 1,1,-1
 907 -77 l 1,2,-1
 106 819 l 1,3,-1
 270 819 l 25,0,-1
EndSplineSet
Validated: 3073
EndChar

StartChar: uniFF3D
Encoding: 65341 65341 158
Width: 1177
VWidth: 0
Flags: W
HStem: -88 82<388 626> 737 82<388 626>
VStem: 626 164<-6 737>
LayerCount: 2
Fore
SplineSet
790 819 m 25,0,-1
 790 -88 l 1,1,-1
 388 -88 l 1,2,-1
 388 -6 l 1,3,-1
 626 -6 l 1,4,-1
 626 737 l 1,5,-1
 388 737 l 1,6,-1
 388 819 l 1,7,-1
 790 819 l 25,0,-1
EndSplineSet
Validated: 3073
EndChar

StartChar: uniFF3E
Encoding: 65342 65342 159
Width: 1177
VWidth: 0
Flags: W
HStem: 515 284
LayerCount: 2
Fore
SplineSet
590 799 m 25,0,-1
 1075 515 l 1,1,-1
 862 515 l 1,2,-1
 590 682 l 1,3,-1
 315 515 l 1,4,-1
 102 515 l 1,5,-1
 590 799 l 25,0,-1
EndSplineSet
Validated: 3073
EndChar

StartChar: uniFF3F
Encoding: 65343 65343 160
Width: 1177
VWidth: 0
Flags: W
HStem: 0 73<106 1071>
LayerCount: 2
Fore
SplineSet
1071 0 m 25,0,-1
 106 0 l 1,1,-1
 106 73 l 1,2,-1
 1071 73 l 1,3,-1
 1071 0 l 25,0,-1
EndSplineSet
Validated: 3073
EndChar

StartChar: uniFF40
Encoding: 65344 65344 161
Width: 1177
VWidth: 0
Flags: W
HStem: 582 217<550 718>
VStem: 427 324
LayerCount: 2
Fore
SplineSet
550 799 m 1,0,1
 660 781 660 781 751 654 c 1,2,3
 751 582 751 582 718 582 c 0,4,5
 677 582 677 582 605 621.5 c 128,-1,6
 533 661 533 661 480 704 c 128,-1,7
 427 747 427 747 427 761 c 0,8,9
 427 766 427 766 445.5 775 c 128,-1,10
 464 784 464 784 494 791.5 c 128,-1,11
 524 799 524 799 550 799 c 1,0,1
EndSplineSet
Validated: 3073
EndChar

StartChar: uniFF41
Encoding: 65345 65345 162
Width: 1177
VWidth: 0
Flags: W
HStem: -6 73<404.188 685.752> 396 73<346.462 659.967>
VStem: 72 164<172.282 292.177> 793 155<185.969 335.904>
LayerCount: 2
Fore
SplineSet
999 469 m 5,0,-1
 948 441 l 1,1,-1
 948 142 l 1,2,3
 951 117 951 117 967.5 94.5 c 128,-1,4
 984 72 984 72 999 62 c 2,5,-1
 1014 53 l 1,6,-1
 1106 53 l 1,7,-1
 979 -8 l 1,8,9
 920 -1 920 -1 895 19.5 c 128,-1,10
 870 40 870 40 868 78 c 1,11,12
 808 32 808 32 725.5 13 c 128,-1,13
 643 -6 643 -6 575 -6 c 0,14,15
 454 -6 454 -6 338.5 26.5 c 128,-1,16
 223 59 223 59 147.5 117 c 128,-1,17
 72 175 72 175 72 241 c 0,18,19
 72 294 72 294 127 346.5 c 128,-1,20
 182 399 182 399 282.5 434 c 128,-1,21
 383 469 383 469 500 469 c 0,22,23
 565 469 565 469 662.5 446 c 128,-1,24
 760 423 760 423 784 411 c 1,25,-1
 784 469 l 1,26,-1
 999 469 l 5,0,-1
461 396 m 4,27,28
 354 396 354 396 295 338.5 c 128,-1,29
 236 281 236 281 236 214 c 0,30,31
 236 151 236 151 342 109 c 128,-1,32
 448 67 448 67 590 67 c 0,33,34
 636 67 636 67 673 83 c 128,-1,35
 710 99 710 99 732 123.5 c 128,-1,36
 754 148 754 148 768 180 c 128,-1,37
 782 212 782 212 787.5 240.5 c 128,-1,38
 793 269 793 269 793 297 c 0,39,40
 793 324 793 324 758.5 344.5 c 128,-1,41
 724 365 724 365 670.5 375.5 c 128,-1,42
 617 386 617 386 564 391 c 128,-1,43
 511 396 511 396 461 396 c 4,27,28
EndSplineSet
Validated: 3073
EndChar

StartChar: uniFF42
Encoding: 65346 65346 163
Width: 1177
VWidth: 0
Flags: W
HStem: -6 73<454.134 723.442> 396 73<542.095 867.649> 722 20G<178 393>
VStem: 229 164<411 717> 229 156<141.219 323.494> 942 164<184.648 326.86>
LayerCount: 2
Fore
SplineSet
178 742 m 1,0,-1
 393 742 l 1,1,-1
 393 411 l 1,2,3
 414 421 414 421 533.5 445 c 128,-1,4
 653 469 653 469 719 469 c 0,5,6
 903 469 903 469 1004.5 410 c 128,-1,7
 1106 351 1106 351 1106 241 c 0,8,9
 1106 176 1106 176 1020 117.5 c 128,-1,10
 934 59 934 59 808.5 26.5 c 128,-1,11
 683 -6 683 -6 561 -6 c 0,12,13
 417 -6 417 -6 309 78 c 1,14,15
 307 39 307 39 282.5 19 c 128,-1,16
 258 -1 258 -1 199 -8 c 1,17,-1
 72 54 l 1,18,-1
 164 54 l 1,19,20
 171 57 171 57 181 64 c 128,-1,21
 191 71 191 71 208.5 94 c 128,-1,22
 226 117 226 117 229 142 c 1,23,-1
 229 717 l 1,24,-1
 178 742 l 1,0,-1
758 396 m 0,25,26
 690 396 690 396 608 385.5 c 128,-1,27
 526 375 526 375 455.5 348.5 c 128,-1,28
 385 322 385 322 385 286 c 0,29,30
 385 261 385 261 385.5 247 c 128,-1,31
 386 233 386 233 389 206.5 c 128,-1,32
 392 180 392 180 397.5 164 c 128,-1,33
 403 148 403 148 415 127.5 c 128,-1,34
 427 107 427 107 444 95.5 c 128,-1,35
 461 84 461 84 487 75.5 c 128,-1,36
 513 67 513 67 547 67 c 0,37,38
 638 67 638 67 730 90.5 c 128,-1,39
 822 114 822 114 882 153 c 128,-1,40
 942 192 942 192 942 234 c 0,41,42
 942 396 942 396 758 396 c 0,25,26
EndSplineSet
Validated: 3073
EndChar

StartChar: uniFF43
Encoding: 65347 65347 164
Width: 1177
VWidth: 0
Flags: W
HStem: -6 73<419.09 736.119> 396 73<424.78 721.13>
VStem: 134 164<159.136 300.553>
LayerCount: 2
Fore
SplineSet
585 469 m 31,0,1
 675 469 675 469 772 445 c 128,-1,2
 869 421 869 421 929.5 389.5 c 128,-1,3
 990 358 990 358 990 335 c 1,4,-1
 816 253 l 1,5,-1
 816 321 l 1,6,7
 794 350 794 350 723.5 373 c 128,-1,8
 653 396 653 396 585 396 c 0,9,10
 445 396 445 396 371.5 348.5 c 128,-1,11
 298 301 298 301 298 232 c 0,12,13
 298 160 298 160 367 113.5 c 128,-1,14
 436 67 436 67 585 67 c 0,15,16
 676 67 676 67 749.5 93.5 c 128,-1,17
 823 120 823 120 857 159 c 1,18,-1
 1043 159 l 1,19,20
 997 97 997 97 866.5 45.5 c 128,-1,21
 736 -6 736 -6 581 -6 c 0,22,23
 389 -6 389 -6 261.5 61 c 128,-1,24
 134 128 134 128 134 232 c 0,25,26
 134 302 134 302 194 356.5 c 128,-1,27
 254 411 254 411 356 440 c 128,-1,28
 458 469 458 469 585 469 c 31,0,1
EndSplineSet
Validated: 3073
EndChar

StartChar: uniFF44
Encoding: 65348 65348 165
Width: 1177
VWidth: 0
Flags: W
HStem: -6 73<454.166 723.366> 396 73<310.351 635.671> 722 20G<784 999>
VStem: 72 164<184.648 326.86> 784 164<411 717> 793 155<141.219 323.494>
LayerCount: 2
Fore
SplineSet
999 742 m 5,0,-1
 948 717 l 1,1,-1
 948 142 l 1,2,3
 952 117 952 117 968 95 c 0,4,5
 984 74 984 74 999 64 c 2,6,-1
 1014 54 l 1,7,-1
 1106 54 l 1,8,-1
 979 -8 l 1,9,10
 920 -1 920 -1 895 19.5 c 128,-1,11
 870 40 870 40 868 78 c 1,12,13
 760 -6 760 -6 616 -6 c 0,14,15
 494 -6 494 -6 369 26.5 c 128,-1,16
 244 59 244 59 158 117.5 c 128,-1,17
 72 176 72 176 72 241 c 0,18,19
 72 351 72 351 173.5 410 c 128,-1,20
 275 469 275 469 459 469 c 0,21,22
 525 469 525 469 644 445 c 128,-1,23
 763 421 763 421 784 411 c 1,24,-1
 784 742 l 1,25,-1
 999 742 l 5,0,-1
420 396 m 4,26,27
 236 396 236 396 236 234 c 0,28,29
 236 192 236 192 296 153 c 128,-1,30
 356 114 356 114 448 90.5 c 128,-1,31
 540 67 540 67 631 67 c 0,32,33
 665 67 665 67 691 75.5 c 128,-1,34
 717 84 717 84 734 95.5 c 128,-1,35
 751 107 751 107 763 127.5 c 128,-1,36
 775 148 775 148 780.5 164 c 128,-1,37
 786 180 786 180 789 206.5 c 128,-1,38
 792 233 792 233 792.5 247 c 128,-1,39
 793 261 793 261 793 286 c 0,40,41
 793 322 793 322 722.5 348.5 c 128,-1,42
 652 375 652 375 570 385.5 c 128,-1,43
 488 396 488 396 420 396 c 4,26,27
EndSplineSet
Validated: 3073
EndChar

StartChar: uniFF45
Encoding: 65349 65349 166
Width: 1177
VWidth: 0
Flags: W
HStem: -6 73<425.592 767.381> 396 73<431.463 766.497>
VStem: 144 164<196.587 299.734>
LayerCount: 2
Fore
SplineSet
591 469 m 0,0,1
 683 469 683 469 763.5 451 c 128,-1,2
 844 433 844 433 892 407.5 c 128,-1,3
 940 382 940 382 967 356 c 128,-1,4
 994 330 994 330 994 312 c 1,5,-1
 372 127 l 1,6,7
 373 125 373 125 375.5 120.5 c 128,-1,8
 378 116 378 116 392.5 106 c 128,-1,9
 407 96 407 96 428.5 88 c 128,-1,10
 450 80 450 80 493 73.5 c 128,-1,11
 536 67 536 67 591 67 c 0,12,13
 665 67 665 67 719.5 77.5 c 128,-1,14
 774 88 774 88 798 103 c 128,-1,15
 822 118 822 118 822 134 c 1,16,-1
 1033 165 l 1,17,18
 981 95 981 95 874 44.5 c 128,-1,19
 767 -6 767 -6 591 -6 c 0,20,21
 393 -6 393 -6 268.5 57.5 c 128,-1,22
 144 121 144 121 144 225 c 0,23,24
 144 332 144 332 269.5 400.5 c 128,-1,25
 395 469 395 469 591 469 c 0,0,1
816 340 m 1,26,27
 815 342 815 342 812.5 346 c 128,-1,28
 810 350 810 350 795.5 359.5 c 128,-1,29
 781 369 781 369 759 376.5 c 128,-1,30
 737 384 737 384 692.5 390 c 128,-1,31
 648 396 648 396 591 396 c 0,32,33
 511 396 511 396 452.5 380.5 c 128,-1,34
 394 365 394 365 364.5 338.5 c 128,-1,35
 335 312 335 312 321.5 284 c 128,-1,36
 308 256 308 256 308 225 c 0,37,38
 308 216 308 216 312 196 c 1,39,-1
 816 340 l 1,26,27
EndSplineSet
Validated: 3073
EndChar

StartChar: uniFF46
Encoding: 65350 65350 167
Width: 1177
VWidth: 0
Flags: W
HStem: 0 21G<366 646> 390 73<144 425 589 900> 673 72<618.456 840.811>
VStem: 425 164<34 390 463 646.264>
LayerCount: 2
Fore
SplineSet
732 745 m 4,0,1
 800 745 800 745 857 730.5 c 128,-1,2
 914 716 914 716 949 694.5 c 128,-1,3
 984 673 984 673 1004.5 654.5 c 128,-1,4
 1025 636 1025 636 1033 620 c 1,5,-1
 869 552 l 1,6,-1
 869 601 l 2,7,8
 869 673 869 673 732 673 c 0,9,10
 589 673 589 673 589 601 c 2,11,-1
 589 463 l 1,12,-1
 976 463 l 1,13,-1
 900 390 l 1,14,-1
 589 390 l 1,15,-1
 589 34 l 1,16,-1
 646 0 l 1,17,-1
 366 0 l 1,18,-1
 425 34 l 1,19,-1
 425 390 l 1,20,-1
 144 390 l 1,21,-1
 144 463 l 1,22,-1
 425 463 l 1,23,-1
 425 621 l 2,24,25
 425 671 425 671 507 708 c 128,-1,26
 589 745 589 745 732 745 c 4,0,1
EndSplineSet
Validated: 3073
EndChar

StartChar: uniFF47
Encoding: 65351 65351 168
Width: 1177
VWidth: 0
Flags: W
HStem: -195 73<394.122 764.129> -28 20G<274.765 323> 43 73<415.605 714.012> 396 73<418.498 713.189>
VStem: 159 164<187.764 322.438> 796 176<181.227 328.883> 826 146<-82.5232 128 387 441>
LayerCount: 2
Fore
SplineSet
826 128 m 5,0,1
 794 86 794 86 724 64.5 c 128,-1,2
 654 43 654 43 572 43 c 0,3,4
 396 43 396 43 277.5 107 c 128,-1,5
 159 171 159 171 159 254 c 0,6,7
 159 339 159 339 277 404 c 128,-1,8
 395 469 395 469 572 469 c 0,9,10
 655 469 655 469 724.5 449 c 128,-1,11
 794 429 794 429 826 387 c 1,12,-1
 826 469 l 1,13,-1
 1019 469 l 1,14,-1
 972 441 l 1,15,-1
 972 -87 l 2,16,17
 972 -109 972 -109 925.5 -133.5 c 128,-1,18
 879 -158 879 -158 785 -176.5 c 128,-1,19
 691 -195 691 -195 577 -195 c 0,20,21
 409 -195 409 -195 299 -154.5 c 128,-1,22
 189 -114 189 -114 159 -76 c 1,23,-1
 323 -8 l 1,24,-1
 323 -76 l 1,25,26
 333 -81 333 -81 353 -88.5 c 128,-1,27
 373 -96 373 -96 439 -109 c 128,-1,28
 505 -122 505 -122 577 -122 c 0,29,30
 694 -121 694 -121 760 -101 c 128,-1,31
 826 -81 826 -81 826 -52 c 2,32,-1
 826 128 l 5,0,1
572 396 m 4,33,34
 444 396 444 396 383.5 357 c 128,-1,35
 323 318 323 318 323 254 c 0,36,37
 323 191 323 191 384 153.5 c 128,-1,38
 445 116 445 116 572 116 c 0,39,40
 796 116 796 116 796 254 c 0,41,42
 796 396 796 396 572 396 c 4,33,34
EndSplineSet
Validated: 3073
EndChar

StartChar: uniFF48
Encoding: 65352 65352 169
Width: 1177
VWidth: 0
Flags: W
HStem: 0 21G<133 391 786 1049> 396 73<466.112 749.929> 722 20G<129 344>
VStem: 180 164<30 304.38 402 720> 840 164<30 320.345>
LayerCount: 2
Fore
SplineSet
344 742 m 5,0,-1
 344 402 l 1,1,2
 397 431 397 431 472.5 450 c 128,-1,3
 548 469 548 469 616 469 c 0,4,5
 806 469 806 469 904 401.5 c 128,-1,6
 1002 334 1002 334 1004 242 c 1,7,-1
 1004 30 l 1,8,-1
 1049 0 l 1,9,-1
 786 0 l 1,10,-1
 840 30 l 1,11,-1
 840 242 l 2,12,13
 840 322 840 322 780 359 c 128,-1,14
 720 396 720 396 616 396 c 0,15,16
 549 396 549 396 490 381 c 128,-1,17
 431 366 431 366 389.5 330.5 c 128,-1,18
 348 295 348 295 348 245 c 2,19,-1
 348 30 l 1,20,-1
 391 0 l 1,21,-1
 133 0 l 1,22,-1
 180 30 l 1,23,-1
 180 720 l 1,24,-1
 129 742 l 1,25,-1
 344 742 l 5,0,-1
EndSplineSet
Validated: 3073
EndChar

StartChar: uniFF49
Encoding: 65353 65353 170
Width: 1177
VWidth: 0
Flags: W
HStem: 0 21G<462 720> 565 132<479.137 697.881>
VStem: 509 164<30 432>
LayerCount: 2
Fore
SplineSet
591 697 m 24,0,1
 649 697 649 697 691.5 678 c 128,-1,2
 734 659 734 659 734 631 c 128,-1,3
 734 603 734 603 691.5 584 c 128,-1,4
 649 565 649 565 591 565 c 0,5,6
 531 565 531 565 487 583.5 c 128,-1,7
 443 602 443 602 443 631 c 128,-1,8
 443 660 443 660 487 678.5 c 128,-1,9
 531 697 531 697 591 697 c 24,0,1
720 463 m 29,10,-1
 673 432 l 1,11,-1
 673 30 l 1,12,-1
 720 0 l 1,13,-1
 462 0 l 1,14,-1
 509 30 l 1,15,-1
 509 432 l 1,16,-1
 462 463 l 1,17,-1
 720 463 l 29,10,-1
EndSplineSet
Validated: 3073
EndChar

StartChar: uniFF4A
Encoding: 65354 65354 171
Width: 1177
VWidth: 0
Flags: W
HStem: -198 73<422.762 692.247> 565 132<747.726 965.881>
VStem: 175 164<-51.8123 47.8252> 777 164<-55.0439 433>
LayerCount: 2
Fore
SplineSet
859 697 m 24,0,1
 917 697 917 697 959.5 678 c 128,-1,2
 1002 659 1002 659 1002 631 c 128,-1,3
 1002 603 1002 603 959.5 584 c 128,-1,4
 917 565 917 565 859 565 c 0,5,6
 799 565 799 565 755.5 583.5 c 128,-1,7
 712 602 712 602 712 631 c 128,-1,8
 712 660 712 660 755.5 678.5 c 128,-1,9
 799 697 799 697 859 697 c 24,0,1
175 35 m 0,10,11
 175 61 175 61 204.5 85 c 128,-1,12
 234 109 234 109 294 109 c 0,13,14
 325 109 325 109 375 99 c 128,-1,15
 425 89 425 89 425 78 c 128,-1,16
 425 67 425 67 382 55 c 128,-1,17
 339 43 339 43 339 25 c 0,18,19
 339 -42 339 -42 390.5 -83.5 c 128,-1,20
 442 -125 442 -125 560 -125 c 0,21,22
 665 -125 665 -125 721 -87 c 128,-1,23
 777 -49 777 -49 777 12 c 2,24,-1
 777 433 l 1,25,-1
 730 463 l 1,26,-1
 984 463 l 1,27,-1
 941 433 l 1,28,-1
 941 12 l 2,29,30
 941 -76 941 -76 825 -137 c 128,-1,31
 709 -198 709 -198 560 -198 c 0,32,33
 455 -198 455 -198 371.5 -176 c 128,-1,34
 288 -154 288 -154 231.5 -100 c 128,-1,35
 175 -46 175 -46 175 35 c 0,10,11
EndSplineSet
Validated: 3073
EndChar

StartChar: uniFF4B
Encoding: 65355 65355 172
Width: 1177
VWidth: 0
Flags: W
HStem: 0 21G<145 397 776 1032> 237 72<354 648.75> 722 20G<145 397>
VStem: 190 164<30 237 309 714>
LayerCount: 2
Fore
SplineSet
776 433 m 5,0,-1
 727 465 l 1,1,-1
 985 465 l 1,2,-1
 940 433 l 1,3,4
 939 393 939 393 897 358.5 c 128,-1,5
 855 324 855 324 809 306 c 128,-1,6
 763 288 763 288 707 274 c 1,7,8
 829 232 829 232 903 166.5 c 128,-1,9
 977 101 977 101 985 30 c 1,10,-1
 1032 0 l 1,11,-1
 776 0 l 1,12,-1
 827 30 l 1,13,14
 820 155 820 155 604 237 c 1,15,-1
 354 237 l 1,16,-1
 354 30 l 1,17,-1
 397 0 l 1,18,-1
 145 0 l 1,19,-1
 190 30 l 1,20,-1
 190 714 l 1,21,-1
 145 742 l 1,22,-1
 397 742 l 1,23,-1
 354 714 l 1,24,-1
 354 309 l 1,25,-1
 561 309 l 1,26,27
 683 335 683 335 729.5 363.5 c 128,-1,28
 776 392 776 392 776 433 c 5,0,-1
EndSplineSet
Validated: 3073
EndChar

StartChar: uniFF4C
Encoding: 65356 65356 173
Width: 1177
VWidth: 0
Flags: W
HStem: -6 73<497.875 728.912> 722 20G<263 527>
VStem: 314 164<87.3789 714>
LayerCount: 2
Fore
SplineSet
527 742 m 29,0,-1
 478 714 l 1,1,2
 478 158 l 2,3,4
 478 132 478 132 480.5 119.5 c 128,-1,5
 483 107 483 107 495 92.5 c 128,-1,6
 507 78 507 78 535 72.5 c 128,-1,7
 563 67 563 67 611 67 c 0,8,9
 649 67 649 67 677 72 c 128,-1,10
 705 77 705 77 718.5 83.5 c 128,-1,11
 732 90 732 90 740 99 c 128,-1,12
 748 108 748 108 749.5 113 c 128,-1,13
 751 118 751 118 751 123 c 2,14,-1
 751 191 l 1,15,-1
 914 108 l 1,16,17
 894 71 894 71 816 32.5 c 128,-1,18
 738 -6 738 -6 611 -6 c 0,19,20
 567 -6 567 -6 531.5 -3.5 c 128,-1,21
 496 -1 496 -1 468 5 c 128,-1,22
 440 11 440 11 418 17 c 128,-1,23
 396 23 396 23 380 35 c 128,-1,24
 364 47 364 47 352.5 57 c 128,-1,25
 341 67 341 67 334 84.5 c 128,-1,26
 327 102 327 102 323 115 c 128,-1,27
 319 128 319 128 317 151.5 c 128,-1,28
 315 175 315 175 314.5 190.5 c 128,-1,29
 314 206 314 206 314 234 c 2,30,-1
 314 714 l 1,31,-1
 263 742 l 1,32,-1
 527 742 l 29,0,-1
EndSplineSet
Validated: 3073
EndChar

StartChar: uniFF4D
Encoding: 65357 65357 174
Width: 1177
VWidth: 0
Flags: W
HStem: 0 21G<9 269 462 720 910 1170> 398 71<292.383 464.023 730.004 897.809>
VStem: 58 164<30 323.781 422 443> 513 164<30 341.515> 957 164<30 318.121>
LayerCount: 2
Fore
SplineSet
222 469 m 29,0,-1
 222 422 l 1,1,2
 237 438 237 438 289 453.5 c 128,-1,3
 341 469 341 469 394 469 c 0,4,5
 456 468 456 468 498.5 454 c 128,-1,6
 541 440 541 440 587 408 c 1,7,8
 676 469 676 469 812 469 c 0,9,10
 888 469 888 469 946.5 449 c 128,-1,11
 1005 429 1005 429 1037 401.5 c 128,-1,12
 1069 374 1069 374 1089 338.5 c 128,-1,13
 1109 303 1109 303 1115 277 c 128,-1,14
 1121 251 1121 251 1121 229 c 2,15,-1
 1121 30 l 1,16,-1
 1170 0 l 1,17,-1
 910 0 l 1,18,-1
 957 30 l 1,19,-1
 957 229 l 2,20,21
 957 398 957 398 812 398 c 0,22,23
 780 398 780 398 755.5 389.5 c 128,-1,24
 731 381 731 381 717 365 c 128,-1,25
 703 349 703 349 694 333.5 c 128,-1,26
 685 318 685 318 682 295 c 128,-1,27
 679 272 679 272 678 259.5 c 128,-1,28
 677 247 677 247 677 229 c 2,29,-1
 677 30 l 1,30,-1
 720 0 l 1,31,-1
 462 0 l 1,32,-1
 513 30 l 1,33,-1
 513 229 l 2,34,35
 513 398 513 398 394 398 c 0,36,37
 300 398 300 398 261 349.5 c 128,-1,38
 222 301 222 301 222 229 c 2,39,-1
 222 30 l 1,40,-1
 269 0 l 1,41,-1
 9 0 l 1,42,-1
 58 30 l 1,43,-1
 58 443 l 1,44,-1
 7 469 l 1,45,-1
 222 469 l 29,0,-1
EndSplineSet
Validated: 3073
EndChar

StartChar: uniFF4E
Encoding: 65358 65358 175
Width: 1177
VWidth: 0
Flags: W
HStem: 0 21G<145 399 778 1040> 400 69<442.095 723.117>
VStem: 188 164<30 321.161 410 443> 827 164<30 308.979>
LayerCount: 2
Fore
SplineSet
592 469 m 4,0,1
 792 469 792 469 891.5 397 c 128,-1,2
 991 325 991 325 991 222 c 2,3,-1
 991 30 l 1,4,-1
 1040 0 l 1,5,-1
 778 0 l 1,6,-1
 827 30 l 1,7,8
 827 222 l 2,9,10
 827 306 827 306 766.5 353 c 128,-1,11
 706 400 706 400 592 400 c 0,12,13
 520 400 520 400 471.5 387.5 c 128,-1,14
 423 375 423 375 397.5 350 c 128,-1,15
 372 325 372 325 362 295 c 128,-1,16
 352 265 352 265 352 222 c 2,17,-1
 352 30 l 1,18,-1
 399 0 l 1,19,-1
 145 0 l 1,20,-1
 188 30 l 1,21,-1
 188 443 l 1,22,-1
 137 469 l 1,23,-1
 350 469 l 1,24,-1
 350 410 l 1,25,26
 458 469 458 469 592 469 c 4,0,1
EndSplineSet
Validated: 3073
EndChar

StartChar: uniFF4F
Encoding: 65359 65359 176
Width: 1177
VWidth: 0
Flags: W
HStem: -6 73<414.956 746.884> 396 73<424.867 738.727>
VStem: 143 185<149.383 302.421> 850 184<152.522 299.308>
LayerCount: 2
Fore
SplineSet
578 396 m 4,0,1
 440 396 440 396 384 352 c 128,-1,2
 328 308 328 308 328 225 c 0,3,4
 328 144 328 144 383 105.5 c 128,-1,5
 438 67 438 67 578 67 c 0,6,7
 721 67 721 67 785.5 106.5 c 128,-1,8
 850 146 850 146 850 225 c 0,9,10
 850 396 850 396 578 396 c 4,0,1
578 469 m 4,11,12
 769 469 769 469 901.5 394.5 c 128,-1,13
 1034 320 1034 320 1034 225 c 0,14,15
 1034 131 1034 131 902.5 62.5 c 128,-1,16
 771 -6 771 -6 578 -6 c 0,17,18
 387 -6 387 -6 265 62 c 128,-1,19
 143 130 143 130 143 225 c 0,20,21
 143 322 143 322 266 395.5 c 128,-1,22
 389 469 389 469 578 469 c 4,11,12
EndSplineSet
Validated: 3073
EndChar

StartChar: uniFF50
Encoding: 65360 65360 177
Width: 1177
VWidth: 0
Flags: W
HStem: -6 73<493.539 770.271> 396 73<495.146 767.393>
VStem: 204 174<159.359 300.132> 204 153<-174 74 392 443> 871 154<154.937 304.979>
LayerCount: 2
Fore
SplineSet
632 469 m 4,0,1
 804 469 804 469 914.5 393.5 c 128,-1,2
 1025 318 1025 318 1025 229 c 0,3,4
 1025 143 1025 143 914 68.5 c 128,-1,5
 803 -6 803 -6 632 -6 c 0,6,7
 545 -6 545 -6 466.5 13.5 c 128,-1,8
 388 33 388 33 357 74 c 1,9,-1
 357 -174 l 1,10,-1
 407 -205 l 1,11,-1
 153 -205 l 1,12,-1
 204 -174 l 1,13,-1
 204 443 l 1,14,-1
 153 469 l 1,15,-1
 357 469 l 1,16,-1
 357 392 l 1,17,18
 388 433 388 433 465.5 451 c 128,-1,19
 543 469 543 469 632 469 c 4,0,1
632 396 m 4,20,21
 509 396 509 396 443.5 345.5 c 128,-1,22
 378 295 378 295 378 229 c 0,23,24
 378 164 378 164 444 115.5 c 128,-1,25
 510 67 510 67 632 67 c 0,26,27
 755 67 755 67 813 114 c 128,-1,28
 871 161 871 161 871 229 c 0,29,30
 871 298 871 298 813.5 347 c 128,-1,31
 756 396 756 396 632 396 c 4,20,21
EndSplineSet
Validated: 3073
EndChar

StartChar: uniFF51
Encoding: 65361 65361 178
Width: 1177
VWidth: 0
Flags: W
HStem: -205 58<851.484 994.374> -6 73<251.163 524.627> 396 73<251.699 523.013>
VStem: -4 164<153.043 306.937> 643 168<161.746 298.346> 657 154<-98.3828 74 392 445>
LayerCount: 2
Fore
SplineSet
856 469 m 5,0,-1
 811 445 l 1,1,-1
 811 4 l 2,2,3
 811 -146 811 -146 913 -147 c 0,4,5
 975 -147 975 -147 996.5 -123.5 c 128,-1,6
 1018 -100 1018 -100 1018 -61 c 1,7,-1
 1182 -89 l 1,8,9
 1162 -126 1162 -126 1088.5 -165.5 c 128,-1,10
 1015 -205 1015 -205 903 -205 c 0,11,12
 770 -204 770 -204 713.5 -146.5 c 128,-1,13
 657 -89 657 -89 657 4 c 2,14,-1
 657 74 l 1,15,16
 626 33 626 33 549 13.5 c 128,-1,17
 472 -6 472 -6 385 -6 c 0,18,19
 214 -6 214 -6 105 68 c 128,-1,20
 -4 142 -4 142 -4 229 c 0,21,22
 -4 318 -4 318 104.5 393.5 c 128,-1,23
 213 469 213 469 385 469 c 0,24,25
 474 469 474 469 550 451 c 128,-1,26
 626 433 626 433 657 392 c 1,27,-1
 657 469 l 1,28,-1
 856 469 l 5,0,-1
385 396 m 132,-1,30
 262 396 262 396 211 348 c 128,-1,31
 160 300 160 300 160 229 c 0,32,33
 160 160 160 160 211.5 113.5 c 128,-1,34
 263 67 263 67 385 67 c 128,-1,35
 507 67 507 67 575 116 c 128,-1,36
 643 165 643 165 643 229 c 0,37,38
 643 295 643 295 575.5 345.5 c 128,-1,29
 508 396 508 396 385 396 c 132,-1,30
EndSplineSet
Validated: 3073
EndChar

StartChar: uniFF52
Encoding: 65362 65362 179
Width: 1177
VWidth: 0
Flags: W
HStem: 0 21G<151 409> 396 73<502.802 812.64>
VStem: 196 163<32 276.045 389 454>
LayerCount: 2
Fore
SplineSet
642 469 m 4,0,1
 737 469 737 469 814.5 451.5 c 128,-1,2
 892 434 892 434 937 408.5 c 128,-1,3
 982 383 982 383 1006 357 c 128,-1,4
 1030 331 1030 331 1031 309 c 0,5,6
 1031 289 1031 289 983.5 274 c 128,-1,7
 936 259 936 259 869 259 c 0,8,9
 854 259 854 259 842 264 c 128,-1,10
 830 269 830 269 825 274 c 128,-1,11
 820 279 820 279 820 283 c 0,12,13
 820 292 820 292 843.5 301.5 c 128,-1,14
 867 311 867 311 867 319 c 0,15,16
 867 359 867 359 801.5 377.5 c 128,-1,17
 736 396 736 396 642 396 c 0,18,19
 577 396 577 396 525 381 c 128,-1,20
 473 366 473 366 443 343.5 c 128,-1,21
 413 321 413 321 393 293.5 c 128,-1,22
 373 266 373 266 366 244 c 128,-1,23
 359 222 359 222 359 205 c 2,24,-1
 359 32 l 1,25,-1
 409 0 l 1,26,-1
 151 0 l 1,27,-1
 196 32 l 1,28,-1
 196 445 l 1,29,30
 146 465 146 465 146 469 c 1,31,-1
 359 469 l 1,32,-1
 359 389 l 1,33,34
 379 416 379 416 474.5 442.5 c 128,-1,35
 570 469 570 469 642 469 c 4,0,1
EndSplineSet
Validated: 3073
EndChar

StartChar: uniFF53
Encoding: 65363 65363 180
Width: 1177
VWidth: 0
Flags: W
HStem: -6 73<296.902 846.76> 117.5 26.5<281.024 329.809> 203 72<330.043 846.506> 322 23<852.549 896.731> 396 73<333.45 880.932>
VStem: 143 164<296.65 372.194> 870 164<89.5934 180.534>
LayerCount: 2
Fore
SplineSet
805 469 m 6,0,1
 839 469 839 469 940 443 c 0,2,3
 975 434 975 434 1003.5 406.5 c 128,-1,4
 1032 379 1032 379 1034 358 c 1,5,6
 1034 337 1034 337 1006.5 327.5 c 128,-1,7
 979 318 979 318 913 318 c 0,8,9
 889 318 889 318 870.5 322 c 128,-1,10
 852 326 852 326 852 331 c 0,11,12
 852 340 852 340 874.5 345 c 128,-1,13
 897 350 897 350 897 358 c 0,14,15
 897 364 897 364 882.5 373 c 128,-1,16
 868 382 868 382 841 389 c 128,-1,17
 814 396 814 396 786 396 c 2,18,-1
 442 396 l 2,19,20
 375 396 375 396 341 379.5 c 128,-1,21
 307 363 307 363 307 335 c 0,22,23
 307 275 307 275 442 275 c 2,24,-1
 748 275 l 2,25,26
 869 275 869 275 951.5 235.5 c 128,-1,27
 1034 196 1034 196 1034 142 c 0,28,29
 1034 87 1034 87 949 40.5 c 128,-1,30
 864 -6 864 -6 748 -6 c 2,31,-1
 373 -6 l 2,32,33
 340 -6 340 -6 242 19 c 0,34,35
 206 28 206 28 175.5 55.5 c 128,-1,36
 145 83 145 83 143 104 c 1,37,38
 143 144 143 144 281 144 c 0,39,40
 330 144 330 144 330 132 c 0,41,42
 330 123 330 123 305.5 117.5 c 128,-1,43
 281 112 281 112 281 104 c 0,44,45
 281 98 281 98 296.5 89.5 c 128,-1,46
 312 81 312 81 339.5 74 c 128,-1,47
 367 67 367 67 395 67 c 2,48,-1
 752 67 l 2,49,50
 870 67 870 67 870 136 c 0,51,52
 870 203 870 203 748 203 c 2,53,-1
 461 203 l 2,54,55
 337 203 337 203 240 242.5 c 128,-1,56
 143 282 143 282 143 335 c 128,-1,57
 143 388 143 388 240 428.5 c 128,-1,58
 337 469 337 469 461 469 c 2,59,-1
 805 469 l 6,0,1
EndSplineSet
Validated: 3073
EndChar

StartChar: uniFF54
Encoding: 65364 65364 181
Width: 1177
VWidth: 0
Flags: W
HStem: -6 73<601.824 798.058> 390 73<157 413 577 945> 722 20G<357 622>
VStem: 413 164<91.5312 390 463 713>
LayerCount: 2
Fore
SplineSet
622 742 m 1,0,-1
 577 713 l 1,1,-1
 577 463 l 1,2,-1
 1021 463 l 1,3,-1
 945 390 l 1,4,-1
 577 390 l 1,5,-1
 577 164 l 2,6,7
 577 138 577 138 580 124.5 c 128,-1,8
 583 111 583 111 595 95.5 c 128,-1,9
 607 80 607 80 635 73.5 c 128,-1,10
 663 67 663 67 710 67 c 0,11,12
 754 67 754 67 790 85 c 128,-1,13
 826 103 826 103 840 121 c 2,14,-1
 855 139 l 1,15,-1
 855 208 l 1,16,-1
 1002 134 l 1,17,18
 981 95 981 95 895.5 44.5 c 128,-1,19
 810 -6 810 -6 699 -6 c 0,20,21
 587 -6 587 -6 500 27.5 c 128,-1,22
 413 61 413 61 413 119 c 2,23,-1
 413 390 l 1,24,-1
 157 390 l 1,25,-1
 157 463 l 1,26,-1
 413 463 l 1,27,-1
 413 713 l 1,28,-1
 357 742 l 1,29,-1
 622 742 l 1,0,-1
EndSplineSet
Validated: 3073
EndChar

StartChar: uniFF55
Encoding: 65365 65365 182
Width: 1177
VWidth: 0
Flags: W
HStem: -6 73<448.504 719.916>
VStem: 180 164<160.522 433> 831 164<15 63 161.424 433>
LayerCount: 2
Fore
SplineSet
1040 464 m 25,0,-1
 995 433 l 1,1,-1
 995 15 l 1,2,-1
 1044 -6 l 1,3,-1
 831 -6 l 1,4,-1
 831 63 l 1,5,6
 704 -6 704 -6 578 -6 c 0,7,8
 379 -6 379 -6 279.5 66.5 c 128,-1,9
 180 139 180 139 180 242 c 2,10,-1
 180 433 l 1,11,-1
 133 464 l 1,12,-1
 395 464 l 1,13,-1
 344 433 l 1,14,15
 344 248 l 2,16,17
 344 163 344 163 404 115 c 128,-1,18
 464 67 464 67 578 67 c 0,19,20
 705 67 705 67 768 116 c 128,-1,21
 831 165 831 165 831 248 c 2,22,-1
 831 433 l 1,23,-1
 786 464 l 1,24,-1
 1040 464 l 25,0,-1
EndSplineSet
Validated: 3073
EndChar

StartChar: uniFF56
Encoding: 65366 65366 183
Width: 1177
VWidth: 0
Flags: W
HStem: -6 21G<541 639>
VStem: 186 164<297.56 431> 827 164<296.941 431>
LayerCount: 2
Fore
SplineSet
1042 463 m 29,0,-1
 991 431 l 1,1,-1
 991 369 l 2,2,3
 991 318 991 318 935 242 c 128,-1,4
 879 166 879 166 783.5 94.5 c 128,-1,5
 688 23 688 23 590 -6 c 1,6,7
 492 23 492 23 395.5 94.5 c 128,-1,8
 299 166 299 166 242.5 242 c 128,-1,9
 186 318 186 318 186 369 c 2,10,-1
 186 431 l 1,11,-1
 135 463 l 1,12,-1
 403 463 l 1,13,-1
 350 431 l 1,14,-1
 350 369 l 2,15,16
 350 313 350 313 427 213 c 128,-1,17
 504 113 504 113 590 75 c 1,18,19
 675 112 675 112 751 212.5 c 128,-1,20
 827 313 827 313 827 369 c 2,21,-1
 827 431 l 1,22,-1
 770 463 l 1,23,-1
 1042 463 l 29,0,-1
EndSplineSet
Validated: 3073
EndChar

StartChar: uniFF57
Encoding: 65367 65367 184
Width: 1177
VWidth: 0
Flags: W
HStem: -6 21G<252 469.5 714 870>
VStem: 111 163<127.478 431> 508 162<136.844 431> 903 164<123.813 431>
LayerCount: 2
Fore
SplineSet
1112 463 m 29,0,-1
 1067 431 l 1,1,-1
 1067 217 l 2,2,3
 1067 126 1067 126 1003 71 c 128,-1,4
 939 16 939 16 801 -6 c 1,5,6
 627 37 627 37 588 99 c 1,7,8
 546 32 546 32 393 -6 c 1,9,10
 111 39 111 39 111 217 c 2,11,-1
 111 431 l 1,12,-1
 66 463 l 1,13,-1
 322 463 l 1,14,-1
 274 431 l 1,15,-1
 274 217 l 2,16,17
 274 184 274 184 276 168.5 c 128,-1,18
 278 153 278 153 288.5 132 c 128,-1,19
 299 111 299 111 324.5 96 c 128,-1,20
 350 81 350 81 393 67 c 1,21,22
 434 85 434 85 457.5 100.5 c 128,-1,23
 481 116 481 116 492 135.5 c 128,-1,24
 503 155 503 155 505.5 170.5 c 128,-1,25
 508 186 508 186 508 217 c 2,26,-1
 508 431 l 1,27,-1
 457 463 l 1,28,-1
 715 463 l 1,29,-1
 670 431 l 1,30,-1
 670 217 l 2,31,32
 670 163 670 163 695 133 c 128,-1,33
 720 103 720 103 801 67 c 1,34,35
 837 79 837 79 858.5 93.5 c 128,-1,36
 880 108 880 108 889 127 c 128,-1,37
 898 146 898 146 900 162.5 c 128,-1,38
 902 179 902 179 903 207 c 0,39,40
 903 214 903 214 903 217 c 2,41,-1
 903 431 l 1,42,-1
 854 463 l 1,43,-1
 1112 463 l 29,0,-1
EndSplineSet
Validated: 3073
EndChar

StartChar: uniFF58
Encoding: 65368 65368 185
Width: 1177
VWidth: 0
Flags: W
LayerCount: 2
Fore
SplineSet
1034 382 m 5,0,-1
 956 377 l 1,1,-1
 692 231 l 1,2,-1
 954 87 l 1,3,-1
 1034 83 l 1,4,-1
 850 -15 l 1,5,-1
 840 35 l 1,6,-1
 588 174 l 1,7,-1
 336 35 l 1,8,-1
 328 -16 l 1,9,-1
 143 82 l 1,10,-1
 219 86 l 1,11,-1
 483 231 l 1,12,-1
 219 378 l 1,13,-1
 145 382 l 1,14,-1
 328 470 l 1,15,-1
 334 429 l 1,16,-1
 588 290 l 1,17,-1
 840 429 l 1,18,-1
 850 470 l 1,19,-1
 1034 382 l 5,0,-1
EndSplineSet
Validated: 3073
EndChar

StartChar: uniFF59
Encoding: 65369 65369 186
Width: 1177
VWidth: 0
Flags: W
HStem: -205 73<409.805 742.145> 41 73<435.257 729.365>
VStem: 185 164<187.046 432> 828 164<-67.8711 110 192.113 432>
LayerCount: 2
Fore
SplineSet
1039 463 m 29,0,-1
 992 432 l 1,1,-1
 992 10 l 2,2,3
 992 -98 992 -98 883 -151.5 c 128,-1,4
 774 -205 774 -205 577 -205 c 1,5,6
 488 -204 488 -204 407.5 -189 c 128,-1,7
 327 -174 327 -174 269.5 -140 c 128,-1,8
 212 -106 212 -106 208 -59 c 1,9,-1
 333 -23 l 1,10,11
 333 -79 333 -79 399 -105.5 c 128,-1,12
 465 -132 465 -132 577 -132 c 0,13,14
 714 -132 714 -132 774.5 -95 c 128,-1,15
 835 -58 835 -58 835 20 c 2,16,-1
 835 110 l 1,17,18
 809 76 809 76 733.5 58.5 c 128,-1,19
 658 41 658 41 577 41 c 0,20,21
 377 41 377 41 281 107.5 c 128,-1,22
 185 174 185 174 185 272 c 2,23,-1
 185 432 l 1,24,-1
 138 463 l 1,25,-1
 402 463 l 1,26,-1
 349 432 l 1,27,-1
 349 272 l 2,28,29
 349 190 349 190 404.5 152 c 128,-1,30
 460 114 460 114 577 114 c 0,31,32
 828 114 828 114 828 272 c 2,33,-1
 828 432 l 1,34,-1
 783 463 l 1,35,-1
 1039 463 l 29,0,-1
EndSplineSet
Validated: 3073
EndChar

StartChar: uniFF5A
Encoding: 65370 65370 187
Width: 1177
VWidth: 0
Flags: W
HStem: -14 79<570.458 864.686> 5 73<348 545.086> 390 73<304.156 786>
LayerCount: 2
Fore
SplineSet
1034 463 m 17,0,1
 1033 447 1033 447 1016.5 427 c 128,-1,2
 1000 407 1000 407 965.5 383 c 128,-1,3
 931 359 931 359 896 337.5 c 128,-1,4
 861 316 861 316 805.5 287.5 c 128,-1,5
 750 259 750 259 710 239.5 c 128,-1,6
 670 220 670 220 606 191 c 128,-1,7
 542 162 542 162 510.5 148 c 128,-1,8
 479 134 479 134 419 108.5 c 128,-1,9
 359 83 359 83 348 78 c 1,10,-1
 793 65 l 1,11,12
 866 72 866 72 866 84 c 0,13,14
 866 92 866 92 841.5 97 c 128,-1,15
 817 102 817 102 817 111 c 0,16,17
 817 124 817 124 866 124 c 0,18,19
 929 124 929 124 966.5 106.5 c 128,-1,20
 1004 89 1004 89 1004 67 c 1,21,22
 1002 46 1002 46 982.5 27 c 128,-1,23
 963 8 963 8 928 -1 c 0,24,25
 877 -14 877 -14 813 -14 c 1,26,27
 467 5 467 5 303 5 c 0,28,29
 143 5 143 5 143 78 c 1,30,31
 187 107 187 107 331 168 c 128,-1,32
 475 229 475 229 610.5 290 c 128,-1,33
 746 351 746 351 786 390 c 1,34,-1
 375 390 l 1,35,36
 303 384 303 384 303 372 c 0,37,38
 303 364 303 364 325.5 358 c 128,-1,39
 348 352 348 352 348 343 c 0,40,41
 348 329 348 329 303 329 c 0,42,43
 239 329 239 329 201.5 346 c 128,-1,44
 164 363 164 363 164 385 c 1,45,46
 166 405 166 405 187 422 c 128,-1,47
 208 439 208 439 244 449 c 0,48,49
 299 463 299 463 354 463 c 2,50,-1
 1034 463 l 17,0,1
EndSplineSet
Validated: 3073
EndChar

StartChar: uniFF5B
Encoding: 65371 65371 188
Width: 1177
VWidth: 0
Flags: W
HStem: -88 82<707.978 825> 737 82<707.236 825>
LayerCount: 2
Fore
SplineSet
825 819 m 9,0,-1
 825 737 l 1,1,2
 788 737 788 737 759.5 732 c 128,-1,3
 731 727 731 727 716.5 720 c 128,-1,4
 702 713 702 713 692 706 c 128,-1,5
 682 699 682 699 680 694 c 2,6,-1
 678 689 l 1,7,8
 739 553 739 553 739 520 c 0,9,10
 739 502 739 502 709 479.5 c 128,-1,11
 679 457 679 457 623.5 425 c 128,-1,12
 568 393 568 393 541 373 c 1,13,14
 568 351 568 351 623.5 315 c 128,-1,15
 679 279 679 279 709 254 c 128,-1,16
 739 229 739 229 739 211 c 1,17,-1
 678 42 l 1,18,19
 679 40 679 40 681 37 c 128,-1,20
 683 34 683 34 693.5 25.5 c 128,-1,21
 704 17 704 17 718.5 10.5 c 128,-1,22
 733 4 733 4 761 -1 c 128,-1,23
 789 -6 789 -6 825 -6 c 1,24,-1
 825 -88 l 1,25,26
 760 -88 760 -88 704.5 -75.5 c 128,-1,27
 649 -63 649 -63 616 -45.5 c 128,-1,28
 583 -28 583 -28 559 -10 c 0,29,30
 536 8 536 8 526 20 c 2,31,-1
 516 32 l 1,32,33
 575 181 575 181 575 211 c 0,34,35
 575 228 575 228 541 253 c 128,-1,36
 507 278 507 278 444.5 314.5 c 128,-1,37
 382 351 382 351 352 373 c 1,38,39
 382 393 382 393 444.5 424.5 c 128,-1,40
 507 456 507 456 541 478.5 c 128,-1,41
 575 501 575 501 575 520 c 1,42,-1
 516 698 l 1,43,44
 519 703 519 703 526 711 c 128,-1,45
 533 719 533 719 559.5 740 c 128,-1,46
 586 761 586 761 618 777 c 128,-1,47
 650 793 650 793 705.5 806 c 128,-1,48
 761 819 761 819 825 819 c 9,0,-1
EndSplineSet
Validated: 3073
EndChar

StartChar: uniFF5C
Encoding: 65372 65372 189
Width: 1177
VWidth: 0
Flags: W
VStem: 507 164<-88 819>
LayerCount: 2
Fore
SplineSet
671 819 m 25,0,-1
 671 -88 l 1,1,-1
 507 -88 l 1,2,-1
 507 819 l 1,3,-1
 671 819 l 25,0,-1
EndSplineSet
Validated: 3073
EndChar

StartChar: uniFF5D
Encoding: 65373 65373 190
Width: 1177
VWidth: 0
Flags: W
HStem: -88 82<352 471.248> 737 82<352 470.989>
LayerCount: 2
Fore
SplineSet
352 819 m 17,0,1
 416 819 416 819 471 806.5 c 128,-1,2
 526 794 526 794 560 776 c 128,-1,3
 594 758 594 758 618 740 c 128,-1,4
 642 722 642 722 652 710 c 2,5,-1
 662 698 l 1,6,-1
 602 520 l 1,7,8
 602 501 602 501 636 478.5 c 128,-1,9
 670 456 670 456 732.5 424.5 c 128,-1,10
 795 393 795 393 825 373 c 1,11,12
 795 351 795 351 732.5 314.5 c 128,-1,13
 670 278 670 278 636 253 c 128,-1,14
 602 228 602 228 602 211 c 0,15,16
 602 198 602 198 617 153 c 128,-1,17
 632 108 632 108 647 70 c 2,18,-1
 662 32 l 1,19,20
 659 27 659 27 652 19 c 128,-1,21
 645 11 645 11 619 -9.5 c 128,-1,22
 593 -30 593 -30 561 -46 c 128,-1,23
 529 -62 529 -62 473 -75 c 128,-1,24
 417 -88 417 -88 352 -88 c 1,25,-1
 352 -6 l 1,26,27
 408 -6 408 -6 445 6 c 128,-1,28
 482 18 482 18 491 30 c 2,29,-1
 500 42 l 1,30,-1
 438 211 l 1,31,32
 438 229 438 229 468.5 254 c 128,-1,33
 499 279 499 279 554.5 315 c 128,-1,34
 610 351 610 351 637 373 c 1,35,36
 610 393 610 393 554.5 425 c 128,-1,37
 499 457 499 457 468.5 479.5 c 128,-1,38
 438 502 438 502 438 520 c 0,39,40
 438 535 438 535 454 577 c 0,41,42
 468 619 468 619 484 654 c 2,43,-1
 500 689 l 1,44,45
 499 691 499 691 497 694 c 128,-1,46
 495 697 495 697 485 705.5 c 128,-1,47
 475 714 475 714 460.5 720.5 c 128,-1,48
 446 727 446 727 417.5 732 c 128,-1,49
 389 737 389 737 352 737 c 5,50,-1
 352 819 l 17,0,1
EndSplineSet
Validated: 3073
EndChar

StartChar: uniFF5E
Encoding: 65374 65374 191
Width: 1177
VWidth: 0
Flags: W
HStem: 293 73<700.447 912.903> 391 72<262.74 477.553>
LayerCount: 2
Fore
SplineSet
1009 424 m 1,0,1
 1070 424 1070 424 1070 387 c 0,2,3
 1070 361 1070 361 981 327 c 128,-1,4
 892 293 892 293 808 293 c 0,5,6
 761 293 761 293 580.5 342 c 128,-1,7
 400 391 400 391 370 391 c 0,8,9
 341 391 341 391 289 376.5 c 128,-1,10
 237 362 237 362 200 347 c 2,11,-1
 163 332 l 1,12,13
 108 332 108 332 108 369 c 0,14,15
 108 395 108 395 197 429 c 128,-1,16
 286 463 286 463 370 463 c 0,17,18
 417 463 417 463 597.5 414.5 c 128,-1,19
 778 366 778 366 808 366 c 128,-1,20
 838 366 838 366 888 380 c 0,21,22
 938 396 938 396 974 410 c 2,23,-1
 1009 424 l 1,0,1
EndSplineSet
Validated: 3073
EndChar

StartChar: SF430000
Encoding: 9552 9552 192
Width: 588
VWidth: 2097
Flags: W
HStem: 209 85<0 589> 378 85<0 589>
LayerCount: 2
Fore
SplineSet
0 463 m 1,0,-1
 589 463 l 1,1,-1
 589 378 l 1,2,-1
 0 378 l 1,3,-1
 0 463 l 1,0,-1
0 294 m 1,4,-1
 589 294 l 1,5,-1
 589 209 l 1,6,-1
 0 209 l 1,7,-1
 0 294 l 1,4,-1
EndSplineSet
Validated: 3073
EndChar

StartChar: SF240000
Encoding: 9553 9553 193
Width: 588
VWidth: 2097
Flags: W
VStem: 168 84<-205 819> 336 84<-205 819>
LayerCount: 2
Fore
SplineSet
336 -205 m 1,0,-1
 336 819 l 1,1,-1
 420 819 l 1,2,-1
 420 -205 l 1,3,-1
 336 -205 l 1,0,-1
252 -205 m 1,4,-1
 168 -205 l 1,5,-1
 168 819 l 1,6,-1
 252 819 l 1,7,-1
 252 -205 l 1,4,-1
EndSplineSet
Validated: 3073
EndChar

StartChar: SF510000
Encoding: 9554 9554 194
Width: 588
VWidth: 2097
Flags: W
HStem: 209 85<336 589> 378 85<336 589>
VStem: 252 84<-205 209 294 378>
LayerCount: 2
Fore
SplineSet
336 378 m 1,0,-1
 336 294 l 1,1,-1
 589 294 l 1,2,-1
 589 209 l 1,3,-1
 336 209 l 1,4,-1
 336 -205 l 1,5,-1
 252 -205 l 1,6,-1
 252 463 l 1,7,-1
 589 463 l 1,8,-1
 589 378 l 1,9,-1
 336 378 l 1,0,-1
EndSplineSet
Validated: 3073
EndChar

StartChar: SF520000
Encoding: 9555 9555 195
Width: 588
VWidth: 2097
Flags: W
HStem: 294 85<252 336 420 589>
VStem: 168 84<-205 294> 336 84<-205 294>
LayerCount: 2
Fore
SplineSet
420 294 m 1,0,-1
 420 -205 l 1,1,-1
 336 -205 l 1,2,-1
 336 294 l 1,3,-1
 252 294 l 1,4,-1
 252 -205 l 1,5,-1
 168 -205 l 1,6,-1
 168 379 l 1,7,-1
 589 379 l 1,8,-1
 589 294 l 1,9,-1
 420 294 l 1,0,-1
EndSplineSet
Validated: 3073
EndChar

StartChar: SF390000
Encoding: 9556 9556 196
Width: 588
VWidth: 2097
Flags: W
HStem: 209 85<420 589> 378 85<252 589>
VStem: 168 84<-205 378> 336 84<-205 209>
LayerCount: 2
Fore
SplineSet
589 463 m 1,0,-1
 589 378 l 1,1,-1
 252 378 l 1,2,-1
 252 -205 l 1,3,-1
 168 -205 l 1,4,-1
 168 463 l 1,5,-1
 589 463 l 1,0,-1
336 294 m 1,6,-1
 589 294 l 1,7,-1
 589 209 l 1,8,-1
 420 209 l 1,9,-1
 420 -205 l 1,10,-1
 336 -205 l 1,11,-1
 336 294 l 1,6,-1
EndSplineSet
Validated: 3073
EndChar

StartChar: SF220000
Encoding: 9557 9557 197
Width: 588
VWidth: 2097
Flags: W
HStem: 209 85<0 252> 378 85<0 252>
VStem: 252 84<-205 209 294 378>
LayerCount: 2
Fore
SplineSet
252 378 m 1,0,-1
 0 378 l 1,1,-1
 0 463 l 1,2,-1
 336 463 l 1,3,-1
 336 -205 l 1,4,-1
 252 -205 l 1,5,-1
 252 209 l 1,6,-1
 0 209 l 1,7,-1
 0 294 l 1,8,-1
 252 294 l 1,9,-1
 252 378 l 1,0,-1
EndSplineSet
Validated: 3073
EndChar

StartChar: SF210000
Encoding: 9558 9558 198
Width: 588
VWidth: 2097
Flags: W
HStem: 294 85<0 168 252 336>
VStem: 168 84<-205 294> 336 84<-205 294>
LayerCount: 2
Fore
SplineSet
168 294 m 1,0,-1
 0 294 l 1,1,-1
 0 379 l 1,2,-1
 420 379 l 1,3,-1
 420 -205 l 1,4,-1
 336 -205 l 1,5,-1
 336 294 l 1,6,-1
 252 294 l 1,7,-1
 252 -205 l 1,8,-1
 168 -205 l 1,9,-1
 168 294 l 1,0,-1
EndSplineSet
Validated: 3073
EndChar

StartChar: SF250000
Encoding: 9559 9559 199
Width: 588
VWidth: 2097
Flags: W
HStem: 209 85<0 168> 378 85<0 336>
VStem: 168 84<-205 209> 336 84<-205 378>
LayerCount: 2
Fore
SplineSet
0 463 m 1,0,-1
 420 463 l 1,1,-1
 420 -205 l 1,2,-1
 336 -205 l 1,3,-1
 336 378 l 1,4,-1
 0 378 l 1,5,-1
 0 463 l 1,0,-1
252 294 m 1,6,-1
 252 -205 l 1,7,-1
 168 -205 l 1,8,-1
 168 209 l 1,9,-1
 0 209 l 1,10,-1
 0 294 l 1,11,-1
 252 294 l 1,6,-1
EndSplineSet
Validated: 3073
EndChar

StartChar: SF500000
Encoding: 9560 9560 200
Width: 588
VWidth: 2097
Flags: W
HStem: 209 85<336 589> 378 85<336 589>
VStem: 252 84<294 378 463 819>
LayerCount: 2
Fore
SplineSet
336 294 m 1,0,-1
 589 294 l 1,1,-1
 589 209 l 1,2,-1
 252 209 l 1,3,-1
 252 819 l 1,4,-1
 336 819 l 1,5,-1
 336 463 l 1,6,-1
 589 463 l 1,7,-1
 589 378 l 1,8,-1
 336 378 l 1,9,-1
 336 294 l 1,0,-1
EndSplineSet
Validated: 3073
EndChar

StartChar: SF490000
Encoding: 9561 9561 201
Width: 588
VWidth: 2097
Flags: W
HStem: 294 85<252 336 420 589>
VStem: 168 84<379 819> 336 84<379 819>
LayerCount: 2
Fore
SplineSet
420 379 m 1,0,-1
 589 379 l 1,1,-1
 589 294 l 1,2,-1
 168 294 l 1,3,-1
 168 819 l 1,4,-1
 252 819 l 1,5,-1
 252 379 l 1,6,-1
 336 379 l 1,7,-1
 336 819 l 1,8,-1
 420 819 l 1,9,-1
 420 379 l 1,0,-1
EndSplineSet
Validated: 3073
EndChar

StartChar: SF380000
Encoding: 9562 9562 202
Width: 588
VWidth: 2097
Flags: W
HStem: 209 85<252 589> 378 85<420 589>
VStem: 168 84<294 819> 336 84<463 819>
LayerCount: 2
Fore
SplineSet
589 209 m 1,0,-1
 168 209 l 1,1,-1
 168 819 l 1,2,-1
 252 819 l 1,3,-1
 252 294 l 1,4,-1
 589 294 l 1,5,-1
 589 209 l 1,0,-1
336 378 m 1,6,-1
 336 819 l 1,7,-1
 420 819 l 1,8,-1
 420 463 l 1,9,-1
 589 463 l 1,10,-1
 589 378 l 1,11,-1
 336 378 l 1,6,-1
EndSplineSet
Validated: 3073
EndChar

StartChar: SF280000
Encoding: 9563 9563 203
Width: 588
VWidth: 2097
Flags: W
HStem: 209 85<0 252> 378 85<0 252>
VStem: 252 84<294 378 463 819>
LayerCount: 2
Fore
SplineSet
252 294 m 1,0,-1
 252 378 l 1,1,-1
 0 378 l 1,2,-1
 0 463 l 1,3,-1
 252 463 l 1,4,-1
 252 819 l 1,5,-1
 336 819 l 1,6,-1
 336 209 l 1,7,-1
 0 209 l 1,8,-1
 0 294 l 1,9,-1
 252 294 l 1,0,-1
EndSplineSet
Validated: 3073
EndChar

StartChar: SF270000
Encoding: 9564 9564 204
Width: 588
VWidth: 2097
Flags: W
HStem: 294 85<0 168 252 336>
VStem: 168 84<379 819> 336 84<379 819>
LayerCount: 2
Fore
SplineSet
168 379 m 1,0,-1
 168 819 l 1,1,-1
 252 819 l 1,2,-1
 252 379 l 1,3,-1
 336 379 l 1,4,-1
 336 819 l 1,5,-1
 420 819 l 1,6,-1
 420 294 l 1,7,-1
 0 294 l 1,8,-1
 0 379 l 1,9,-1
 168 379 l 1,0,-1
EndSplineSet
Validated: 3073
EndChar

StartChar: SF260000
Encoding: 9565 9565 205
Width: 588
VWidth: 2097
Flags: W
HStem: 209 85<0 336> 378 85<0 168>
VStem: 168 84<463 819> 336 84<294 819>
LayerCount: 2
Fore
SplineSet
0 209 m 1,0,-1
 0 294 l 1,1,-1
 336 294 l 1,2,-1
 336 819 l 1,3,-1
 420 819 l 1,4,-1
 420 209 l 1,5,-1
 0 209 l 1,0,-1
252 378 m 1,6,-1
 0 378 l 1,7,-1
 0 463 l 1,8,-1
 168 463 l 1,9,-1
 168 819 l 1,10,-1
 252 819 l 1,11,-1
 252 378 l 1,6,-1
EndSplineSet
Validated: 3073
EndChar

StartChar: SF360000
Encoding: 9566 9566 206
Width: 588
VWidth: 2097
Flags: W
HStem: 209 85<336 589> 378 85<336 589>
VStem: 252 84<-205 209 294 378 463 819>
LayerCount: 2
Fore
SplineSet
336 -205 m 1,0,-1
 252 -205 l 1,1,-1
 252 819 l 1,2,-1
 336 819 l 1,3,-1
 336 463 l 1,4,-1
 589 463 l 1,5,-1
 589 378 l 1,6,-1
 336 378 l 1,7,-1
 336 294 l 1,8,-1
 589 294 l 1,9,-1
 589 209 l 1,10,-1
 336 209 l 1,11,-1
 336 -205 l 1,0,-1
EndSplineSet
Validated: 3073
EndChar

StartChar: SF370000
Encoding: 9567 9567 207
Width: 588
VWidth: 2097
Flags: W
HStem: 294 85<420 589>
VStem: 168 84<-205 819> 336 84<-205 294 379 819>
LayerCount: 2
Fore
SplineSet
589 379 m 1,0,-1
 589 294 l 1,1,-1
 420 294 l 1,2,-1
 420 -205 l 1,3,-1
 336 -205 l 1,4,-1
 336 819 l 1,5,-1
 420 819 l 1,6,-1
 420 379 l 1,7,-1
 589 379 l 1,0,-1
252 -205 m 1,8,-1
 168 -205 l 1,9,-1
 168 819 l 1,10,-1
 252 819 l 1,11,-1
 252 -205 l 1,8,-1
EndSplineSet
Validated: 3073
EndChar

StartChar: SF420000
Encoding: 9568 9568 208
Width: 588
VWidth: 2097
Flags: W
HStem: 209 85<420 590> 378 85<420 590>
VStem: 168 84<-205 819> 336 254<209 294 378 463> 336 84<-205 209 463 819>
LayerCount: 2
Fore
SplineSet
252 -205 m 1,0,-1
 168 -205 l 1,1,-1
 168 819 l 1,2,-1
 252 819 l 1,3,-1
 252 -205 l 1,0,-1
336 294 m 1,4,-1
 590 294 l 1,5,-1
 590 209 l 1,6,-1
 420 209 l 1,7,-1
 420 -205 l 1,8,-1
 336 -205 l 1,9,-1
 336 294 l 1,4,-1
336 378 m 1,10,-1
 336 819 l 1,11,-1
 420 819 l 1,12,-1
 420 463 l 1,13,-1
 590 463 l 1,14,-1
 590 378 l 1,15,-1
 336 378 l 1,10,-1
EndSplineSet
Validated: 3073
EndChar

StartChar: SF190000
Encoding: 9569 9569 209
Width: 588
VWidth: 2097
Flags: W
HStem: 209 85<0 252> 378 85<0 252>
VStem: 252 84<-205 209 294 378 463 819>
LayerCount: 2
Fore
SplineSet
252 -205 m 1,0,-1
 252 209 l 1,1,-1
 0 209 l 1,2,-1
 0 294 l 1,3,-1
 252 294 l 1,4,-1
 252 378 l 1,5,-1
 0 378 l 1,6,-1
 0 463 l 1,7,-1
 252 463 l 1,8,-1
 252 819 l 1,9,-1
 336 819 l 1,10,-1
 336 -205 l 1,11,-1
 252 -205 l 1,0,-1
EndSplineSet
Validated: 3073
EndChar

StartChar: SF200000
Encoding: 9570 9570 210
Width: 588
VWidth: 2097
Flags: W
HStem: 294 85<0 168>
VStem: 168 84<-205 294 379 819> 336 84<-205 819>
LayerCount: 2
Fore
SplineSet
0 379 m 1,0,-1
 168 379 l 1,1,-1
 168 819 l 1,2,-1
 252 819 l 1,3,-1
 252 -205 l 1,4,-1
 168 -205 l 1,5,-1
 168 294 l 1,6,-1
 0 294 l 1,7,-1
 0 379 l 1,0,-1
336 -205 m 1,8,-1
 336 819 l 1,9,-1
 420 819 l 1,10,-1
 420 -205 l 1,11,-1
 336 -205 l 1,8,-1
EndSplineSet
Validated: 3073
EndChar

StartChar: SF230000
Encoding: 9571 9571 211
Width: 588
VWidth: 2097
Flags: W
HStem: 209 85<0 168> 378 85<0 168>
VStem: 0 252<209 294 378 463> 168 84<-205 209 463 819> 336 84<-205 819>
LayerCount: 2
Fore
SplineSet
336 -205 m 1,0,-1
 336 819 l 1,1,-1
 420 819 l 1,2,-1
 420 -205 l 1,3,-1
 336 -205 l 1,0,-1
252 294 m 1,4,-1
 252 -205 l 1,5,-1
 168 -205 l 1,6,-1
 168 209 l 1,7,-1
 0 209 l 1,8,-1
 0 294 l 1,9,-1
 252 294 l 1,4,-1
252 378 m 1,10,-1
 0 378 l 1,11,-1
 0 463 l 1,12,-1
 168 463 l 1,13,-1
 168 819 l 1,14,-1
 252 819 l 1,15,-1
 252 378 l 1,10,-1
EndSplineSet
Validated: 3073
EndChar

StartChar: SF470000
Encoding: 9572 9572 212
Width: 588
VWidth: 2097
Flags: W
HStem: 209 85<0 252 336 589> 378 85<0 589>
VStem: 252 84<-205 209>
LayerCount: 2
Fore
SplineSet
589 294 m 1,0,-1
 589 209 l 1,1,-1
 336 209 l 1,2,-1
 336 -205 l 1,3,-1
 252 -205 l 1,4,-1
 252 209 l 1,5,-1
 0 209 l 1,6,-1
 0 294 l 1,7,-1
 589 294 l 1,0,-1
0 378 m 1,8,-1
 0 463 l 1,9,-1
 589 463 l 1,10,-1
 589 378 l 1,11,-1
 0 378 l 1,8,-1
EndSplineSet
Validated: 3073
EndChar

StartChar: SF480000
Encoding: 9573 9573 213
Width: 588
VWidth: 2097
Flags: W
HStem: 294 85<0 168 252 336 420 589>
VStem: 168 84<-205 294> 336 84<-205 294>
LayerCount: 2
Fore
SplineSet
420 294 m 1,0,-1
 420 -205 l 1,1,-1
 336 -205 l 1,2,-1
 336 294 l 1,3,-1
 252 294 l 1,4,-1
 252 -205 l 1,5,-1
 168 -205 l 1,6,-1
 168 294 l 1,7,-1
 0 294 l 1,8,-1
 0 379 l 1,9,-1
 589 379 l 1,10,-1
 589 294 l 1,11,-1
 420 294 l 1,0,-1
EndSplineSet
Validated: 3073
EndChar

StartChar: SF410000
Encoding: 9574 9574 214
Width: 588
VWidth: 2097
Flags: W
HStem: 209 85<0 168 420 589> 378 85<0 589>
VStem: 168 84<-205 209> 336 84<-205 209>
LayerCount: 2
Fore
SplineSet
0 209 m 1,0,-1
 0 294 l 1,1,-1
 252 294 l 1,2,-1
 252 -205 l 1,3,-1
 168 -205 l 1,4,-1
 168 209 l 1,5,-1
 0 209 l 1,0,-1
336 294 m 1,6,-1
 589 294 l 1,7,-1
 589 209 l 1,8,-1
 420 209 l 1,9,-1
 420 -205 l 1,10,-1
 336 -205 l 1,11,-1
 336 294 l 1,6,-1
0 463 m 1,12,-1
 589 463 l 1,13,-1
 589 378 l 1,14,-1
 0 378 l 1,15,-1
 0 463 l 1,12,-1
EndSplineSet
Validated: 3073
EndChar

StartChar: SF450000
Encoding: 9575 9575 215
Width: 588
VWidth: 2097
Flags: W
HStem: 209 85<0 589> 378 85<0 252 336 589>
VStem: 252 84<463 819>
LayerCount: 2
Fore
SplineSet
589 378 m 1,0,-1
 0 378 l 1,1,-1
 0 463 l 1,2,-1
 252 463 l 1,3,-1
 252 819 l 1,4,-1
 336 819 l 1,5,-1
 336 463 l 1,6,-1
 589 463 l 1,7,-1
 589 378 l 1,0,-1
0 294 m 1,8,-1
 589 294 l 1,9,-1
 589 209 l 1,10,-1
 0 209 l 1,11,-1
 0 294 l 1,8,-1
EndSplineSet
Validated: 3073
EndChar

StartChar: SF460000
Encoding: 9576 9576 216
Width: 588
VWidth: 2097
Flags: W
HStem: 294 85<0 168 252 336 420 589>
VStem: 168 84<379 819> 336 84<379 819>
LayerCount: 2
Fore
SplineSet
420 379 m 1,0,-1
 589 379 l 1,1,-1
 589 294 l 1,2,-1
 0 294 l 1,3,-1
 0 379 l 1,4,-1
 168 379 l 1,5,-1
 168 819 l 1,6,-1
 252 819 l 1,7,-1
 252 379 l 1,8,-1
 336 379 l 1,9,-1
 336 819 l 1,10,-1
 420 819 l 1,11,-1
 420 379 l 1,0,-1
EndSplineSet
Validated: 3073
EndChar

StartChar: SF400000
Encoding: 9577 9577 217
Width: 588
VWidth: 2097
Flags: W
HStem: 209 85<0 589> 378 85<0 168 420 589>
VStem: 168 84<463 819> 336 84<463 819>
LayerCount: 2
Fore
SplineSet
0 463 m 1,0,-1
 168 463 l 1,1,-1
 168 819 l 1,2,-1
 252 819 l 1,3,-1
 252 378 l 1,4,-1
 0 378 l 1,5,-1
 0 463 l 1,0,-1
336 378 m 1,6,-1
 336 819 l 1,7,-1
 420 819 l 1,8,-1
 420 463 l 1,9,-1
 589 463 l 1,10,-1
 589 378 l 1,11,-1
 336 378 l 1,6,-1
0 209 m 1,12,-1
 0 294 l 1,13,-1
 589 294 l 1,14,-1
 589 209 l 1,15,-1
 0 209 l 1,12,-1
EndSplineSet
Validated: 3073
EndChar

StartChar: SF540000
Encoding: 9578 9578 218
Width: 588
VWidth: 2097
Flags: W
HStem: 209 85<0 252 336 589> 378 85<0 252 336 589>
VStem: 252 84<-205 209 294 378 463 819>
LayerCount: 2
Fore
SplineSet
336 378 m 1,0,-1
 336 294 l 1,1,-1
 589 294 l 1,2,-1
 589 209 l 1,3,-1
 336 209 l 1,4,-1
 336 -205 l 1,5,-1
 252 -205 l 1,6,-1
 252 209 l 1,7,-1
 0 209 l 1,8,-1
 0 294 l 1,9,-1
 252 294 l 1,10,-1
 252 378 l 1,11,-1
 0 378 l 1,12,-1
 0 463 l 1,13,-1
 252 463 l 1,14,-1
 252 819 l 1,15,-1
 336 819 l 1,16,-1
 336 463 l 1,17,-1
 589 463 l 1,18,-1
 589 378 l 1,19,-1
 336 378 l 1,0,-1
EndSplineSet
Validated: 3073
EndChar

StartChar: SF530000
Encoding: 9579 9579 219
Width: 588
VWidth: 2097
Flags: W
HStem: 294 85<0 168 252 336 420 589>
VStem: 168 84<-205 294 379 819> 336 84<-205 294 379 819>
LayerCount: 2
Fore
SplineSet
420 294 m 1,0,-1
 420 -205 l 1,1,-1
 336 -205 l 1,2,-1
 336 294 l 1,3,-1
 252 294 l 1,4,-1
 252 -205 l 1,5,-1
 168 -205 l 1,6,-1
 168 294 l 1,7,-1
 0 294 l 1,8,-1
 0 379 l 1,9,-1
 168 379 l 1,10,-1
 168 819 l 1,11,-1
 252 819 l 1,12,-1
 252 379 l 1,13,-1
 336 379 l 1,14,-1
 336 819 l 1,15,-1
 420 819 l 1,16,-1
 420 379 l 1,17,-1
 589 379 l 1,18,-1
 589 294 l 1,19,-1
 420 294 l 1,0,-1
EndSplineSet
Validated: 3073
EndChar

StartChar: SF440000
Encoding: 9580 9580 220
Width: 588
VWidth: 2097
Flags: W
HStem: 209 85<0 168 420 589> 378 85<0 168 420 589>
VStem: 0 252<209 294 378 463> 168 84<-205 209 463 819> 336 253<209 294 378 463> 336 84<-205 209 463 819>
LayerCount: 2
Fore
SplineSet
0 209 m 1,0,-1
 0 294 l 1,1,-1
 252 294 l 1,2,-1
 252 -205 l 1,3,-1
 168 -205 l 1,4,-1
 168 209 l 1,5,-1
 0 209 l 1,0,-1
336 294 m 1,6,-1
 589 294 l 1,7,-1
 589 209 l 1,8,-1
 420 209 l 1,9,-1
 420 -205 l 1,10,-1
 336 -205 l 1,11,-1
 336 294 l 1,6,-1
252 378 m 1,12,-1
 0 378 l 1,13,-1
 0 463 l 1,14,-1
 168 463 l 1,15,-1
 168 819 l 1,16,-1
 252 819 l 1,17,-1
 252 378 l 1,12,-1
336 378 m 1,18,-1
 336 819 l 1,19,-1
 420 819 l 1,20,-1
 420 463 l 1,21,-1
 589 463 l 1,22,-1
 589 378 l 1,23,-1
 336 378 l 1,18,-1
EndSplineSet
Validated: 3073
EndChar

